{
classes = (
{
code = "zero one two three four five six seven eight nine A B C D E F G H I J K L M N O P Q R S T U V W X Y Z uni0410 uni0411 uni0412 uni0413 uni0414 uni0415 uni0416 uni0417 uni0418 uni0419 uni041A uni041B uni041C uni041D uni041E uni041F uni0420 uni0421 uni0422 uni0423 uni0424 uni0425 uni0426 uni0427 uni0428 uni0429 uni042A uni042B uni042C uni042D uni042E uni042F uni0401 K_alt W_alt Acircumflex Adieresis Ccedilla Ecircumflex Icircumflex Odieresis Udieresis Abreve Idotaccent Scedilla uni0162 uni0218 uni021A uni04C1";
name = calt1;
},
{
code = "o a c d e g q s u y t acircumflex adieresis ccedilla ecircumflex odieresis udieresis u_alt y_alt s_alt c_alt t_alt t2.alt g_alt a_alt abreve scedilla uni0163 uni0219 uni021B uni0430 uni0431 uni0435 uni0437 uni043E uni0441 uni0444 uni044D uni0451 space zero one three five six seven eight nine f v endash emdash uni00AD hyphen.uc uni00AD.uc endash.uc emdash.uc minus hyphen t0163.alt t021b.alt a2_alt a00E2.alt a00E4.alt a0103.alt";
name = calt2;
},
{
code = "uniE000 uniE001 uniE002 uniE003 uniE004 uniE005 uniE006 uniE007 uniE008 uniE009 uniE010 uniE011 uniE012 uniE013 uniE014 uniE015 uniE016 uniE017 uniE018 uniE019 uniE020 uniE021 uniE022";
name = tnum1;
},
{
code = "zero one two three four five six seven eight nine period comma colon semicolon quotesingle quotedbl quoteright quotedblright quoteleft quotedblleft quotesinglbase quotedblbase colon.uc";
name = pnum1;
}
);
copyright = "Copyright (c) 2021-2022, Dmitri Voloshin, Andrey Kudryavtsev";
designer = "Andrey Kudryavtsev";
designerURL = "https://onest.md";
familyName = Onest;
customParameters = (
{
name = glyphOrder;
value = (
.notdef,
uni0000,
uni000D,
space,
B,
D,
E,
F,
H,
I,
L,
M,
N,
P,
R,
U,
V,
W,
X,
Y,
Z,
b,
d,
h,
i,
l,
m,
n,
p,
q,
u,
v,
w,
x,
z,
period,
comma,
A,
breve,
circumflex,
uni0326,
abreve,
acircumflex,
Abreve,
Acircumflex,
Icircumflex,
exclam,
quotedbl,
quotesingle,
numbersign,
percent,
asterisk,
plus,
slash,
colon,
semicolon,
less,
equal,

glyphs = (
{
color = (166, 255, 153, 255);
glyphname = B;
layers = (
{
layerId = "65F68577-51D6-4015-BE17-9540A8734A9C";
paths = (
{
closed = 1;
nodes = (
"91 707 LINE",
"335 707 LINE",
"381 707 OFFCURVE",
"464 694 OFFCURVE",
"527 656 OFFCURVE",
"565 588 OFFCURVE",
"565 533 QCURVE",
"565 473 OFFCURVE",
"506 390 OFFCURVE",
"450 372 QCURVE",
"522 360 OFFCURVE",
"603 266 OFFCURVE",
"603 192 QCURVE",
"603 133 OFFCURVE",
"554 59 OFFCURVE",
"476 16 OFFCURVE",
"378 0 OFFCURVE",
"329 0 QCURVE",
"91 0 LINE"
);
},
{
closed = 1;
nodes = (
"156 647 LINE",
"156 391 LINE",
"314 391 LINE",
"348 391 OFFCURVE",
"415 404 OFFCURVE",
"469 436 OFFCURVE",
"503 489 OFFCURVE",
"503 529 QCURVE",
"503 568 OFFCURVE",
"475 615 OFFCURVE",
"428 639 OFFCURVE",
"368 647 OFFCURVE",
"336 647 QCURVE"
);
},
{
closed = 1;
nodes = (
"326 60 LINE",
"362 60 OFFCURVE",
"437 68 OFFCURVE",
"498 95 OFFCURVE",
"537 149 OFFCURVE",
"537 196 QCURVE",
"537 237 OFFCURVE",
"506 289 OFFCURVE",
"456 319 OFFCURVE",
"390 331 OFFCURVE",
"356 331 QCURVE",
"156 331 LINE",
"156 60 LINE"
);
}
);
width = 657;
}
);
leftKerningGroup = _kern1;
unicode = 0042;
},
{
color = (166, 255, 153, 255);
glyphname = D;
layers = (
{
layerId = "65F68577-51D6-4015-BE17-9540A8734A9C";
paths = (
{
closed = 1;
nodes = (
"92 707 LINE",
"339 707 LINE",
"421 707 OFFCURVE",
"545 656 OFFCURVE",
"628 563 OFFCURVE",
"670 432 OFFCURVE",
"670 353 QCURVE",
"670 275 OFFCURVE",
"627 145 OFFCURVE",
"544 52 OFFCURVE",
"420 0 OFFCURVE",
"339 0 QCURVE",
"92 0 LINE"
);
},
{
closed = 1;
nodes = (
"157 648 LINE",
"157 59 LINE",
"332 59 LINE",
"399 59 OFFCURVE",
"501 102 OFFCURVE",
"569 180 OFFCURVE",
"603 288 OFFCURVE",
"603 353 QCURVE",
"603 416 OFFCURVE",
"571 524 OFFCURVE",
"505 603 OFFCURVE",
"405 648 OFFCURVE",
"338 648 QCURVE"
);
}
);
width = 724;
}
);
leftKerningGroup = _kern1;
rightKerningGroup = _kern4;
unicode = 0044;
},
{
color = (166, 255, 153, 255);
glyphname = E;
layers = (
{
layerId = "65F68577-51D6-4015-BE17-9540A8734A9C";
paths = (
{
closed = 1;
nodes = (
"92 707 LINE",
"557 707 LINE",
"557 647 LINE",
"157 647 LINE",
"157 381 LINE",
"517 381 LINE",
"517 321 LINE",
"157 321 LINE",
"157 60 LINE",
"557 60 LINE",
"557 0 LINE",
"92 0 LINE"
);
}
);
width = 610;
}
);
leftKerningGroup = _kern1;
unicode = 0045;
},
{
color = (166, 255, 153, 255);
glyphname = F;
layers = (
{
layerId = "65F68577-51D6-4015-BE17-9540A8734A9C";
paths = (
{
closed = 1;
nodes = (
"92 0 LINE",
"92 707 LINE",
"557 707 LINE",
"557 647 LINE",
"157 647 LINE",
"157 358 LINE",
"499 358 LINE",
"499 298 LINE",
"157 298 LINE",
"157 0 LINE"
);
}
);
width = 599;
}
);
leftKerningGroup = _kern1;
unicode = 0046;
},
{
color = (166, 255, 153, 255);
glyphname = H;
layers = (
{
layerId = "65F68577-51D6-4015-BE17-9540A8734A9C";
paths = (
{
closed = 1;
nodes = (
"573 377 LINE",
"573 707 LINE",
"638 707 LINE",
"638 0 LINE",
"573 0 LINE",
"573 317 LINE",
"157 317 LINE",
"157 0 LINE",
"92 0 LINE",
"92 707 LINE",
"157 707 LINE",
"157 377 LINE"
);
}
);
width = 730;
}
);
leftKerningGroup = _kern1;
rightKerningGroup = _kern2;
unicode = 0048;
},
{
color = (166, 255, 153, 255);
glyphname = I;
layers = (
{
layerId = "65F68577-51D6-4015-BE17-9540A8734A9C";
paths = (
{
closed = 1;
nodes = (
"157 0 LINE",
"92 0 LINE",
"92 707 LINE",
"157 707 LINE"
);
}
);
width = 249;
}
);
leftKerningGroup = _kern1;
rightKerningGroup = _kern2;
unicode = 0049;
},
{
color = (166, 255, 153, 255);
glyphname = L;
layers = (
{
layerId = "65F68577-51D6-4015-BE17-9540A8734A9C";
paths = (
{
closed = 1;
nodes = (
"92 0 LINE",
"92 707 LINE",
"157 707 LINE",
"157 60 LINE",
"557 60 LINE",
"557 0 LINE"
);
}
);
width = 602;
}
);
unicode = 004C;
},
{
color = (166, 255, 153, 255);
glyphname = M;
layers = (
{
layerId = "65F68577-51D6-4015-BE17-9540A8734A9C";
paths = (
{
closed = 1;
nodes = (
"744 707 LINE",
"744 0 LINE",
"679 0 LINE",
"679 646 LINE",
"619 535 OFFCURVE",
"495 299 OFFCURVE",
"435 188 QCURVE",
"404 188 LINE",
"157 646 LINE",
"157 0 LINE",
"92 0 LINE",
"92 707 LINE",
"197 707 LINE",
"422 292 LINE",
"643 707 LINE"
);
}
);
width = 836;
}
);
leftKerningGroup = _kern1;
rightKerningGroup = _kern2;
unicode = 004D;
},
{
color = (166, 255, 153, 255);
glyphname = N;
layers = (
{
layerId = "65F68577-51D6-4015-BE17-9540A8734A9C";
paths = (
{
closed = 1;
nodes = (
"92 0 LINE",
"92 707 LINE",
"193 707 LINE",
"591 64 LINE",
"591 707 LINE",
"656 707 LINE",
"656 0 LINE",
"557 0 LINE",
"157 641 LINE",
"157 0 LINE"
);
}
);
width = 748;
}
);
leftKerningGroup = _kern1;
rightKerningGroup = _kern2;
unicode = 004E;
},
{
color = (166, 255, 153, 255);
glyphname = P;
layers = (
{
layerId = "65F68577-51D6-4015-BE17-9540A8734A9C";
paths = (
{
closed = 1;
nodes = (
"92 707 LINE",
"332 707 LINE",
"447 707 OFFCURVE",
"577 595 OFFCURVE",
"577 476 QCURVE",
"577 416 OFFCURVE",
"536 328 OFFCURVE",
"465 269 OFFCURVE",
"368 241 OFFCURVE",
"312 241 QCURVE",
"157 241 LINE",
"157 0 LINE",
"92 0 LINE"
);
},
{
closed = 1;
nodes = (
"310 301 LINE",
"355 301 OFFCURVE",
"429 321 OFFCURVE",
"481 365 OFFCURVE",
"510 433 OFFCURVE",
"510 480 QCURVE",
"510 570 OFFCURVE",
"412 647 OFFCURVE",
"327 647 QCURVE",
"157 647 LINE",
"157 301 LINE"
);
}
);
width = 631;
}
);
leftKerningGroup = _kern1;
unicode = 0050;
},
{
color = (166, 255, 153, 255);
glyphname = R;
layers = (
{
layerId = "65F68577-51D6-4015-BE17-9540A8734A9C";
paths = (
{
closed = 1;
nodes = (
"157 276 LINE",
"157 0 LINE",
"92 0 LINE",
"92 707 LINE",
"353 707 LINE",
"408 707 OFFCURVE",
"500 684 OFFCURVE",
"566 633 OFFCURVE",
"602 550 OFFCURVE",
"602 490 QCURVE",
"602 409 OFFCURVE",
"518 307 OFFCURVE",
"439 287 QCURVE",
"593 0 LINE",
"521 0 LINE",
"372 276 LINE"
);
},
{
closed = 1;
nodes = (
"330 336 LINE",
"370 336 OFFCURVE",
"445 348 OFFCURVE",
"501 383 OFFCURVE",
"535 444 OFFCURVE",
"535 493 QCURVE",
"535 539 OFFCURVE",
"506 599 OFFCURVE",
"455 633 OFFCURVE",
"385 647 OFFCURVE",
"344 647 QCURVE",
"157 647 LINE",
"157 336 LINE"
);
}
);
width = 660;
}
);
leftKerningGroup = _kern1;
unicode = 0052;
},
{
color = (166, 255, 153, 255);
glyphname = U;
layers = (
{
layerId = "65F68577-51D6-4015-BE17-9540A8734A9C";
paths = (
{
closed = 1;
nodes = (
"635 707 LINE",
"635 301 LINE",
"635 233 OFFCURVE",
"604 120 OFFCURVE",
"537 38 OFFCURVE",
"433 -8 OFFCURVE",
"361 -8 QCURVE",
"289 -8 OFFCURVE",
"185 38 OFFCURVE",
"118 120 OFFCURVE",
"87 233 OFFCURVE",
"87 301 QCURVE",
"87 707 LINE",
"152 707 LINE",
"152 305 LINE",
"152 252 OFFCURVE",
"174 159 OFFCURVE",
"224 90 OFFCURVE",
"304 51 OFFCURVE",
"362 51 QCURVE",
"420 51 OFFCURVE",
"500 91 OFFCURVE",
"549 160 OFFCURVE",
"570 252 OFFCURVE",
"570 305 QCURVE",
"570 707 LINE"
);
}
);
width = 722;
}
);
unicode = 0055;
},
{
color = (166, 255, 153, 255);
glyphname = V;
layers = (
{
layerId = "65F68577-51D6-4015-BE17-9540A8734A9C";
paths = (
{
closed = 1;
nodes = (
"333 60 LINE",
"571 707 LINE",
"644 707 LINE",
"378 0 LINE",
"286 0 LINE",
"19 707 LINE",
"93 707 LINE"
);
}
);
width = 663;
}
);
unicode = 0056;
},
{
color = (166, 255, 153, 255);
glyphname = W;
layers = (
{
layerId = "65F68577-51D6-4015-BE17-9540A8734A9C";
paths = (
{
closed = 1;
nodes = (
"211 0 LINE",
"19 707 LINE",
"94 707 LINE",
"262 60 LINE",
"425 707 LINE",
"530 707 LINE",
"692 60 LINE",
"860 707 LINE",
"934 707 LINE",
"742 0 LINE",
"641 0 LINE",
"476 648 LINE",
"313 0 LINE"
);
}
);
width = 953;
}
);
leftKerningGroup = _kern19;
rightKerningGroup = _kern19;
unicode = 0057;
},
{
color = (166, 255, 153, 255);
glyphname = X;
layers = (
{
layerId = "65F68577-51D6-4015-BE17-9540A8734A9C";
paths = (
{
closed = 1;
nodes = (
"472 707 LINE",
"553 707 LINE",
"333 357 LINE",
"562 0 LINE",
"481 0 LINE",
"290 303 LINE",
"98 0 LINE",
"19 0 LINE",
"247 354 LINE",
"26 707 LINE",
"108 707 LINE",
"290 407 LINE"
);
}
);
width = 581;
}
);
unicode = 0058;
},
{
color = (166, 255, 153, 255);
glyphname = Y;
layers = (
{
layerId = "65F68577-51D6-4015-BE17-9540A8734A9C";
paths = (
{
closed = 1;
nodes = (
"509 707 LINE",
"584 707 LINE",
"335 267 LINE",
"335 0 LINE",
"270 0 LINE",
"270 267 LINE",
"19 707 LINE",
"96 707 LINE",
"304 334 LINE"
);
}
);
width = 603;
}
);
leftKerningGroup = _kern31;
rightKerningGroup = _kern31;
unicode = 0059;
},
{
color = (166, 255, 153, 255);
glyphname = Z;
layers = (
{
layerId = "65F68577-51D6-4015-BE17-9540A8734A9C";
paths = (
{
closed = 1;
nodes = (
"63 647 LINE",
"63 707 LINE",
"550 707 LINE",
"550 651 LINE",
"127 60 LINE",
"545 60 LINE",
"545 0 LINE",
"49 0 LINE",
"49 57 LINE",
"466 647 LINE"
);
}
);
width = 599;
}
);
unicode = 005A;
},
{
color = (166, 255, 153, 255);
glyphname = b;
layers = (
{
layerId = "65F68577-51D6-4015-BE17-9540A8734A9C";
paths = (
{
closed = 1;
nodes = (
"136 0 LINE",
"72 0 LINE",
"72 707 LINE",
"138 707 LINE",
"138 441 LINE",
"170 490 OFFCURVE",
"271 536 OFFCURVE",
"331 536 QCURVE",
"393 536 OFFCURVE",
"481 490 OFFCURVE",
"537 412 OFFCURVE",
"561 309 OFFCURVE",
"560 253 QCURVE",
"558 185 OFFCURVE",
"515 75 OFFCURVE",
"470 41 QCURVE",
"443 20 OFFCURVE",
"368 -5 OFFCURVE",
"323 -5 QCURVE",
"298 -5 OFFCURVE",
"246 3 OFFCURVE",
"197 22 OFFCURVE",
"153 54 OFFCURVE",
"137 78 QCURVE"
);
},
{
closed = 1;
nodes = (
"366 50 OFFCURVE",
"432 84 OFFCURVE",
"474 143 OFFCURVE",
"494 220 OFFCURVE",
"494 262 QCURVE",
"494 305 OFFCURVE",
"475 384 OFFCURVE",
"433 442 OFFCURVE",
"366 477 OFFCURVE",
"317 477 QCURVE",
"274 477 OFFCURVE",
"202 438 OFFCURVE",
"179 407 QCURVE",
"156 378 OFFCURVE",
"136 303 OFFCURVE",
"136 262 QCURVE",
"136 213 OFFCURVE",
"169 116 OFFCURVE",
"210 85 QCURVE",
"257 50 OFFCURVE",
"319 50 QCURVE"
);
}
);
width = 613;
}
);
rightKerningGroup = _kern6;
unicode = 0062;
},
{
color = (166, 255, 153, 255);
glyphname = d;
layers = (
{
layerId = "65F68577-51D6-4015-BE17-9540A8734A9C";
paths = (
{
closed = 1;
nodes = (
"475 707 LINE",
"541 707 LINE",
"541 0 LINE",
"475 0 LINE",
"475 83 LINE",
"442 38 OFFCURVE",
"342 -6 OFFCURVE",
"282 -6 QCURVE",
"220 -6 OFFCURVE",
"131 40 OFFCURVE",
"76 118 OFFCURVE",
"51 221 OFFCURVE",
"53 277 QCURVE",
"54 332 OFFCURVE",
"87 425 OFFCURVE",
"149 494 OFFCURVE",
"238 533 OFFCURVE",
"295 533 QCURVE",
"321 533 OFFCURVE",
"373 524 OFFCURVE",
"420 504 OFFCURVE",
"460 472 OFFCURVE",
"475 449 QCURVE"
);
},
{
closed = 1;
nodes = (
"247 477 OFFCURVE",
"181 442 OFFCURVE",
"139 383 OFFCURVE",
"119 307 OFFCURVE",
"119 265 QCURVE",
"119 221 OFFCURVE",
"138 143 OFFCURVE",
"180 85 OFFCURVE",
"247 50 OFFCURVE",
"296 50 QCURVE",
"340 50 OFFCURVE",
"411 89 OFFCURVE",
"434 119 QCURVE",
"457 149 OFFCURVE",
"477 224 OFFCURVE",
"477 265 QCURVE",
"477 314 OFFCURVE",
"445 410 OFFCURVE",
"404 441 QCURVE",
"381 458 OFFCURVE",
"325 477 OFFCURVE",
"294 477 QCURVE"
);
}
);
width = 613;
}
);
leftKerningGroup = _kern5;
unicode = 0064;
},
{
color = (166, 255, 153, 255);
glyphname = h;
layers = (
{
layerId = "65F68577-51D6-4015-BE17-9540A8734A9C";
paths = (
{
closed = 1;
nodes = (
"72 0 LINE",
"72 707 LINE",
"138 707 LINE",
"138 439 LINE",
"152 463 OFFCURVE",
"191 497 OFFCURVE",
"216 510 QCURVE",
"241 522 OFFCURVE",
"300 533 OFFCURVE",
"330 533 QCURVE",
"372 533 OFFCURVE",
"438 509 OFFCURVE",
"461 489 QCURVE",
"499 457 OFFCURVE",
"529 355 OFFCURVE",
"529 292 QCURVE",
"529 0 LINE",
"463 0 LINE",
"463 268 LINE",
"463 315 OFFCURVE",
"448 402 OFFCURVE",
"423 433 QCURVE",
"406 453 OFFCURVE",
"356 477 OFFCURVE",
"318 477 QCURVE",
"277 477 OFFCURVE",
"208 444 OFFCURVE",
"185 416 QCURVE",
"160 386 OFFCURVE",
"138 308 OFFCURVE",
"138 265 QCURVE",
"138 0 LINE"
);
}
);
width = 598;
}
);
unicode = 0068;
},
{
color = (166, 255, 153, 255);
glyphname = i;
layers = (
{
layerId = "65F68577-51D6-4015-BE17-9540A8734A9C";
paths = (
{
closed = 1;
nodes = (
"135 717 OFFCURVE",
"163 691 OFFCURVE",
"163 669 QCURVE",
"163 646 OFFCURVE",
"135 620 OFFCURVE",
"113 620 QCURVE",
"91 620 OFFCURVE",
"64 646 OFFCURVE",
"64 669 QCURVE",
"64 692 OFFCURVE",
"91 717 OFFCURVE",
"113 717 QCURVE"
);
},
{
closed = 1;
nodes = (
"80 527 LINE",
"146 527 LINE",
"146 0 LINE",
"80 0 LINE"
);
}
);
width = 227;
}
);
unicode = 0069;
},
{
color = (166, 255, 153, 255);
glyphname = l;
layers = (
{
layerId = "65F68577-51D6-4015-BE17-9540A8734A9C";
paths = (
{
closed = 1;
nodes = (
"72 0 LINE",
"72 707 LINE",
"138 707 LINE",
"138 0 LINE"
);
}
);
width = 210;
}
);
unicode = 006C;
},
{
color = (166, 255, 153, 255);
glyphname = m;
layers = (
{
layerId = "65F68577-51D6-4015-BE17-9540A8734A9C";
paths = (
{
closed = 1;
nodes = (
"137 457 LINE",
"164 497 OFFCURVE",
"247 534 OFFCURVE",
"295 533 QCURVE",
"346 533 OFFCURVE",
"422 483 OFFCURVE",
"435 435 QCURVE",
"444 461 OFFCURVE",
"479 499 OFFCURVE",
"524 523 OFFCURVE",
"575 534 OFFCURVE",
"603 533 QCURVE",
"688 531 OFFCURVE",
"767 432 OFFCURVE",
"767 348 QCURVE",
"767 0 LINE",
"701 0 LINE",
"701 306 LINE",
"701 335 OFFCURVE",
"695 395 OFFCURVE",
"674 444 OFFCURVE",
"630 476 OFFCURVE",
"593 476 QCURVE",
"563 476 OFFCURVE",
"517 455 OFFCURVE",
"500 438 QCURVE",
"473 409 OFFCURVE",
"452 326 OFFCURVE",
"452 285 QCURVE",
"452 0 LINE",
"386 0 LINE",
"386 305 LINE",
"386 335 OFFCURVE",
"380 396 OFFCURVE",
"358 446 OFFCURVE",
"314 476 OFFCURVE",
"276 476 QCURVE",
"238 475 OFFCURVE",
"178 434 OFFCURVE",
"161 401 QCURVE",
"146 372 OFFCURVE",
"138 306 OFFCURVE",
"138 270 QCURVE",
"138 0 LINE",
"72 0 LINE",
"72 527 LINE",
"135 527 LINE"
);
}
);
width = 834;
}
);
unicode = 006D;
},
{
color = (166, 255, 153, 255);
glyphname = n;
layers = (
{
layerId = "65F68577-51D6-4015-BE17-9540A8734A9C";
paths = (
{
closed = 1;
nodes = (
"72 0 LINE",
"72 527 LINE",
"136 527 LINE",
"138 437 LINE",
"152 461 OFFCURVE",
"194 498 OFFCURVE",
"217 509 QCURVE",
"243 522 OFFCURVE",
"298 533 OFFCURVE",
"330 533 QCURVE",
"373 533 OFFCURVE",
"438 509 OFFCURVE",
"461 489 QCURVE",
"499 457 OFFCURVE",
"529 355 OFFCURVE",
"529 292 QCURVE",
"529 0 LINE",
"463 0 LINE",
"463 268 LINE",
"463 315 OFFCURVE",
"448 402 OFFCURVE",
"423 433 QCURVE",
"406 453 OFFCURVE",
"356 477 OFFCURVE",
"318 477 QCURVE",
"277 477 OFFCURVE",
"209 443 OFFCURVE",
"186 416 QCURVE",
"160 386 OFFCURVE",
"138 308 OFFCURVE",
"138 265 QCURVE",
"138 0 LINE"
);
}
);
width = 598;
}
);
unicode = 006E;
},
{
color = (166, 255, 153, 255);
glyphname = p;
layers = (
{
layerId = "65F68577-51D6-4015-BE17-9540A8734A9C";
paths = (
{
closed = 1;
nodes = (
"138 -197 LINE",
"72 -197 LINE",
"72 527 LINE",
"138 527 LINE",
"138 437 LINE",
"162 474 OFFCURVE",
"198 497 QCURVE",
"230 517 OFFCURVE",
"293 533 OFFCURVE",
"331 533 QCURVE",
"393 533 OFFCURVE",
"481 487 OFFCURVE",
"537 409 OFFCURVE",
"561 306 OFFCURVE",
"560 250 QCURVE",
"558 182 OFFCURVE",
"515 72 OFFCURVE",
"470 38 QCURVE",
"443 17 OFFCURVE",
"368 -6 OFFCURVE",
"323 -6 QCURVE",
"297 -6 OFFCURVE",
"245 1 OFFCURVE",
"197 19 OFFCURVE",
"154 51 OFFCURVE",
"138 76 QCURVE"
);
},
{
closed = 1;
nodes = (
"366 50 OFFCURVE",
"432 84 OFFCURVE",
"474 143 OFFCURVE",
"494 220 OFFCURVE",
"494 262 QCURVE",
"494 305 OFFCURVE",
"475 384 OFFCURVE",
"433 442 OFFCURVE",
"366 477 OFFCURVE",
"317 477 QCURVE",
"273 477 OFFCURVE",
"202 438 OFFCURVE",
"179 407 QCURVE",
"156 378 OFFCURVE",
"136 303 OFFCURVE",
"136 262 QCURVE",
"136 213 OFFCURVE",
"167 115 OFFCURVE",
"208 84 QCURVE",
"254 50 OFFCURVE",
"319 50 QCURVE"
);
}
);
width = 613;
}
);
rightKerningGroup = _kern6;
unicode = 0070;
},
{
color = (166, 255, 153, 255);
glyphname = q;
layers = (
{
layerId = "65F68577-51D6-4015-BE17-9540A8734A9C";
paths = (
{
closed = 1;
nodes = (
"479 527 LINE",
"541 527 LINE",
"541 -197 LINE",
"475 -197 LINE",
"475 82 LINE",
"464 65 OFFCURVE",
"439 43 OFFCURVE",
"425 33 QCURVE",
"395 12 OFFCURVE",
"322 -6 OFFCURVE",
"282 -6 QCURVE",
"220 -6 OFFCURVE",
"131 40 OFFCURVE",
"76 118 OFFCURVE",
"51 221 OFFCURVE",
"53 277 QCURVE",
"54 332 OFFCURVE",
"87 425 OFFCURVE",
"147 494 OFFCURVE",
"235 533 OFFCURVE",
"292 533 QCURVE",
"324 533 OFFCURVE",
"381 522 OFFCURVE",
"407 508 QCURVE",
"426 498 OFFCURVE",
"461 470 OFFCURVE",
"475 449 QCURVE"
);
},
{
closed = 1;
nodes = (
"248 477 OFFCURVE",
"182 442 OFFCURVE",
"139 383 OFFCURVE",
"119 307 OFFCURVE",
"119 265 QCURVE",
"119 221 OFFCURVE",
"138 143 OFFCURVE",
"180 85 OFFCURVE",
"247 50 OFFCURVE",
"296 50 QCURVE",
"340 50 OFFCURVE",
"411 89 OFFCURVE",
"434 119 QCURVE",
"457 149 OFFCURVE",
"477 224 OFFCURVE",
"477 265 QCURVE",
"477 314 OFFCURVE",
"446 411 OFFCURVE",
"405 442 QCURVE",
"358 477 OFFCURVE",
"295 477 QCURVE"
);
}
);
width = 613;
}
);
leftKerningGroup = _kern5;
unicode = 0071;
},
{
color = (166, 255, 153, 255);
glyphname = u;
layers = (
{
layerId = "65F68577-51D6-4015-BE17-9540A8734A9C";
paths = (
{
closed = 1;
nodes = (
"331 50 OFFCURVE",
"390 77 OFFCURVE",
"426 125 OFFCURVE",
"442 191 OFFCURVE",
"442 231 QCURVE",
"442 527 LINE",
"508 527 LINE",
"508 229 LINE",
"508 117 OFFCURVE",
"404 -6 OFFCURVE",
"288 -6 QCURVE",
"175 -6 OFFCURVE",
"70 117 OFFCURVE",
"70 229 QCURVE",
"70 527 LINE",
"136 527 LINE",
"136 231 LINE",
"136 193 OFFCURVE",
"152 127 OFFCURVE",
"188 78 OFFCURVE",
"246 50 OFFCURVE",
"288 50 QCURVE"
);
}
);
width = 578;
}
);
unicode = 0075;
},
{
color = (166, 255, 153, 255);
glyphname = v;
layers = (
{
layerId = "65F68577-51D6-4015-BE17-9540A8734A9C";
paths = (
{
closed = 1;
nodes = (
"12 527 LINE",
"87 527 LINE",
"262 55 LINE",
"436 527 LINE",
"512 527 LINE",
"308 0 LINE",
"215 0 LINE"
);
}
);
width = 524;
}
);
unicode = 0076;
},
{
color = (166, 255, 153, 255);
glyphname = w;
layers = (
{
layerId = "65F68577-51D6-4015-BE17-9540A8734A9C";
paths = (
{
closed = 1;
nodes = (
"596 55 LINE",
"727 527 LINE",
"802 527 LINE",
"642 0 LINE",
"549 0 LINE",
"411 474 LINE",
"273 0 LINE",
"179 0 LINE",
"17 527 LINE",
"92 527 LINE",
"226 55 LINE",
"360 527 LINE",
"462 527 LINE"
);
}
);
width = 819;
}
);
leftKerningGroup = _kern20;
rightKerningGroup = _kern20;
unicode = 0077;
},
{
color = (166, 255, 153, 255);
glyphname = x;
layers = (
{
layerId = "65F68577-51D6-4015-BE17-9540A8734A9C";
paths = (
{
closed = 1;
nodes = (
"251 219 LINE",
"97 0 LINE",
"19 0 LINE",
"209 267 LINE",
"28 527 LINE",
"111 527 LINE",
"255 312 LINE",
"396 527 LINE",
"476 527 LINE",
"297 266 LINE",
"489 0 LINE",
"407 0 LINE"
);
}
);
width = 508;
}
);
unicode = 0078;
},
{
color = (166, 255, 153, 255);
glyphname = z;
layers = (
{
layerId = "65F68577-51D6-4015-BE17-9540A8734A9C";
paths = (
{
closed = 1;
nodes = (
"472 468 LINE",
"127 55 LINE",
"472 55 LINE",
"472 0 LINE",
"52 0 LINE",
"52 60 LINE",
"394 472 LINE",
"57 472 LINE",
"57 527 LINE",
"472 527 LINE"
);
}
);
width = 524;
}
);
unicode = 007A;
},
{
color = (166, 255, 153, 255);
glyphname = period;
layers = (
{
layerId = "65F68577-51D6-4015-BE17-9540A8734A9C";
paths = (
{
closed = 1;
nodes = (
"146 94 OFFCURVE",
"173 66 OFFCURVE",
"173 44 QCURVE",
"173 22 OFFCURVE",
"146 -8 OFFCURVE",
"123 -8 QCURVE",
"100 -8 OFFCURVE",
"72 22 OFFCURVE",
"72 44 QCURVE",
"72 66 OFFCURVE",
"100 94 OFFCURVE",
"123 94 QCURVE"
);
}
);
width = 245;
}
);
leftKerningGroup = _kern14;
rightKerningGroup = _kern14;
unicode = 002E;
},
{
color = (166, 255, 153, 255);
glyphname = comma;
layers = (
{
layerId = "65F68577-51D6-4015-BE17-9540A8734A9C";
paths = (
{
closed = 1;
nodes = (
"155 93 OFFCURVE",
"180 54 OFFCURVE",
"179 27 QCURVE",
"180 -18 OFFCURVE",
"131 -101 OFFCURVE",
"88 -119 QCURVE",
"72 -93 LINE",
"94 -79 OFFCURVE",
"123 -37 OFFCURVE",
"128 -8 QCURVE",
"102 -10 OFFCURVE",
"74 19 OFFCURVE",
"74 44 QCURVE",
"74 66 OFFCURVE",
"103 94 OFFCURVE",
"126 94 QCURVE"
);
}
);
width = 252;
}
);
leftKerningGroup = _kern14;
rightKerningGroup = _kern14;
unicode = 002C;
},
{
color = (166, 255, 153, 255);
glyphname = A;
layers = (
{
layerId = "65F68577-51D6-4015-BE17-9540A8734A9C";
paths = (
{
closed = 1;
nodes = (
"146 157 LINE",
"88 0 LINE",
"15 0 LINE",
"279 707 LINE",
"370 707 LINE",
"633 0 LINE",
"560 0 LINE",
"502 157 LINE"
);
},
{
closed = 1;
nodes = (
"168 217 LINE",
"481 217 LINE",
"324 646 LINE"
);
}
);
width = 648;
}
);
leftKerningGroup = _kern30;
rightKerningGroup = _kern30;
unicode = 0041;
},
{
color = (248, 153, 255, 255);
glyphname = breve;
layers = (
{
layerId = "65F68577-51D6-4015-BE17-9540A8734A9C";
paths = (
{
closed = 1;
nodes = (
"305 668 OFFCURVE",
"339 674 OFFCURVE",
"365 690 OFFCURVE",
"383 718 OFFCURVE",
"386 740 QCURVE",
"446 740 LINE",
"443 705 OFFCURVE",
"415 658 OFFCURVE",
"371 630 OFFCURVE",
"316 618 OFFCURVE",
"285 618 QCURVE",
"253 618 OFFCURVE",
"198 630 OFFCURVE",
"156 658 OFFCURVE",
"129 705 OFFCURVE",
"126 740 QCURVE",
"186 740 LINE",
"189 718 OFFCURVE",
"206 690 OFFCURVE",
"233 674 OFFCURVE",
"267 668 OFFCURVE",
"286 668 QCURVE"
);
}
);
width = 572;
}
);
unicode = 02D8;
},
{
color = (248, 153, 255, 255);
glyphname = circumflex;
layers = (
{
layerId = "65F68577-51D6-4015-BE17-9540A8734A9C";
paths = (
{
closed = 1;
nodes = (
"264 721 LINE",
"186 628 LINE",
"121 628 LINE",
"244 769 LINE",
"285 769 LINE",
"408 628 LINE",
"344 628 LINE"
);
}
);
width = 529;
}
);
unicode = 02C6;
},
{
color = (166, 255, 153, 255);
glyphname = uni0326;
layers = (
{
layerId = "65F68577-51D6-4015-BE17-9540A8734A9C";
paths = (
{
closed = 1;
nodes = (
"-264 -91 OFFCURVE",
"-236 -130 OFFCURVE",
"-237 -160 QCURVE",
"-236 -203 OFFCURVE",
"-286 -286 OFFCURVE",
"-329 -304 QCURVE",
"-345 -278 LINE",
"-323 -264 OFFCURVE",
"-294 -222 OFFCURVE",
"-289 -193 QCURVE",
"-314 -195 OFFCURVE",
"-343 -166 OFFCURVE",
"-343 -142 QCURVE",
"-343 -120 OFFCURVE",
"-314 -91 OFFCURVE",
"-291 -91 QCURVE"
);
}
);
width = 0;
}
);
unicode = 0326;
},
{
color = (166, 255, 153, 255);
glyphname = abreve;
layers = (
{
layerId = "65F68577-51D6-4015-BE17-9540A8734A9C";
paths = (
{
closed = 1;
nodes = (
"300 668 OFFCURVE",
"336 674 OFFCURVE",
"366 689 OFFCURVE",
"387 717 OFFCURVE",
"390 740 QCURVE",
"451 740 LINE",
"448 705 OFFCURVE",
"417 658 OFFCURVE",
"370 629 OFFCURVE",
"312 617 OFFCURVE",
"281 617 QCURVE",
"250 617 OFFCURVE",
"192 629 OFFCURVE",
"147 658 OFFCURVE",
"118 705 OFFCURVE",
"115 740 QCURVE",
"176 740 LINE",
"179 717 OFFCURVE",
"200 689 OFFCURVE",
"230 674 OFFCURVE",
"266 668 OFFCURVE",
"283 668 QCURVE"
);
},
{
closed = 1;
nodes = (
"430 76 LINE",
"392 29 OFFCURVE",
"295 -6 OFFCURVE",
"237 -6 QCURVE",
"202 -6 OFFCURVE",
"136 12 OFFCURVE",
"85 50 OFFCURVE",
"54 106 OFFCURVE",
"54 145 QCURVE",
"54 190 OFFCURVE",
"88 250 OFFCURVE",
"143 286 OFFCURVE",
"215 301 OFFCURVE",
"254 301 QCURVE",
"427 301 LINE",
"427 337 OFFCURVE",
"412 401 OFFCURVE",
"378 449 OFFCURVE",
"323 477 OFFCURVE",
"283 477 QCURVE",
"264 477 OFFCURVE",
"225 471 OFFCURVE",
"190 457 OFFCURVE",
"161 432 OFFCURVE",
"152 414 QCURVE",
"80 414 LINE",
"89 447 OFFCURVE",
"131 492 OFFCURVE",
"187 520 OFFCURVE",
"253 533 OFFCURVE",
"285 533 QCURVE",
"343 533 OFFCURVE",
"423 495 OFFCURVE",
"472 428 OFFCURVE",
"493 338 OFFCURVE",
"493 286 QCURVE",
"493 0 LINE",
"439 0 LINE"
);
},
{
closed = 1;
nodes = (
"288 248 LINE",
"262 248 OFFCURVE",
"203 244 OFFCURVE",
"153 225 OFFCURVE",
"120 186 OFFCURVE",
"120 152 QCURVE",
"120 125 OFFCURVE",
"141 87 OFFCURVE",
"176 61 OFFCURVE",
"221 49 OFFCURVE",
"245 49 QCURVE",
"284 49 OFFCURVE",
"351 69 OFFCURVE",
"400 110 OFFCURVE",
"427 171 OFFCURVE",
"427 212 QCURVE",
"427 248 LINE"
);
}
);
width = 563;
}
);
leftKerningGroup = _kern27;
rightKerningGroup = _kern27;
unicode = 0103;
},
{
color = (166, 255, 153, 255);
glyphname = acircumflex;
layers = (
{
layerId = "65F68577-51D6-4015-BE17-9540A8734A9C";
paths = (
{
closed = 1;
nodes = (
"288 720 LINE",
"210 623 LINE",
"145 623 LINE",
"268 769 LINE",
"309 769 LINE",
"432 623 LINE",
"370 623 LINE"
);
},
{
closed = 1;
nodes = (
"430 76 LINE",
"392 29 OFFCURVE",
"295 -6 OFFCURVE",
"237 -6 QCURVE",
"202 -6 OFFCURVE",
"136 12 OFFCURVE",
"85 50 OFFCURVE",
"54 106 OFFCURVE",
"54 145 QCURVE",
"54 190 OFFCURVE",
"88 250 OFFCURVE",
"143 286 OFFCURVE",
"215 301 OFFCURVE",
"254 301 QCURVE",
"427 301 LINE",
"427 337 OFFCURVE",
"412 401 OFFCURVE",
"378 449 OFFCURVE",
"323 477 OFFCURVE",
"283 477 QCURVE",
"264 477 OFFCURVE",
"225 471 OFFCURVE",
"190 457 OFFCURVE",
"161 432 OFFCURVE",
"152 414 QCURVE",
"80 414 LINE",
"89 447 OFFCURVE",
"131 492 OFFCURVE",
"187 520 OFFCURVE",
"253 533 OFFCURVE",
"285 533 QCURVE",
"343 533 OFFCURVE",
"423 495 OFFCURVE",
"472 428 OFFCURVE",
"493 338 OFFCURVE",
"493 286 QCURVE",
"493 0 LINE",
"439 0 LINE"
);
},
{
closed = 1;
nodes = (
"288 248 LINE",
"262 248 OFFCURVE",
"203 244 OFFCURVE",
"153 225 OFFCURVE",
"120 186 OFFCURVE",
"120 152 QCURVE",
"120 125 OFFCURVE",
"141 87 OFFCURVE",
"176 61 OFFCURVE",
"221 49 OFFCURVE",
"245 49 QCURVE",
"284 49 OFFCURVE",
"351 69 OFFCURVE",
"400 110 OFFCURVE",
"427 171 OFFCURVE",
"427 212 QCURVE",
"427 248 LINE"
);
}
);
width = 563;
}
);
leftKerningGroup = _kern27;
rightKerningGroup = _kern27;
unicode = 00E2;
},
{
color = (166, 255, 153, 255);
glyphname = Abreve;
layers = (
{
layerId = "65F68577-51D6-4015-BE17-9540A8734A9C";
paths = (
{
closed = 1;
nodes = (
"343 855 OFFCURVE",
"379 861 OFFCURVE",
"409 876 OFFCURVE",
"430 904 OFFCURVE",
"433 927 QCURVE",
"494 927 LINE",
"491 892 OFFCURVE",
"460 845 OFFCURVE",
"413 816 OFFCURVE",
"355 804 OFFCURVE",
"324 804 QCURVE",
"293 804 OFFCURVE",
"235 816 OFFCURVE",
"190 845 OFFCURVE",
"161 892 OFFCURVE",
"158 927 QCURVE",
"219 927 LINE",
"222 904 OFFCURVE",
"243 876 OFFCURVE",
"273 861 OFFCURVE",
"309 855 OFFCURVE",
"326 855 QCURVE"
);
},
{
closed = 1;
nodes = (
"146 157 LINE",
"88 0 LINE",
"15 0 LINE",
"279 707 LINE",
"370 707 LINE",
"633 0 LINE",
"560 0 LINE",
"502 157 LINE"
);
},
{
closed = 1;
nodes = (
"168 217 LINE",
"481 217 LINE",
"324 646 LINE"
);
}
);
width = 648;
}
);
unicode = 0102;
},
{
color = (248, 153, 255, 255);
glyphname = Acircumflex;
layers = (
{
layerId = "65F68577-51D6-4015-BE17-9540A8734A9C";
paths = (
{
closed = 1;
nodes = (
"146 157 LINE",
"88 0 LINE",
"15 0 LINE",
"279 707 LINE",
"370 707 LINE",
"633 0 LINE",
"560 0 LINE",
"502 157 LINE"
);
},
{
closed = 1;
nodes = (
"168 217 LINE",
"481 217 LINE",
"324 646 LINE"
);
},
{
closed = 1;
nodes = (
"325 879 LINE",
"247 786 LINE",
"182 786 LINE",
"305 927 LINE",
"346 927 LINE",
"469 786 LINE",
"405 786 LINE"
);
}
);
width = 648;
}
);
leftKerningGroup = _kern30;
rightKerningGroup = _kern30;
unicode = 00C2;
},
{
color = (166, 255, 153, 255);
glyphname = Icircumflex;
layers = (
{
layerId = "65F68577-51D6-4015-BE17-9540A8734A9C";
paths = (
{
closed = 1;
nodes = (
"79 897 LINE",
"0 800 LINE",
"-64 800 LINE",
"59 946 LINE",
"100 946 LINE",
"223 800 LINE",
"161 800 LINE"
);
},
{
closed = 1;
nodes = (
"111 0 LINE",
"46 0 LINE",
"46 707 LINE",
"111 707 LINE"
);
}
);
width = 159;
}
);
leftKerningGroup = _kern1;
rightKerningGroup = _kern2;
unicode = 00CE;
},
{
color = (166, 255, 153, 255);
glyphname = exclam;
layers = (
{
layerId = "65F68577-51D6-4015-BE17-9540A8734A9C";
paths = (
{
closed = 1;
nodes = (
"153 93 OFFCURVE",
"181 64 OFFCURVE",
"181 43 QCURVE",
"181 21 OFFCURVE",
"154 -8 OFFCURVE",
"132 -8 QCURVE",
"109 -8 OFFCURVE",
"82 20 OFFCURVE",
"82 43 QCURVE",
"82 66 OFFCURVE",
"109 93 OFFCURVE",
"132 93 QCURVE"
);
},
{
closed = 1;
nodes = (
"102 195 LINE",
"100 707 LINE",
"164 707 LINE",
"162 195 LINE"
);
}
);
width = 263;
}
);
unicode = 0021;
},
{
color = (166, 255, 153, 255);
glyphname = quotedbl;
layers = (
{
layerId = "65F68577-51D6-4015-BE17-9540A8734A9C";
paths = (
{
closed = 1;
nodes = (
"120 486 LINE",
"74 486 LINE",
"64 707 LINE",
"129 707 LINE"
);
},
{
closed = 1;
nodes = (
"262 486 LINE",
"216 486 LINE",
"206 707 LINE",
"271 707 LINE"
);
}
);
width = 335;
}
);
unicode = 0022;
},
{
color = (166, 255, 153, 255);
glyphname = quotesingle;
layers = (
{
layerId = "65F68577-51D6-4015-BE17-9540A8734A9C";
paths = (
{
closed = 1;
nodes = (
"127 486 LINE",
"81 486 LINE",
"72 707 LINE",
"137 707 LINE"
);
}
);
width = 209;
}
);
unicode = 0027;
},
{
color = (166, 255, 153, 255);
glyphname = numbersign;
layers = (
{
layerId = "65F68577-51D6-4015-BE17-9540A8734A9C";
paths = (
{
closed = 1;
nodes = (
"64 245 LINE",
"171 245 LINE",
"194 463 LINE",
"94 463 LINE",
"94 521 LINE",
"200 521 LINE",
"220 707 LINE",
"283 707 LINE",
"263 521 LINE",
"429 521 LINE",
"448 707 LINE",
"511 707 LINE",
"491 521 LINE",
"591 521 LINE",
"591 463 LINE",
"484 463 LINE",
"461 245 LINE",
"561 245 LINE",
"561 187 LINE",
"455 187 LINE",
"435 0 LINE",
"373 0 LINE",
"392 187 LINE",
"227 187 LINE",
"207 0 LINE",
"145 0 LINE",
"164 187 LINE",
"64 187 LINE"
);
},
{
closed = 1;
nodes = (
"233 245 LINE",
"400 245 LINE",
"422 463 LINE",
"256 463 LINE"
);
}
);
width = 655;
}
);
unicode = 0023;
},
{
color = (166, 255, 153, 255);
glyphname = percent;
layers = (
{
layerId = "65F68577-51D6-4015-BE17-9540A8734A9C";
paths = (
{
closed = 1;
nodes = (
"149 0 LINE",
"584 707 LINE",
"659 707 LINE",
"225 0 LINE"
);
},
{
closed = 1;
nodes = (
"170 415 OFFCURVE",
"118 438 OFFCURVE",
"82 478 OFFCURVE",
"64 533 OFFCURVE",
"64 565 QCURVE",
"64 597 OFFCURVE",
"82 652 OFFCURVE",
"117 692 OFFCURVE",
"169 715 OFFCURVE",
"203 715 QCURVE",
"237 715 OFFCURVE",
"288 691 OFFCURVE",
"322 650 OFFCURVE",
"339 596 OFFCURVE",
"339 565 QCURVE",
"339 534 OFFCURVE",
"322 479 OFFCURVE",
"287 439 OFFCURVE",
"236 415 OFFCURVE",
"203 415 QCURVE"
);
},
{
closed = 1;
nodes = (
"180 658 OFFCURVE",
"149 642 OFFCURVE",
"130 616 OFFCURVE",
"121 583 OFFCURVE",
"121 565 QCURVE",
"121 547 OFFCURVE",
"130 514 OFFCURVE",
"149 487 OFFCURVE",
"180 471 OFFCURVE",
"203 471 QCURVE",
"225 471 OFFCURVE",
"255 488 OFFCURVE",
"273 515 OFFCURVE",
"280 548 OFFCURVE",
"280 565 QCURVE",
"280 581 OFFCURVE",
"273 614 OFFCURVE",
"255 641 OFFCURVE",
"225 658 OFFCURVE",
"203 658 QCURVE"
);
},
{
closed = 1;
nodes = (
"576 -8 OFFCURVE",
"524 15 OFFCURVE",
"488 55 OFFCURVE",
"470 110 OFFCURVE",
"470 142 QCURVE",
"470 174 OFFCURVE",
"488 229 OFFCURVE",
"523 269 OFFCURVE",
"575 292 OFFCURVE",
"609 292 QCURVE",
"643 292 OFFCURVE",
"694 268 OFFCURVE",
"728 227 OFFCURVE",
"745 173 OFFCURVE",
"745 142 QCURVE",
"745 111 OFFCURVE",
"728 56 OFFCURVE",
"693 16 OFFCURVE",
"642 -8 OFFCURVE",
"609 -8 QCURVE"
);
},
{
closed = 1;
nodes = (
"586 235 OFFCURVE",
"555 219 OFFCURVE",
"536 193 OFFCURVE",
"527 160 OFFCURVE",
"527 142 QCURVE",
"527 124 OFFCURVE",
"536 91 OFFCURVE",
"555 64 OFFCURVE",
"586 48 OFFCURVE",
"609 48 QCURVE",
"631 48 OFFCURVE",
"661 65 OFFCURVE",
"679 92 OFFCURVE",
"686 125 OFFCURVE",
"686 142 QCURVE",
"686 158 OFFCURVE",
"679 191 OFFCURVE",
"661 218 OFFCURVE",
"631 235 OFFCURVE",
"609 235 QCURVE"
);
}
);
width = 809;
}
);
unicode = 0025;
},
{
color = (166, 255, 153, 255);
glyphname = asterisk;
layers = (
{
layerId = "65F68577-51D6-4015-BE17-9540A8734A9C";
paths = (
{
closed = 1;
nodes = (
"236 637 LINE",
"331 668 LINE",
"349 619 LINE",
"252 587 LINE",
"312 506 LINE",
"271 476 LINE",
"211 558 LINE",
"151 476 LINE",
"110 506 LINE",
"170 587 LINE",
"74 619 LINE",
"89 668 LINE",
"186 637 LINE",
"186 738 LINE",
"236 738 LINE"
);
}
);
width = 423;
}
);
unicode = 002A;
},
{
color = (166, 255, 153, 255);
glyphname = plus;
layers = (
{
layerId = "65F68577-51D6-4015-BE17-9540A8734A9C";
paths = (
{
closed = 1;
nodes = (
"290 542 LINE",
"290 385 LINE",
"439 385 LINE",
"439 325 LINE",
"290 325 LINE",
"290 165 LINE",
"225 165 LINE",
"225 325 LINE",
"79 325 LINE",
"79 385 LINE",
"225 385 LINE",
"225 542 LINE"
);
}
);
width = 518;
}
);
unicode = 002B;
},
{
color = (166, 255, 153, 255);
glyphname = slash;
layers = (
{
layerId = "65F68577-51D6-4015-BE17-9540A8734A9C";
paths = (
{
closed = 1;
nodes = (
"356 804 LINE",
"426 804 LINE",
"114 -173 LINE",
"44 -173 LINE"
);
}
);
width = 470;
}
);
unicode = 002F;
},
{
color = (166, 255, 153, 255);
glyphname = colon;
layers = (
{
layerId = "65F68577-51D6-4015-BE17-9540A8734A9C";
paths = (
{
closed = 1;
nodes = (
"146 459 OFFCURVE",
"173 430 OFFCURVE",
"173 408 QCURVE",
"173 386 OFFCURVE",
"146 356 OFFCURVE",
"123 356 QCURVE",
"100 356 OFFCURVE",
"72 386 OFFCURVE",
"72 408 QCURVE",
"72 430 OFFCURVE",
"100 459 OFFCURVE",
"123 459 QCURVE"
);
},
{
closed = 1;
nodes = (
"146 94 OFFCURVE",
"173 66 OFFCURVE",
"173 44 QCURVE",
"173 22 OFFCURVE",
"146 -8 OFFCURVE",
"123 -8 QCURVE",
"100 -8 OFFCURVE",
"72 22 OFFCURVE",
"72 44 QCURVE",
"72 66 OFFCURVE",
"100 94 OFFCURVE",
"123 94 QCURVE"
);
}
);
width = 245;
}
);
leftKerningGroup = _kern15;
unicode = 003A;
},
{
color = (166, 255, 153, 255);
glyphname = semicolon;
layers = (
{
layerId = "65F68577-51D6-4015-BE17-9540A8734A9C";
paths = (
{
closed = 1;
nodes = (
"150 459 OFFCURVE",
"178 430 OFFCURVE",
"178 408 QCURVE",
"178 386 OFFCURVE",
"151 356 OFFCURVE",
"127 356 QCURVE",
"104 356 OFFCURVE",
"77 386 OFFCURVE",
"77 408 QCURVE",
"77 430 OFFCURVE",
"104 459 OFFCURVE",
"127 459 QCURVE"
);
},
{
closed = 1;
nodes = (
"155 93 OFFCURVE",
"180 54 OFFCURVE",
"179 27 QCURVE",
"180 -18 OFFCURVE",
"131 -101 OFFCURVE",
"88 -119 QCURVE",
"72 -93 LINE",
"94 -79 OFFCURVE",
"123 -37 OFFCURVE",
"128 -8 QCURVE",
"102 -10 OFFCURVE",
"74 19 OFFCURVE",
"74 44 QCURVE",
"74 66 OFFCURVE",
"103 94 OFFCURVE",
"126 94 QCURVE"
);
}
);
width = 252;
}
);
leftKerningGroup = _kern15;
unicode = 003B;
},
{
color = (166, 255, 153, 255);
glyphname = less;
layers = (
{
layerId = "65F68577-51D6-4015-BE17-9540A8734A9C";
paths = (
{
closed = 1;
nodes = (
"44 367 LINE",
"367 590 LINE",
"367 519 LINE",
"114 353 LINE",
"367 182 LINE",
"367 111 LINE",
"44 333 LINE"
);
}
);
width = 441;
}
);
unicode = 003C;
},
{
color = (166, 255, 153, 255);
glyphname = equal;
layers = (
{
layerId = "65F68577-51D6-4015-BE17-9540A8734A9C";
paths = (
{
closed = 1;
nodes = (
"74 251 LINE",
"465 251 LINE",
"465 191 LINE",
"74 191 LINE"
);
},
{
closed = 1;
nodes = (
"74 507 LINE",
"465 507 LINE",
"465 447 LINE",
"74 447 LINE"
);
}
);
width = 539;
}
);
unicode = 003D;
},
{
color = (166, 255, 153, 255);
glyphname = greater;
layers = (
{
layerId = "65F68577-51D6-4015-BE17-9540A8734A9C";
paths = (
{
closed = 1;
nodes = (
"397 333 LINE",
"74 111 LINE",
"74 182 LINE",
"327 350 LINE",
"74 519 LINE",
"74 590 LINE",
"397 367 LINE"
);
}
);
width = 441;
}
);
unicode = 003E;
},
{
color = (166, 255, 153, 255);
glyphname = at;
layers = (
{
layerId = "65F68577-51D6-4015-BE17-9540A8734A9C";
paths = (
{
closed = 1;
nodes = (
"602 84 OFFCURVE",
"517 38 OFFCURVE",
"468 39 QCURVE",
"425 39 OFFCURVE",
"361 70 OFFCURVE",
"320 124 OFFCURVE",
"300 195 OFFCURVE",
"300 235 QCURVE",
"300 282 OFFCURVE",
"326 370 OFFCURVE",
"378 438 OFFCURVE",
"455 479 OFFCURVE",
"507 479 QCURVE",
"526 479 OFFCURVE",
"565 471 OFFCURVE",
"600 453 OFFCURVE",
"628 426 OFFCURVE",
"636 407 QCURVE",
"644 462 LINE",
"702 462 LINE",
"698 428 OFFCURVE",
"687 351 OFFCURVE",
"684 317 QCURVE",
"682 286 OFFCURVE",
"676 225 OFFCURVE",
"676 193 QCURVE",
"676 173 OFFCURVE",
"682 135 OFFCURVE",
"699 105 OFFCURVE",
"728 86 OFFCURVE",
"752 86 QCURVE",
"782 86 OFFCURVE",
"823 119 OFFCURVE",
"848 172 OFFCURVE",
"859 239 OFFCURVE",
"860 274 QCURVE",
"862 352 OFFCURVE",
"823 491 OFFCURVE",
"741 595 OFFCURVE",
"614 656 OFFCURVE",
"528 656 QCURVE",
"435 656 OFFCURVE",
"292 590 OFFCURVE",
"195 476 OFFCURVE",
"144 323 OFFCURVE",
"144 236 QCURVE",
"144 156 OFFCURVE",
"193 25 OFFCURVE",
"286 -69 OFFCURVE",
"418 -122 OFFCURVE",
"502 -125 QCURVE",
"527 -126 OFFCURVE",
"573 -122 OFFCURVE",
"597 -117 QCURVE",
"603 -178 LINE",
"575 -183 OFFCURVE",
"521 -186 OFFCURVE",
"492 -185 QCURVE",
"398 -184 OFFCURVE",
"245 -124 OFFCURVE",
"136 -17 OFFCURVE",
"77 134 OFFCURVE",
"76 228 QCURVE",
"75 333 OFFCURVE",
"135 511 OFFCURVE",
"251 642 OFFCURVE",
"421 715 OFFCURVE",
"529 715 QCURVE",
"622 715 OFFCURVE",
"768 651 OFFCURVE",
"869 539 OFFCURVE",
"921 386 OFFCURVE",
"921 296 QCURVE",
"921 249 OFFCURVE",
"904 155 OFFCURVE",
"863 80 OFFCURVE",
"796 34 OFFCURVE",
"747 34 QCURVE",
"700 34 OFFCURVE",
"635 83 OFFCURVE",
"630 131 QCURVE"
);
},
{
closed = 1;
nodes = (
"360 209 OFFCURVE",
"374 157 OFFCURVE",
"403 116 OFFCURVE",
"448 91 OFFCURVE",
"479 91 QCURVE",
"512 91 OFFCURVE",
"566 122 OFFCURVE",
"605 177 OFFCURVE",
"626 240 OFFCURVE",
"626 270 QCURVE",
"626 299 OFFCURVE",
"613 354 OFFCURVE",
"584 397 OFFCURVE",
"537 423 OFFCURVE",
"504 423 QCURVE",
"466 423 OFFCURVE",
"412 390 OFFCURVE",
"377 336 OFFCURVE",
"360 270 OFFCURVE",
"360 237 QCURVE"
);
}
);
width = 995;
}
);
unicode = 0040;
},
{
color = (166, 255, 153, 255);
glyphname = bracketleft;
layers = (
{
layerId = "65F68577-51D6-4015-BE17-9540A8734A9C";
paths = (
{
closed = 1;
nodes = (
"92 -191 LINE",
"92 793 LINE",
"277 793 LINE",
"277 737 LINE",
"157 737 LINE",
"157 -135 LINE",
"277 -135 LINE",
"277 -191 LINE"
);
}
);
width = 317;
}
);
unicode = 005B;
},
{
color = (166, 255, 153, 255);
glyphname = bracketright;
layers = (
{
layerId = "65F68577-51D6-4015-BE17-9540A8734A9C";
paths = (
{
closed = 1;
nodes = (
"224 793 LINE",
"224 -191 LINE",
"40 -191 LINE",
"40 -135 LINE",
"159 -135 LINE",
"159 737 LINE",
"40 737 LINE",
"40 793 LINE"
);
}
);
width = 316;
}
);
unicode = 005D;
},
{
color = (166, 255, 153, 255);
glyphname = backslash;
layers = (
{
layerId = "65F68577-51D6-4015-BE17-9540A8734A9C";
paths = (
{
closed = 1;
nodes = (
"114 804 LINE",
"426 -173 LINE",
"356 -173 LINE",
"44 804 LINE"
);
}
);
width = 470;
}
);
unicode = 005C;
},
{
color = (166, 255, 153, 255);
glyphname = asciicircum;
layers = (
{
layerId = "65F68577-51D6-4015-BE17-9540A8734A9C";
paths = (
{
closed = 1;
nodes = (
"216 663 LINE",
"126 528 LINE",
"64 528 LINE",
"195 715 LINE",
"238 715 LINE",
"369 528 LINE",
"308 528 LINE"
);
}
);
width = 433;
}
);
unicode = 005E;
},
{
color = (166, 255, 153, 255);
glyphname = underscore;
layers = (
{
layerId = "65F68577-51D6-4015-BE17-9540A8734A9C";
paths = (
{
closed = 1;
nodes = (
"2 -122 LINE",
"461 -122 LINE",
"461 -182 LINE",
"2 -182 LINE"
);
}
);
width = 463;
}
);
unicode = 005F;
},
{
color = (166, 255, 153, 255);
glyphname = braceleft;
layers = (
{
layerId = "65F68577-51D6-4015-BE17-9540A8734A9C";
paths = (
{
closed = 1;
nodes = (
"204 -61 LINE",
"204 -87 OFFCURVE",
"209 -115 OFFCURVE",
"219 -125 QCURVE",
"229 -136 OFFCURVE",
"264 -140 OFFCURVE",
"291 -140 QCURVE",
"320 -140 LINE",
"320 -191 LINE",
"252 -191 LINE",
"197 -191 OFFCURVE",
"171 -169 QCURVE",
"143 -144 OFFCURVE",
"143 -91 QCURVE",
"143 134 LINE",
"143 162 OFFCURVE",
"136 212 OFFCURVE",
"114 251 OFFCURVE",
"75 276 OFFCURVE",
"42 278 QCURVE",
"42 324 LINE",
"74 326 OFFCURVE",
"113 351 OFFCURVE",
"135 391 OFFCURVE",
"143 442 OFFCURVE",
"143 469 QCURVE",
"143 694 LINE",
"143 747 OFFCURVE",
"170 771 QCURVE",
"184 783 OFFCURVE",
"225 793 OFFCURVE",
"252 793 QCURVE",
"320 793 LINE",
"320 742 LINE",
"280 742 LINE",
"263 742 OFFCURVE",
"228 740 OFFCURVE",
"217 727 QCURVE",
"206 714 OFFCURVE",
"204 668 OFFCURVE",
"204 652 QCURVE",
"204 440 LINE",
"204 392 OFFCURVE",
"166 323 OFFCURVE",
"121 302 QCURVE",
"168 280 OFFCURVE",
"204 212 OFFCURVE",
"204 162 QCURVE"
);
}
);
width = 384;
}
);
unicode = 007B;
},
{
color = (166, 255, 153, 255);
glyphname = bar;
layers = (
{
layerId = "65F68577-51D6-4015-BE17-9540A8734A9C";
paths = (
{
closed = 1;
nodes = (
"92 -173 LINE",
"92 804 LINE",
"157 804 LINE",
"157 -173 LINE"
);
}
);
width = 249;
}
);
unicode = 007C;
},
{
color = (166, 255, 153, 255);
glyphname = braceright;
layers = (
{
layerId = "65F68577-51D6-4015-BE17-9540A8734A9C";
paths = (
{
closed = 1;
nodes = (
"180 663 LINE",
"180 688 OFFCURVE",
"174 717 OFFCURVE",
"165 727 QCURVE",
"154 738 OFFCURVE",
"120 742 OFFCURVE",
"92 742 QCURVE",
"64 742 LINE",
"64 793 LINE",
"132 793 LINE",
"187 793 OFFCURVE",
"212 771 QCURVE",
"241 747 OFFCURVE",
"241 693 QCURVE",
"241 468 LINE",
"241 440 OFFCURVE",
"248 390 OFFCURVE",
"269 351 OFFCURVE",
"309 326 OFFCURVE",
"342 324 QCURVE",
"342 278 LINE",
"310 276 OFFCURVE",
"271 251 OFFCURVE",
"249 211 OFFCURVE",
"241 160 OFFCURVE",
"241 133 QCURVE",
"241 -92 LINE",
"241 -147 OFFCURVE",
"212 -170 QCURVE",
"185 -191 OFFCURVE",
"132 -191 QCURVE",
"64 -191 LINE",
"64 -140 LINE",
"104 -140 LINE",
"121 -140 OFFCURVE",
"157 -137 OFFCURVE",
"167 -125 QCURVE",
"178 -111 OFFCURVE",
"180 -80 OFFCURVE",
"180 -54 QCURVE",
"180 162 LINE",
"180 210 OFFCURVE",
"218 279 OFFCURVE",
"263 300 QCURVE",
"216 322 OFFCURVE",
"180 390 OFFCURVE",
"180 440 QCURVE"
);
}
);
width = 384;
}
);
unicode = 007D;
},
{
color = (166, 255, 153, 255);
glyphname = Euro;
layers = (
{
layerId = "65F68577-51D6-4015-BE17-9540A8734A9C";
paths = (
{
closed = 1;
nodes = (
"319 -8 OFFCURVE",
"176 120 OFFCURVE",
"154 232 QCURVE",
"54 232 LINE",
"63 292 LINE",
"149 292 LINE",
"146 324 OFFCURVE",
"147 386 OFFCURVE",
"151 418 QCURVE",
"54 418 LINE",
"64 478 LINE",
"159 478 LINE",
"172 532 OFFCURVE",
"220 619 OFFCURVE",
"288 681 OFFCURVE",
"380 715 OFFCURVE",
"437 715 QCURVE",
"489 715 OFFCURVE",
"577 688 OFFCURVE",
"616 658 QCURVE",
"584 607 LINE",
"549 634 OFFCURVE",
"478 656 OFFCURVE",
"434 656 QCURVE",
"392 656 OFFCURVE",
"324 629 OFFCURVE",
"271 582 OFFCURVE",
"234 517 OFFCURVE",
"224 478 QCURVE",
"505 478 LINE",
"496 418 LINE",
"214 418 LINE",
"210 389 OFFCURVE",
"208 321 OFFCURVE",
"213 292 QCURVE",
"472 292 LINE",
"463 232 LINE",
"222 232 LINE",
"239 148 OFFCURVE",
"355 51 OFFCURVE",
"443 51 QCURVE",
"488 51 OFFCURVE",
"559 74 OFFCURVE",
"594 103 QCURVE",
"628 56 LINE",
"590 21 OFFCURVE",
"489 -8 OFFCURVE",
"438 -8 QCURVE"
);
}
);
width = 682;
}
);
unicode = 20AC;
},
{
color = (166, 255, 153, 255);
glyphname = quotedblbase;
layers = (
{
layerId = "65F68577-51D6-4015-BE17-9540A8734A9C";
paths = (
{
closed = 1;
nodes = (
"152 94 OFFCURVE",
"180 53 OFFCURVE",
"179 29 QCURVE",
"180 -18 OFFCURVE",
"131 -101 OFFCURVE",
"88 -119 QCURVE",
"72 -93 LINE",
"94 -79 OFFCURVE",
"123 -37 OFFCURVE",
"128 -8 QCURVE",
"102 -10 OFFCURVE",
"74 19 OFFCURVE",
"74 44 QCURVE",
"74 66 OFFCURVE",
"104 95 OFFCURVE",
"126 94 QCURVE"
);
},
{
closed = 1;
nodes = (
"335 94 OFFCURVE",
"363 53 OFFCURVE",
"362 29 QCURVE",
"363 -18 OFFCURVE",
"314 -101 OFFCURVE",
"271 -119 QCURVE",
"255 -93 LINE",
"277 -79 OFFCURVE",
"306 -37 OFFCURVE",
"311 -8 QCURVE",
"285 -10 OFFCURVE",
"257 19 OFFCURVE",
"257 44 QCURVE",
"257 66 OFFCURVE",
"287 95 OFFCURVE",
"309 94 QCURVE"
);
}
);
width = 436;
}
);
leftKerningGroup = _kern14;
rightKerningGroup = _kern14;
unicode = 201E;
},
{
color = (166, 255, 153, 255);
glyphname = quotesinglbase;
layers = (
{
layerId = "65F68577-51D6-4015-BE17-9540A8734A9C";
paths = (
{
closed = 1;
nodes = (
"152 94 OFFCURVE",
"180 53 OFFCURVE",
"179 29 QCURVE",
"180 -18 OFFCURVE",
"131 -101 OFFCURVE",
"88 -119 QCURVE",
"72 -93 LINE",
"94 -79 OFFCURVE",
"123 -37 OFFCURVE",
"128 -8 QCURVE",
"102 -10 OFFCURVE",
"74 19 OFFCURVE",
"74 44 QCURVE",
"74 66 OFFCURVE",
"104 95 OFFCURVE",
"126 94 QCURVE"
);
}
);
width = 253;
}
);
unicode = 201A;
},
{
color = (166, 255, 153, 255);
glyphname = quotedblright;
layers = (
{
layerId = "65F68577-51D6-4015-BE17-9540A8734A9C";
paths = (
{
closed = 1;
nodes = (
"155 731 OFFCURVE",
"180 690 OFFCURVE",
"179 665 QCURVE",
"180 620 OFFCURVE",
"131 537 OFFCURVE",
"88 518 QCURVE",
"72 544 LINE",
"94 559 OFFCURVE",
"123 601 OFFCURVE",
"128 630 QCURVE",
"102 628 OFFCURVE",
"74 657 OFFCURVE",
"74 681 QCURVE",
"74 703 OFFCURVE",
"103 732 OFFCURVE",
"126 732 QCURVE"
);
},
{
closed = 1;
nodes = (
"339 731 OFFCURVE",
"364 690 OFFCURVE",
"363 665 QCURVE",
"364 620 OFFCURVE",
"314 537 OFFCURVE",
"272 518 QCURVE",
"256 544 LINE",
"277 559 OFFCURVE",
"307 601 OFFCURVE",
"312 630 QCURVE",
"286 628 OFFCURVE",
"257 657 OFFCURVE",
"257 681 QCURVE",
"257 703 OFFCURVE",
"287 732 OFFCURVE",
"310 732 QCURVE"
);
}
);
width = 437;
}
);
unicode = 201D;
},
{
color = (166, 255, 153, 255);
glyphname = quoteright;
layers = (
{
layerId = "65F68577-51D6-4015-BE17-9540A8734A9C";
paths = (
{
closed = 1;
nodes = (
"155 731 OFFCURVE",
"181 688 OFFCURVE",
"179 665 QCURVE",
"180 620 OFFCURVE",
"131 537 OFFCURVE",
"88 518 QCURVE",
"72 544 LINE",
"94 559 OFFCURVE",
"123 601 OFFCURVE",
"128 630 QCURVE",
"102 628 OFFCURVE",
"74 657 OFFCURVE",
"74 681 QCURVE",
"74 703 OFFCURVE",
"103 732 OFFCURVE",
"126 732 QCURVE"
);
}
);
width = 253;
}
);
unicode = 2019;
},
{
color = (166, 255, 153, 255);
glyphname = quotedblleft;
layers = (
{
layerId = "65F68577-51D6-4015-BE17-9540A8734A9C";
paths = (
{
closed = 1;
nodes = (
"282 528 OFFCURVE",
"257 569 OFFCURVE",
"258 594 QCURVE",
"257 616 OFFCURVE",
"270 661 OFFCURVE",
"294 700 OFFCURVE",
"328 731 OFFCURVE",
"349 740 QCURVE",
"365 714 LINE",
"343 700 OFFCURVE",
"314 658 OFFCURVE",
"309 629 QCURVE",
"335 631 OFFCURVE",
"363 602 OFFCURVE",
"363 578 QCURVE",
"363 556 OFFCURVE",
"334 526 OFFCURVE",
"311 527 QCURVE"
);
},
{
closed = 1;
nodes = (
"98 528 OFFCURVE",
"74 569 OFFCURVE",
"74 594 QCURVE",
"73 616 OFFCURVE",
"86 661 OFFCURVE",
"110 700 OFFCURVE",
"144 731 OFFCURVE",
"165 740 QCURVE",
"181 714 LINE",
"160 700 OFFCURVE",
"131 658 OFFCURVE",
"126 629 QCURVE",
"151 631 OFFCURVE",
"180 602 OFFCURVE",
"180 578 QCURVE",
"180 556 OFFCURVE",
"150 526 OFFCURVE",
"127 527 QCURVE"
);
}
);
width = 437;
}
);
unicode = 201C;
},
{
color = (166, 255, 153, 255);
glyphname = quoteleft;
layers = (
{
layerId = "65F68577-51D6-4015-BE17-9540A8734A9C";
paths = (
{
closed = 1;
nodes = (
"99 528 OFFCURVE",
"74 568 OFFCURVE",
"74 594 QCURVE",
"73 616 OFFCURVE",
"86 661 OFFCURVE",
"110 700 OFFCURVE",
"144 731 OFFCURVE",
"165 740 QCURVE",
"181 714 LINE",
"160 700 OFFCURVE",
"131 658 OFFCURVE",
"126 629 QCURVE",
"151 631 OFFCURVE",
"180 602 OFFCURVE",
"180 578 QCURVE",
"180 556 OFFCURVE",
"151 526 OFFCURVE",
"128 527 QCURVE"
);
}
);
width = 253;
}
);
unicode = 2018;
},
{
color = (166, 255, 153, 255);
glyphname = minus;
layers = (
{
layerId = "65F68577-51D6-4015-BE17-9540A8734A9C";
paths = (
{
closed = 1;
nodes = (
"439 385 LINE",
"439 325 LINE",
"79 325 LINE",
"79 385 LINE"
);
}
);
width = 518;
}
);
unicode = 2212;
},
{
color = (166, 255, 153, 255);
glyphname = hyphen;
layers = (
{
layerId = "65F68577-51D6-4015-BE17-9540A8734A9C";
paths = (
{
closed = 1;
nodes = (
"79 311 LINE",
"374 311 LINE",
"374 251 LINE",
"79 251 LINE"
);
}
);
width = 453;
}
);
unicode = 002D;
},
{
color = (166, 255, 153, 255);
glyphname = endash;
layers = (
{
layerId = "65F68577-51D6-4015-BE17-9540A8734A9C";
paths = (
{
closed = 1;
nodes = (
"497 251 LINE",
"79 251 LINE",
"79 311 LINE",
"497 311 LINE"
);
}
);
width = 576;
}
);
unicode = 2013;
},
{
color = (166, 255, 153, 255);
glyphname = emdash;
layers = (
{
layerId = "65F68577-51D6-4015-BE17-9540A8734A9C";
paths = (
{
closed = 1;
nodes = (
"684 251 LINE",
"79 251 LINE",
"79 311 LINE",
"684 311 LINE"
);
}
);
width = 763;
}
);
unicode = 2014;
},
{
color = (248, 153, 255, 255);
glyphname = grave;
layers = (
{
layerId = "65F68577-51D6-4015-BE17-9540A8734A9C";
paths = (
{
closed = 1;
nodes = (
"122 769 LINE",
"206 628 LINE",
"151 628 LINE",
"54 769 LINE"
);
}
);
width = 320;
}
);
unicode = 0060;
},
{
color = (248, 153, 255, 255);
glyphname = acute;
layers = (
{
layerId = "65F68577-51D6-4015-BE17-9540A8734A9C";
paths = (
{
closed = 1;
nodes = (
"200 769 LINE",
"268 769 LINE",
"169 628 LINE",
"114 628 LINE"
);
}
);
width = 322;
}
);
unicode = 00B4;
},
{
color = (166, 255, 153, 255);
glyphname = guillemotright;
layers = (
{
layerId = "65F68577-51D6-4015-BE17-9540A8734A9C";
paths = (
{
closed = 1;
nodes = (
"64 429 LINE",
"129 429 LINE",
"241 262 LINE",
"129 93 LINE",
"64 93 LINE",
"175 261 LINE"
);
},
{
closed = 1;
nodes = (
"245 429 LINE",
"310 429 LINE",
"422 262 LINE",
"310 93 LINE",
"245 93 LINE",
"356 261 LINE"
);
}
);
width = 466;
}
);
unicode = 00BB;
},
{
color = (166, 255, 153, 255);
glyphname = guilsinglright;
layers = (
{
layerId = "65F68577-51D6-4015-BE17-9540A8734A9C";
paths = (
{
closed = 1;
nodes = (
"64 429 LINE",
"129 429 LINE",
"241 262 LINE",
"129 93 LINE",
"64 93 LINE",
"175 261 LINE"
);
}
);
width = 285;
}
);
unicode = 203A;
},
{
color = (166, 255, 153, 255);
glyphname = guillemotleft;
layers = (
{
layerId = "65F68577-51D6-4015-BE17-9540A8734A9C";
paths = (
{
closed = 1;
nodes = (
"402 93 LINE",
"337 93 LINE",
"225 260 LINE",
"337 429 LINE",
"402 429 LINE",
"291 261 LINE"
);
},
{
closed = 1;
nodes = (
"221 93 LINE",
"156 93 LINE",
"44 260 LINE",
"156 429 LINE",
"221 429 LINE",
"110 261 LINE"
);
}
);
width = 466;
}
);
unicode = 00AB;
},
{
color = (166, 255, 153, 255);
glyphname = guilsinglleft;
layers = (
{
layerId = "65F68577-51D6-4015-BE17-9540A8734A9C";
paths = (
{
closed = 1;
nodes = (
"221 93 LINE",
"156 93 LINE",
"44 260 LINE",
"156 429 LINE",
"221 429 LINE",
"110 261 LINE"
);
}
);
width = 285;
}
);
unicode = 2039;
},
{
color = (166, 255, 153, 255);
glyphname = uni00AD;
layers = (
{
layerId = "65F68577-51D6-4015-BE17-9540A8734A9C";
paths = (
{
closed = 1;
nodes = (
"79 311 LINE",
"374 311 LINE",
"374 251 LINE",
"79 251 LINE"
);
}
);
width = 453;
}
);
unicode = 00AD;
},
{
color = (166, 255, 153, 255);
glyphname = ellipsis;
layers = (
{
layerId = "65F68577-51D6-4015-BE17-9540A8734A9C";
paths = (
{
closed = 1;
nodes = (
"135 94 OFFCURVE",
"163 66 OFFCURVE",
"163 44 QCURVE",
"163 22 OFFCURVE",
"136 -8 OFFCURVE",
"112 -8 QCURVE",
"89 -8 OFFCURVE",
"62 22 OFFCURVE",
"62 44 QCURVE",
"62 66 OFFCURVE",
"89 94 OFFCURVE",
"112 94 QCURVE"
);
},
{
closed = 1;
nodes = (
"611 94 OFFCURVE",
"638 66 OFFCURVE",
"638 44 QCURVE",
"638 22 OFFCURVE",
"611 -8 OFFCURVE",
"588 -8 QCURVE",
"564 -8 OFFCURVE",
"537 22 OFFCURVE",
"537 44 QCURVE",
"537 66 OFFCURVE",
"565 94 OFFCURVE",
"588 94 QCURVE"
);
},
{
closed = 1;
nodes = (
"373 94 OFFCURVE",
"401 66 OFFCURVE",
"401 44 QCURVE",
"401 22 OFFCURVE",
"373 -8 OFFCURVE",
"350 -8 QCURVE",
"327 -8 OFFCURVE",
"300 22 OFFCURVE",
"300 44 QCURVE",
"300 66 OFFCURVE",
"327 94 OFFCURVE",
"350 94 QCURVE"
);
}
);
width = 700;
}
);
unicode = 2026;
},
{
color = (166, 255, 153, 255);
glyphname = uni0445;
layers = (
{
layerId = "65F68577-51D6-4015-BE17-9540A8734A9C";
paths = (
{
closed = 1;
nodes = (
"251 219 LINE",
"97 0 LINE",
"19 0 LINE",
"209 267 LINE",
"28 527 LINE",
"111 527 LINE",
"255 312 LINE",
"396 527 LINE",
"476 527 LINE",
"297 266 LINE",
"489 0 LINE",
"407 0 LINE"
);
}
);
width = 508;
}
);
unicode = 0445;
},
{
color = (166, 255, 153, 255);
glyphname = uni0431;
layers = (
{
layerId = "65F68577-51D6-4015-BE17-9540A8734A9C";
paths = (
{
closed = 1;
nodes = (
"140 432 OFFCURVE",
"244 485 OFFCURVE",
"306 485 QCURVE",
"359 485 OFFCURVE",
"442 449 OFFCURVE",
"498 385 OFFCURVE",
"527 298 OFFCURVE",
"527 247 QCURVE",
"527 193 OFFCURVE",
"494 100 OFFCURVE",
"433 32 OFFCURVE",
"344 -6 OFFCURVE",
"288 -6 QCURVE",
"234 -6 OFFCURVE",
"153 27 OFFCURVE",
"96 87 OFFCURVE",
"63 171 OFFCURVE",
"57 222 QCURVE",
"53 254 OFFCURVE",
"49 318 OFFCURVE",
"49 350 QCURVE",
"49 460 OFFCURVE",
"68 524 QCURVE",
"86 590 OFFCURVE",
"132 631 QCURVE",
"156 653 OFFCURVE",
"215 680 OFFCURVE",
"248 688 QCURVE",
"283 696 OFFCURVE",
"379 706 OFFCURVE",
"431 712 QCURVE",
"443 713 OFFCURVE",
"479 718 OFFCURVE",
"509 724 QCURVE",
"509 662 LINE",
"489 657 OFFCURVE",
"447 652 OFFCURVE",
"427 650 QCURVE",
"395 647 OFFCURVE",
"326 641 OFFCURVE",
"294 636 QCURVE",
"248 629 OFFCURVE",
"170 595 OFFCURVE",
"145 552 QCURVE",
"122 511 OFFCURVE",
"109 422 OFFCURVE",
"110 377 QCURVE"
);
},
{
closed = 1;
nodes = (
"332 49 OFFCURVE",
"396 80 OFFCURVE",
"439 134 OFFCURVE",
"461 205 OFFCURVE",
"461 244 QCURVE",
"461 284 OFFCURVE",
"439 351 OFFCURVE",
"397 401 OFFCURVE",
"334 429 OFFCURVE",
"294 429 QCURVE",
"256 429 OFFCURVE",
"192 398 OFFCURVE",
"146 346 OFFCURVE",
"120 279 OFFCURVE",
"120 242 QCURVE",
"120 203 OFFCURVE",
"141 132 OFFCURVE",
"184 80 OFFCURVE",
"248 49 OFFCURVE",
"290 49 QCURVE"
);
}
);
width = 575;
}
);
rightKerningGroup = _kern10;
unicode = 0431;
},
{
color = (166, 255, 153, 255);
glyphname = uni0432;
layers = (
{
layerId = "65F68577-51D6-4015-BE17-9540A8734A9C";
paths = (
{
closed = 1;
nodes = (
"72 527 LINE",
"274 527 LINE",
"304 527 OFFCURVE",
"371 519 OFFCURVE",
"426 493 OFFCURVE",
"463 444 OFFCURVE",
"464 403 QCURVE",
"465 365 OFFCURVE",
"430 301 OFFCURVE",
"392 282 QCURVE",
"440 272 OFFCURVE",
"496 209 OFFCURVE",
"496 152 QCURVE",
"496 108 OFFCURVE",
"461 47 OFFCURVE",
"432 29 QCURVE",
"408 13 OFFCURVE",
"344 0 OFFCURVE",
"311 0 QCURVE",
"72 0 LINE"
);
},
{
closed = 1;
nodes = (
"138 472 LINE",
"138 297 LINE",
"272 297 LINE",
"292 297 OFFCURVE",
"346 306 OFFCURVE",
"365 319 QCURVE",
"381 329 OFFCURVE",
"401 362 OFFCURVE",
"401 387 QCURVE",
"401 415 OFFCURVE",
"378 449 OFFCURVE",
"340 467 OFFCURVE",
"294 472 OFFCURVE",
"271 472 QCURVE"
);
},
{
closed = 1;
nodes = (
"138 55 LINE",
"294 55 LINE",
"317 55 OFFCURVE",
"365 62 OFFCURVE",
"404 81 OFFCURVE",
"430 116 OFFCURVE",
"430 145 QCURVE",
"430 179 OFFCURVE",
"403 217 OFFCURVE",
"359 237 OFFCURVE",
"306 242 OFFCURVE",
"280 242 QCURVE",
"138 242 LINE"
);
}
);
width = 550;
}
);
leftKerningGroup = _kern11;
unicode = 0432;
},
{
color = (166, 255, 153, 255);
glyphname = uni0433;
layers = (
{
layerId = "65F68577-51D6-4015-BE17-9540A8734A9C";
paths = (
{
closed = 1;
nodes = (
"72 0 LINE",
"72 527 LINE",
"429 527 LINE",
"429 472 LINE",
"138 472 LINE",
"138 0 LINE"
);
}
);
width = 457;
}
);
leftKerningGroup = _kern11;
rightKerningGroup = _kern24;
unicode = 0433;
},
{
color = (166, 255, 153, 255);
glyphname = uni0434;
layers = (
{
layerId = "65F68577-51D6-4015-BE17-9540A8734A9C";
paths = (
{
closed = 1;
nodes = (
"505 527 LINE",
"505 55 LINE",
"577 55 LINE",
"577 -168 LINE",
"514 -168 LINE",
"514 0 LINE",
"89 0 LINE",
"89 -168 LINE",
"27 -168 LINE",
"27 54 LINE",
"45 55 OFFCURVE",
"72 74 OFFCURVE",
"93 101 OFFCURVE",
"107 133 OFFCURVE",
"112 148 QCURVE",
"126 193 OFFCURVE",
"136 298 OFFCURVE",
"137 340 QCURVE",
"138 387 OFFCURVE",
"140 481 OFFCURVE",
"139 527 QCURVE"
);
},
{
closed = 1;
nodes = (
"439 472 LINE",
"202 472 LINE",
"201 437 OFFCURVE",
"200 357 OFFCURVE",
"199 322 QCURVE",
"198 277 OFFCURVE",
"191 186 OFFCURVE",
"178 142 QCURVE",
"170 113 OFFCURVE",
"144 68 OFFCURVE",
"132 55 QCURVE",
"439 55 LINE"
);
}
);
width = 604;
}
);
rightKerningGroup = _kern13;
unicode = 0434;
},
{
color = (166, 255, 153, 255);
glyphname = uni0436;
layers = (
{
layerId = "65F68577-51D6-4015-BE17-9540A8734A9C";
paths = (
{
closed = 1;
nodes = (
"342 0 LINE",
"342 237 LINE",
"239 237 LINE",
"94 0 LINE",
"19 0 LINE",
"189 277 LINE",
"34 527 LINE",
"107 527 LINE",
"249 292 LINE",
"342 292 LINE",
"342 527 LINE",
"408 527 LINE",
"408 292 LINE",
"501 292 LINE",
"643 527 LINE",
"716 527 LINE",
"561 277 LINE",
"732 0 LINE",
"657 0 LINE",
"511 237 LINE",
"408 237 LINE",
"408 0 LINE"
);
}
);
width = 751;
}
);
unicode = 0436;
},
{
color = (166, 255, 153, 255);
glyphname = uni043A;
layers = (
{
layerId = "65F68577-51D6-4015-BE17-9540A8734A9C";
paths = (
{
closed = 1;
nodes = (
"72 0 LINE",
"72 527 LINE",
"138 527 LINE",
"138 291 LINE",
"251 291 LINE",
"414 527 LINE",
"487 527 LINE",
"310 274 LINE",
"504 0 LINE",
"428 0 LINE",
"258 236 LINE",
"138 236 LINE",
"138 0 LINE"
);
}
);
width = 516;
}
);
leftKerningGroup = _kern11;
unicode = 043A;
},
{
color = (166, 255, 153, 255);
glyphname = uni0438;
layers = (
{
layerId = "65F68577-51D6-4015-BE17-9540A8734A9C";
paths = (
{
closed = 1;
nodes = (
"164 0 LINE",
"72 0 LINE",
"72 527 LINE",
"138 527 LINE",
"138 73 LINE",
"427 527 LINE",
"518 527 LINE",
"518 0 LINE",
"452 0 LINE",
"452 450 LINE"
);
}
);
width = 590;
}
);
leftKerningGroup = _kern11;
unicode = 0438;
},
{
color = (166, 255, 153, 255);
glyphname = uni0439;
layers = (
{
layerId = "65F68577-51D6-4015-BE17-9540A8734A9C";
paths = (
{
closed = 1;
nodes = (
"313 656 OFFCURVE",
"349 662 OFFCURVE",
"379 677 OFFCURVE",
"400 705 OFFCURVE",
"403 728 QCURVE",
"464 728 LINE",
"461 693 OFFCURVE",
"430 646 OFFCURVE",
"383 617 OFFCURVE",
"325 605 OFFCURVE",
"294 605 QCURVE",
"263 605 OFFCURVE",
"205 617 OFFCURVE",
"160 646 OFFCURVE",
"131 693 OFFCURVE",
"128 728 QCURVE",
"189 728 LINE",
"192 705 OFFCURVE",
"213 677 OFFCURVE",
"243 662 OFFCURVE",
"279 656 OFFCURVE",
"296 656 QCURVE"
);
},
{
closed = 1;
nodes = (
"164 0 LINE",
"72 0 LINE",
"72 527 LINE",
"138 527 LINE",
"138 73 LINE",
"427 527 LINE",
"518 527 LINE",
"518 0 LINE",
"452 0 LINE",
"452 450 LINE",
"165 0 LINE"
);
}
);
width = 590;
}
);
unicode = 0439;
},
{
color = (166, 255, 153, 255);
glyphname = uni043B;
layers = (
{
layerId = "65F68577-51D6-4015-BE17-9540A8734A9C";
paths = (
{
closed = 1;
nodes = (
"496 527 LINE",
"496 0 LINE",
"430 0 LINE",
"430 472 LINE",
"202 472 LINE",
"200 415 OFFCURVE",
"195 304 OFFCURVE",
"193 247 QCURVE",
"191 221 OFFCURVE",
"186 163 OFFCURVE",
"174 106 OFFCURVE",
"152 54 OFFCURVE",
"133 35 QCURVE",
"109 11 OFFCURVE",
"57 -4 OFFCURVE",
"24 -4 QCURVE",
"24 58 LINE",
"54 60 OFFCURVE",
"93 91 OFFCURVE",
"104 117 QCURVE",
"117 149 OFFCURVE",
"126 226 OFFCURVE",
"128 253 QCURVE",
"133 322 OFFCURVE",
"136 458 OFFCURVE",
"138 527 QCURVE"
);
}
);
width = 568;
}
);
unicode = 043B;
},
{
color = (166, 255, 153, 255);
glyphname = uni043C;
layers = (
{
layerId = "65F68577-51D6-4015-BE17-9540A8734A9C";
paths = (
{
closed = 1;
nodes = (
"72 527 LINE",
"177 527 LINE",
"351 241 LINE",
"521 527 LINE",
"624 527 LINE",
"624 0 LINE",
"558 0 LINE",
"558 466 LINE",
"362 134 LINE",
"336 134 LINE",
"138 465 LINE",
"138 0 LINE",
"72 0 LINE"
);
}
);
width = 696;
}
);
leftKerningGroup = _kern11;
unicode = 043C;
},
{
color = (166, 255, 153, 255);
glyphname = uni043D;
layers = (
{
layerId = "65F68577-51D6-4015-BE17-9540A8734A9C";
paths = (
{
closed = 1;
nodes = (
"72 0 LINE",
"72 527 LINE",
"138 527 LINE",
"138 286 LINE",
"436 286 LINE",
"436 527 LINE",
"502 527 LINE",
"502 0 LINE",
"436 0 LINE",
"436 231 LINE",
"138 231 LINE",
"138 0 LINE"
);
}
);
width = 574;
}
);
leftKerningGroup = _kern11;
unicode = 043D;
},
{
color = (166, 255, 153, 255);
glyphname = uni043F;
layers = (
{
layerId = "65F68577-51D6-4015-BE17-9540A8734A9C";
paths = (
{
closed = 1;
nodes = (
"72 0 LINE",
"72 527 LINE",
"505 527 LINE",
"505 0 LINE",
"439 0 LINE",
"439 472 LINE",
"138 472 LINE",
"138 0 LINE"
);
}
);
width = 577;
}
);
leftKerningGroup = _kern11;
unicode = 043F;
},
{
color = (166, 255, 153, 255);
glyphname = uni0442;
layers = (
{
layerId = "65F68577-51D6-4015-BE17-9540A8734A9C";
paths = (
{
closed = 1;
nodes = (
"456 527 LINE",
"456 472 LINE",
"267 472 LINE",
"267 0 LINE",
"201 0 LINE",
"201 472 LINE",
"12 472 LINE",
"12 527 LINE"
);
}
);
width = 468;
}
);
unicode = 0442;
},
{
color = (166, 255, 153, 255);
glyphname = uni0444;
layers = (
{
layerId = "65F68577-51D6-4015-BE17-9540A8734A9C";
paths = (
{
closed = 1;
nodes = (
"335 696 LINE",
"401 696 LINE",
"401 533 LINE",
"467 532 OFFCURVE",
"573 497 OFFCURVE",
"648 429 OFFCURVE",
"688 327 OFFCURVE",
"688 259 QCURVE",
"688 191 OFFCURVE",
"648 92 OFFCURVE",
"573 28 OFFCURVE",
"467 -5 OFFCURVE",
"401 -7 QCURVE",
"401 -197 LINE",
"335 -197 LINE",
"335 -7 LINE",
"270 -5 OFFCURVE",
"164 28 OFFCURVE",
"89 93 OFFCURVE",
"48 192 OFFCURVE",
"48 259 QCURVE",
"48 328 OFFCURVE",
"88 430 OFFCURVE",
"162 497 OFFCURVE",
"269 532 OFFCURVE",
"335 533 QCURVE"
);
},
{
closed = 1;
nodes = (
"401 48 LINE",
"452 48 OFFCURVE",
"533 74 OFFCURVE",
"591 126 OFFCURVE",
"622 206 OFFCURVE",
"622 262 QCURVE",
"622 371 OFFCURVE",
"509 476 OFFCURVE",
"401 476 QCURVE"
);
},
{
closed = 1;
nodes = (
"335 476 LINE",
"227 476 OFFCURVE",
"114 371 OFFCURVE",
"114 262 QCURVE",
"114 207 OFFCURVE",
"145 126 OFFCURVE",
"203 74 OFFCURVE",
"284 48 OFFCURVE",
"335 48 QCURVE"
);
}
);
width = 736;
}
);
leftKerningGroup = _kern9;
rightKerningGroup = _kern10;
unicode = 0444;
},
{
color = (166, 255, 153, 255);
glyphname = uni0446;
layers = (
{
layerId = "65F68577-51D6-4015-BE17-9540A8734A9C";
paths = (
{
closed = 1;
nodes = (
"427 55 LINE",
"427 527 LINE",
"493 527 LINE",
"493 55 LINE",
"565 55 LINE",
"565 -168 LINE",
"502 -168 LINE",
"502 0 LINE",
"72 0 LINE",
"72 527 LINE",
"138 527 LINE",
"138 55 LINE"
);
}
);
width = 592;
}
);
leftKerningGroup = _kern11;
rightKerningGroup = _kern13;
unicode = 0446;
},
{
color = (166, 255, 153, 255);
glyphname = uni0447;
layers = (
{
layerId = "65F68577-51D6-4015-BE17-9540A8734A9C";
paths = (
{
closed = 1;
nodes = (
"49 527 LINE",
"115 527 LINE",
"115 413 LINE",
"115 371 OFFCURVE",
"126 311 OFFCURVE",
"158 271 OFFCURVE",
"214 252 OFFCURVE",
"259 252 QCURVE",
"292 252 OFFCURVE",
"356 256 OFFCURVE",
"394 263 QCURVE",
"394 527 LINE",
"460 527 LINE",
"460 0 LINE",
"394 0 LINE",
"394 207 LINE",
"352 199 OFFCURVE",
"287 194 OFFCURVE",
"252 194 QCURVE",
"196 194 OFFCURVE",
"119 218 OFFCURVE",
"71 270 OFFCURVE",
"49 351 OFFCURVE",
"49 407 QCURVE"
);
}
);
width = 532;
}
);
leftKerningGroup = _kern11;
unicode = 0447;
},
{
color = (166, 255, 153, 255);
glyphname = uni0448;
layers = (
{
layerId = "65F68577-51D6-4015-BE17-9540A8734A9C";
paths = (
{
closed = 1;
nodes = (
"72 527 LINE",
"138 527 LINE",
"138 55 LINE",
"367 55 LINE",
"367 527 LINE",
"433 527 LINE",
"433 55 LINE",
"664 55 LINE",
"664 527 LINE",
"730 527 LINE",
"730 0 LINE",
"72 0 LINE"
);
}
);
width = 802;
}
);
leftKerningGroup = _kern11;
unicode = 0448;
},
{
color = (166, 255, 153, 255);
glyphname = uni0449;
layers = (
{
layerId = "65F68577-51D6-4015-BE17-9540A8734A9C";
paths = (
{
closed = 1;
nodes = (
"72 527 LINE",
"138 527 LINE",
"138 55 LINE",
"367 55 LINE",
"367 527 LINE",
"433 527 LINE",
"433 55 LINE",
"664 55 LINE",
"664 527 LINE",
"730 527 LINE",
"730 55 LINE",
"802 55 LINE",
"802 -168 LINE",
"739 -168 LINE",
"739 0 LINE",
"72 0 LINE"
);
}
);
width = 829;
}
);
leftKerningGroup = _kern11;
rightKerningGroup = _kern13;
unicode = 0449;
},
{
color = (166, 255, 153, 255);
glyphname = uni044A;
layers = (
{
layerId = "65F68577-51D6-4015-BE17-9540A8734A9C";
paths = (
{
closed = 1;
nodes = (
"153 472 LINE",
"19 472 LINE",
"19 527 LINE",
"220 527 LINE",
"220 318 LINE",
"334 318 LINE",
"374 318 OFFCURVE",
"454 308 OFFCURVE",
"516 277 OFFCURVE",
"555 216 OFFCURVE",
"555 168 QCURVE",
"555 121 OFFCURVE",
"523 57 OFFCURVE",
"468 18 OFFCURVE",
"394 0 OFFCURVE",
"352 0 QCURVE",
"153 0 LINE"
);
},
{
closed = 1;
nodes = (
"320 55 LINE",
"351 55 OFFCURVE",
"411 61 OFFCURVE",
"459 83 OFFCURVE",
"488 127 OFFCURVE",
"488 165 QCURVE",
"488 198 OFFCURVE",
"460 237 OFFCURVE",
"416 257 OFFCURVE",
"361 263 OFFCURVE",
"334 263 QCURVE",
"220 263 LINE",
"220 55 LINE"
);
}
);
width = 600;
}
);
unicode = 044A;
},
{
color = (166, 255, 153, 255);
glyphname = uni044B;
layers = (
{
layerId = "65F68577-51D6-4015-BE17-9540A8734A9C";
paths = (
{
closed = 1;
nodes = (
"539 0 LINE",
"539 527 LINE",
"604 527 LINE",
"604 0 LINE"
);
},
{
closed = 1;
nodes = (
"72 527 LINE",
"139 527 LINE",
"139 318 LINE",
"231 318 LINE",
"271 318 OFFCURVE",
"351 309 OFFCURVE",
"413 278 OFFCURVE",
"452 216 OFFCURVE",
"452 168 QCURVE",
"452 121 OFFCURVE",
"420 57 OFFCURVE",
"365 18 OFFCURVE",
"291 0 OFFCURVE",
"249 0 QCURVE",
"72 0 LINE"
);
},
{
closed = 1;
nodes = (
"217 55 LINE",
"248 55 OFFCURVE",
"308 61 OFFCURVE",
"356 83 OFFCURVE",
"385 127 OFFCURVE",
"385 165 QCURVE",
"385 198 OFFCURVE",
"358 237 OFFCURVE",
"314 257 OFFCURVE",
"259 263 OFFCURVE",
"232 263 QCURVE",
"139 263 LINE",
"139 55 LINE"
);
}
);
width = 676;
}
);
leftKerningGroup = _kern11;
unicode = 044B;
},
{
color = (166, 255, 153, 255);
glyphname = uni044C;
layers = (
{
layerId = "65F68577-51D6-4015-BE17-9540A8734A9C";
paths = (
{
closed = 1;
nodes = (
"72 527 LINE",
"139 527 LINE",
"139 318 LINE",
"253 318 LINE",
"293 318 OFFCURVE",
"373 309 OFFCURVE",
"435 277 OFFCURVE",
"474 216 OFFCURVE",
"474 168 QCURVE",
"474 121 OFFCURVE",
"442 57 OFFCURVE",
"387 18 OFFCURVE",
"313 0 OFFCURVE",
"271 0 QCURVE",
"72 0 LINE"
);
},
{
closed = 1;
nodes = (
"239 55 LINE",
"270 55 OFFCURVE",
"330 61 OFFCURVE",
"378 83 OFFCURVE",
"407 127 OFFCURVE",
"407 165 QCURVE",
"407 198 OFFCURVE",
"379 237 OFFCURVE",
"335 257 OFFCURVE",
"280 263 OFFCURVE",
"253 263 QCURVE",
"139 263 LINE",
"139 55 LINE"
);
}
);
width = 523;
}
);
leftKerningGroup = _kern11;
unicode = 044C;
},
{
color = (166, 255, 153, 255);
glyphname = uni044E;
layers = (
{
layerId = "65F68577-51D6-4015-BE17-9540A8734A9C";
paths = (
{
closed = 1;
nodes = (
"564 533 OFFCURVE",
"657 492 OFFCURVE",
"718 420 OFFCURVE",
"749 321 OFFCURVE",
"749 263 QCURVE",
"749 204 OFFCURVE",
"718 106 OFFCURVE",
"655 34 OFFCURVE",
"562 -6 OFFCURVE",
"501 -6 QCURVE",
"444 -6 OFFCURVE",
"357 29 OFFCURVE",
"297 92 OFFCURVE",
"264 181 OFFCURVE",
"260 236 QCURVE",
"138 236 LINE",
"138 0 LINE",
"72 0 LINE",
"72 527 LINE",
"138 527 LINE",
"138 291 LINE",
"260 291 LINE",
"264 346 OFFCURVE",
"298 435 OFFCURVE",
"358 498 OFFCURVE",
"444 533 OFFCURVE",
"502 533 QCURVE"
);
},
{
closed = 1;
nodes = (
"550 50 OFFCURVE",
"619 84 OFFCURVE",
"663 142 OFFCURVE",
"683 219 OFFCURVE",
"683 263 QCURVE",
"683 307 OFFCURVE",
"663 385 OFFCURVE",
"619 443 OFFCURVE",
"550 477 OFFCURVE",
"502 477 QCURVE",
"453 477 OFFCURVE",
"385 443 OFFCURVE",
"342 385 OFFCURVE",
"323 307 OFFCURVE",
"323 263 QCURVE",
"323 219 OFFCURVE",
"343 142 OFFCURVE",
"387 84 OFFCURVE",
"454 50 OFFCURVE",
"502 50 QCURVE"
);
}
);
width = 797;
}
);
leftKerningGroup = _kern11;
rightKerningGroup = _kern10;
unicode = 044E;
},
{
color = (166, 255, 153, 255);
glyphname = uni044F;
layers = (
{
layerId = "65F68577-51D6-4015-BE17-9540A8734A9C";
paths = (
{
closed = 1;
nodes = (
"459 0 LINE",
"394 0 LINE",
"394 204 LINE",
"252 204 LINE",
"117 0 LINE",
"39 0 LINE",
"184 213 LINE",
"122 224 OFFCURVE",
"46 301 OFFCURVE",
"46 366 QCURVE",
"46 417 OFFCURVE",
"80 479 OFFCURVE",
"109 498 QCURVE",
"137 516 OFFCURVE",
"208 527 OFFCURVE",
"250 527 QCURVE",
"459 527 LINE"
);
},
{
closed = 1;
nodes = (
"394 472 LINE",
"262 472 LINE",
"230 472 OFFCURVE",
"172 466 OFFCURVE",
"154 455 QCURVE",
"137 444 OFFCURVE",
"112 403 OFFCURVE",
"112 371 QCURVE",
"112 343 OFFCURVE",
"131 302 OFFCURVE",
"147 290 QCURVE",
"162 279 OFFCURVE",
"197 266 OFFCURVE",
"236 260 OFFCURVE",
"274 259 OFFCURVE",
"292 259 QCURVE",
"394 259 LINE"
);
}
);
width = 531;
}
);
leftKerningGroup = _kern11;
unicode = 044F;
},
{
color = (166, 255, 153, 255);
glyphname = uni0410;
layers = (
{
layerId = "65F68577-51D6-4015-BE17-9540A8734A9C";
paths = (
{
closed = 1;
nodes = (
"146 157 LINE",
"88 0 LINE",
"15 0 LINE",
"279 707 LINE",
"370 707 LINE",
"633 0 LINE",
"560 0 LINE",
"502 157 LINE"
);
},
{
closed = 1;
nodes = (
"168 217 LINE",
"481 217 LINE",
"324 646 LINE"
);
}
);
width = 648;
}
);
leftKerningGroup = _kern30;
rightKerningGroup = _kern30;
unicode = 0410;
},
{
color = (166, 255, 153, 255);
glyphname = uni0415;
layers = (
{
layerId = "65F68577-51D6-4015-BE17-9540A8734A9C";
paths = (
{
closed = 1;
nodes = (
"92 707 LINE",
"557 707 LINE",
"557 647 LINE",
"157 647 LINE",
"157 381 LINE",
"517 381 LINE",
"517 321 LINE",
"157 321 LINE",
"157 60 LINE",
"557 60 LINE",
"557 0 LINE",
"92 0 LINE"
);
}
);
width = 610;
}
);
unicode = 0415;
},
{
color = (166, 255, 153, 255);
glyphname = uni041C;
layers = (
{
layerId = "65F68577-51D6-4015-BE17-9540A8734A9C";
paths = (
{
closed = 1;
nodes = (
"744 707 LINE",
"744 0 LINE",
"679 0 LINE",
"679 646 LINE",
"619 535 OFFCURVE",
"495 299 OFFCURVE",
"435 188 QCURVE",
"404 188 LINE",
"157 646 LINE",
"157 0 LINE",
"92 0 LINE",
"92 707 LINE",
"197 707 LINE",
"422 292 LINE",
"643 707 LINE"
);
}
);
width = 836;
}
);
unicode = 041C;
},
{
color = (166, 255, 153, 255);
glyphname = uni041D;
layers = (
{
layerId = "65F68577-51D6-4015-BE17-9540A8734A9C";
paths = (
{
closed = 1;
nodes = (
"157 377 LINE",
"573 377 LINE",
"573 707 LINE",
"638 707 LINE",
"638 0 LINE",
"573 0 LINE",
"573 317 LINE",
"157 317 LINE",
"157 0 LINE",
"92 0 LINE",
"92 707 LINE",
"157 707 LINE"
);
}
);
width = 730;
}
);
unicode = 041D;
},
{
color = (166, 255, 153, 255);
glyphname = uni0420;
layers = (
{
layerId = "65F68577-51D6-4015-BE17-9540A8734A9C";
paths = (
{
closed = 1;
nodes = (
"92 707 LINE",
"332 707 LINE",
"447 707 OFFCURVE",
"577 595 OFFCURVE",
"577 476 QCURVE",
"577 416 OFFCURVE",
"536 328 OFFCURVE",
"465 269 OFFCURVE",
"368 241 OFFCURVE",
"312 241 QCURVE",
"157 241 LINE",
"157 0 LINE",
"92 0 LINE"
);
},
{
closed = 1;
nodes = (
"310 301 LINE",
"355 301 OFFCURVE",
"429 321 OFFCURVE",
"481 365 OFFCURVE",
"510 433 OFFCURVE",
"510 480 QCURVE",
"510 570 OFFCURVE",
"412 647 OFFCURVE",
"327 647 QCURVE",
"157 647 LINE",
"157 301 LINE"
);
}
);
width = 626;
}
);
unicode = 0420;
},
{
color = (166, 255, 153, 255);
glyphname = uni0422;
layers = (
{
layerId = "65F68577-51D6-4015-BE17-9540A8734A9C";
paths = (
{
closed = 1;
nodes = (
"552 647 LINE",
"318 647 LINE",
"318 0 LINE",
"253 0 LINE",
"253 647 LINE",
"19 647 LINE",
"19 707 LINE",
"552 707 LINE"
);
}
);
width = 571;
}
);
leftKerningGroup = _kern28;
rightKerningGroup = _kern28;
unicode = 0422;
},
{
color = (166, 255, 153, 255);
glyphname = uni0425;
layers = (
{
layerId = "65F68577-51D6-4015-BE17-9540A8734A9C";
paths = (
{
closed = 1;
nodes = (
"472 707 LINE",
"553 707 LINE",
"333 357 LINE",
"562 0 LINE",
"481 0 LINE",
"290 303 LINE",
"98 0 LINE",
"19 0 LINE",
"247 354 LINE",
"26 707 LINE",
"108 707 LINE",
"290 407 LINE"
);
}
);
width = 581;
}
);
unicode = 0425;
},
{
color = (166, 255, 153, 255);
glyphname = T;
layers = (
{
layerId = "65F68577-51D6-4015-BE17-9540A8734A9C";
paths = (
{
closed = 1;
nodes = (
"552 647 LINE",
"318 647 LINE",
"318 0 LINE",
"253 0 LINE",
"253 647 LINE",
"19 647 LINE",
"19 707 LINE",
"552 707 LINE"
);
}
);
width = 571;
}
);
leftKerningGroup = _kern28;
rightKerningGroup = _kern28;
unicode = 0054;
},
{
color = (166, 255, 153, 255);
glyphname = uni0412;
layers = (
{
layerId = "65F68577-51D6-4015-BE17-9540A8734A9C";
paths = (
{
closed = 1;
nodes = (
"91 707 LINE",
"335 707 LINE",
"381 707 OFFCURVE",
"464 694 OFFCURVE",
"527 656 OFFCURVE",
"565 588 OFFCURVE",
"565 533 QCURVE",
"565 473 OFFCURVE",
"506 390 OFFCURVE",
"450 372 QCURVE",
"522 360 OFFCURVE",
"603 266 OFFCURVE",
"603 192 QCURVE",
"603 133 OFFCURVE",
"554 59 OFFCURVE",
"476 16 OFFCURVE",
"378 0 OFFCURVE",
"329 0 QCURVE",
"91 0 LINE"
);
},
{
closed = 1;
nodes = (
"156 647 LINE",
"156 391 LINE",
"314 391 LINE",
"348 391 OFFCURVE",
"415 404 OFFCURVE",
"469 436 OFFCURVE",
"503 489 OFFCURVE",
"503 529 QCURVE",
"503 568 OFFCURVE",
"475 615 OFFCURVE",
"428 639 OFFCURVE",
"368 647 OFFCURVE",
"336 647 QCURVE"
);
},
{
closed = 1;
nodes = (
"326 60 LINE",
"362 60 OFFCURVE",
"437 68 OFFCURVE",
"498 95 OFFCURVE",
"537 149 OFFCURVE",
"537 196 QCURVE",
"537 237 OFFCURVE",
"506 289 OFFCURVE",
"456 319 OFFCURVE",
"390 331 OFFCURVE",
"356 331 QCURVE",
"156 331 LINE",
"156 60 LINE"
);
}
);
width = 657;
}
);
unicode = 0412;
},
{
color = (166, 255, 153, 255);
glyphname = uni041F;
layers = (
{
layerId = "65F68577-51D6-4015-BE17-9540A8734A9C";
paths = (
{
closed = 1;
nodes = (
"641 0 LINE",
"576 0 LINE",
"576 647 LINE",
"157 647 LINE",
"157 0 LINE",
"92 0 LINE",
"92 707 LINE",
"641 707 LINE"
);
}
);
width = 733;
}
);
unicode = 041F;
},
{
color = (166, 255, 153, 255);
glyphname = uni0413;
layers = (
{
layerId = "65F68577-51D6-4015-BE17-9540A8734A9C";
paths = (
{
closed = 1;
nodes = (
"92 0 LINE",
"92 707 LINE",
"537 707 LINE",
"537 647 LINE",
"157 647 LINE",
"157 0 LINE"
);
}
);
width = 569;
}
);
leftKerningGroup = _kern23;
rightKerningGroup = _kern23;
unicode = 0413;
},
{
color = (166, 255, 153, 255);
glyphname = uni041B;
layers = (
{
layerId = "65F68577-51D6-4015-BE17-9540A8734A9C";
paths = (
{
closed = 1;
nodes = (
"540 0 LINE",
"540 647 LINE",
"210 647 LINE",
"208 571 OFFCURVE",
"206 420 OFFCURVE",
"204 344 QCURVE",
"202 290 OFFCURVE",
"196 173 OFFCURVE",
"182 121 QCURVE",
"165 56 OFFCURVE",
"85 -4 OFFCURVE",
"19 -6 QCURVE",
"19 61 LINE",
"49 61 OFFCURVE",
"91 90 OFFCURVE",
"104 114 QCURVE",
"115 135 OFFCURVE",
"128 201 OFFCURVE",
"134 273 OFFCURVE",
"136 342 OFFCURVE",
"137 366 QCURVE",
"139 451 OFFCURVE",
"141 621 OFFCURVE",
"143 707 QCURVE",
"605 707 LINE",
"605 0 LINE"
);
}
);
width = 697;
}
);
unicode = 041B;
},
{
color = (166, 255, 153, 255);
glyphname = uni0414;
layers = (
{
layerId = "65F68577-51D6-4015-BE17-9540A8734A9C";
paths = (
{
closed = 1;
nodes = (
"27 -201 LINE",
"27 60 LINE",
"37 60 LINE",
"59 60 OFFCURVE",
"92 83 OFFCURVE",
"103 100 QCURVE",
"117 122 OFFCURVE",
"133 174 OFFCURVE",
"136 195 QCURVE",
"144 243 OFFCURVE",
"150 353 OFFCURVE",
"152 397 QCURVE",
"156 475 OFFCURVE",
"159 629 OFFCURVE",
"161 707 QCURVE",
"602 707 LINE",
"602 60 LINE",
"690 60 LINE",
"690 -201 LINE",
"625 -201 LINE",
"625 0 LINE",
"92 0 LINE",
"92 -201 LINE"
);
},
{
closed = 1;
nodes = (
"538 60 LINE",
"538 647 LINE",
"225 647 LINE",
"215 353 LINE",
"213 305 OFFCURVE",
"207 196 OFFCURVE",
"197 149 QCURVE",
"191 120 OFFCURVE",
"167 74 OFFCURVE",
"152 60 QCURVE"
);
}
);
width = 717;
}
);
rightKerningGroup = _kern12;
unicode = 0414;
},
{
color = (166, 255, 153, 255);
glyphname = uni0411;
layers = (
{
layerId = "65F68577-51D6-4015-BE17-9540A8734A9C";
paths = (
{
closed = 1;
nodes = (
"92 707 LINE",
"563 707 LINE",
"563 647 LINE",
"157 647 LINE",
"157 407 LINE",
"336 407 LINE",
"388 407 OFFCURVE",
"482 392 OFFCURVE",
"553 349 OFFCURVE",
"595 273 OFFCURVE",
"595 212 QCURVE",
"595 151 OFFCURVE",
"553 70 OFFCURVE",
"481 21 OFFCURVE",
"386 0 OFFCURVE",
"332 0 QCURVE",
"92 0 LINE"
);
},
{
closed = 1;
nodes = (
"157 60 LINE",
"320 60 LINE",
"360 60 OFFCURVE",
"436 71 OFFCURVE",
"494 102 OFFCURVE",
"529 160 OFFCURVE",
"529 208 QCURVE",
"529 256 OFFCURVE",
"494 311 OFFCURVE",
"436 339 OFFCURVE",
"363 347 OFFCURVE",
"325 347 QCURVE",
"157 347 LINE"
);
}
);
width = 655;
}
);
unicode = 0411;
},
{
color = (166, 255, 153, 255);
glyphname = uni0416;
layers = (
{
layerId = "65F68577-51D6-4015-BE17-9540A8734A9C";
paths = (
{
closed = 1;
nodes = (
"396 0 LINE",
"396 317 LINE",
"266 317 LINE",
"96 0 LINE",
"19 0 LINE",
"211 357 LINE",
"19 707 LINE",
"92 707 LINE",
"269 377 LINE",
"396 377 LINE",
"396 707 LINE",
"461 707 LINE",
"461 377 LINE",
"589 377 LINE",
"767 707 LINE",
"838 707 LINE",
"646 357 LINE",
"839 0 LINE",
"760 0 LINE",
"591 317 LINE",
"461 317 LINE",
"461 0 LINE"
);
}
);
width = 858;
}
);
unicode = 0416;
},
{
color = (166, 255, 153, 255);
glyphname = uni0417;
layers = (
{
layerId = "65F68577-51D6-4015-BE17-9540A8734A9C";
paths = (
{
closed = 1;
nodes = (
"115 165 LINE",
"119 131 OFFCURVE",
"161 87 OFFCURVE",
"220 61 OFFCURVE",
"286 51 OFFCURVE",
"314 51 QCURVE",
"350 51 OFFCURVE",
"419 63 OFFCURVE",
"473 95 OFFCURVE",
"507 150 OFFCURVE",
"507 193 QCURVE",
"507 237 OFFCURVE",
"473 291 OFFCURVE",
"418 320 OFFCURVE",
"348 330 OFFCURVE",
"312 330 QCURVE",
"218 330 LINE",
"218 390 LINE",
"287 390 LINE",
"325 390 OFFCURVE",
"400 407 OFFCURVE",
"429 431 QCURVE",
"451 448 OFFCURVE",
"479 498 OFFCURVE",
"479 526 QCURVE",
"479 563 OFFCURVE",
"451 614 OFFCURVE",
"428 629 QCURVE",
"404 644 OFFCURVE",
"345 656 OFFCURVE",
"313 656 QCURVE",
"286 656 OFFCURVE",
"226 647 OFFCURVE",
"199 634 QCURVE",
"174 621 OFFCURVE",
"137 578 OFFCURVE",
"134 546 QCURVE",
"68 546 LINE",
"69 599 OFFCURVE",
"133 672 OFFCURVE",
"178 691 QCURVE",
"212 706 OFFCURVE",
"285 715 OFFCURVE",
"317 715 QCURVE",
"355 715 OFFCURVE",
"426 702 OFFCURVE",
"456 686 QCURVE",
"494 666 OFFCURVE",
"542 595 OFFCURVE",
"542 539 QCURVE",
"542 482 OFFCURVE",
"479 389 OFFCURVE",
"424 372 QCURVE",
"494 358 OFFCURVE",
"574 264 OFFCURVE",
"574 192 QCURVE",
"574 141 OFFCURVE",
"533 65 OFFCURVE",
"498 41 QCURVE",
"460 14 OFFCURVE",
"364 -8 OFFCURVE",
"314 -8 QCURVE",
"272 -8 OFFCURVE",
"182 9 OFFCURVE",
"105 49 OFFCURVE",
"53 115 OFFCURVE",
"49 165 QCURVE"
);
}
);
width = 628;
}
);
leftKerningGroup = _kern7;
rightKerningGroup = _kern8;
unicode = 0417;
},
{
color = (166, 255, 153, 255);
glyphname = uni0418;
layers = (
{
layerId = "65F68577-51D6-4015-BE17-9540A8734A9C";
paths = (
{
closed = 1;
nodes = (
"92 0 LINE",
"92 707 LINE",
"157 707 LINE",
"157 86 LINE",
"563 707 LINE",
"646 707 LINE",
"646 0 LINE",
"581 0 LINE",
"581 616 LINE",
"175 0 LINE"
);
}
);
width = 738;
}
);
unicode = 0418;
},
{
color = (166, 255, 153, 255);
glyphname = uni0419;
layers = (
{
layerId = "65F68577-51D6-4015-BE17-9540A8734A9C";
paths = (
{
closed = 1;
nodes = (
"413 845 OFFCURVE",
"478 880 OFFCURVE",
"486 924 QCURVE",
"548 924 LINE",
"545 886 OFFCURVE",
"513 836 OFFCURVE",
"465 804 OFFCURVE",
"404 791 OFFCURVE",
"371 791 QCURVE",
"338 791 OFFCURVE",
"277 804 OFFCURVE",
"228 835 OFFCURVE",
"196 886 OFFCURVE",
"193 924 QCURVE",
"255 924 LINE",
"263 880 OFFCURVE",
"329 845 OFFCURVE",
"371 845 QCURVE"
);
},
{
closed = 1;
nodes = (
"92 0 LINE",
"92 707 LINE",
"157 707 LINE",
"157 86 LINE",
"563 707 LINE",
"646 707 LINE",
"646 0 LINE",
"581 0 LINE",
"581 616 LINE",
"175 0 LINE"
);
}
);
width = 738;
}
);
unicode = 0419;
},
{
color = (166, 255, 153, 255);
glyphname = uni041A;
layers = (
{
layerId = "65F68577-51D6-4015-BE17-9540A8734A9C";
paths = (
{
closed = 1;
nodes = (
"92 0 LINE",
"92 707 LINE",
"157 707 LINE",
"157 372 LINE",
"281 372 LINE",
"518 707 LINE",
"595 707 LINE",
"342 355 LINE",
"597 0 LINE",
"519 0 LINE",
"292 312 LINE",
"157 312 LINE",
"157 0 LINE"
);
}
);
width = 616;
}
);
unicode = 041A;
},
{
color = (166, 255, 153, 255);
glyphname = uni0423;
layers = (
{
layerId = "65F68577-51D6-4015-BE17-9540A8734A9C";
paths = (
{
closed = 1;
nodes = (
"107 63 LINE",
"142 64 OFFCURVE",
"193 76 OFFCURVE",
"215 90 QCURVE",
"236 104 OFFCURVE",
"269 147 OFFCURVE",
"286 177 QCURVE",
"20 707 LINE",
"100 707 LINE",
"325 245 LINE",
"512 707 LINE",
"587 707 LINE",
"557 641 OFFCURVE",
"503 509 OFFCURVE",
"449 376 OFFCURVE",
"393 244 OFFCURVE",
"360 179 QCURVE",
"340 140 OFFCURVE",
"294 68 OFFCURVE",
"258 41 QCURVE",
"225 16 OFFCURVE",
"149 -1 OFFCURVE",
"107 -1 QCURVE"
);
}
);
width = 589;
}
);
unicode = 0423;
},
{
color = (166, 255, 153, 255);
glyphname = uni0424;
layers = (
{
layerId = "65F68577-51D6-4015-BE17-9540A8734A9C";
paths = (
{
closed = 1;
nodes = (
"455 736 LINE",
"455 634 LINE",
"533 634 LINE",
"591 634 OFFCURVE",
"686 596 OFFCURVE",
"754 527 OFFCURVE",
"792 431 OFFCURVE",
"792 373 QCURVE",
"792 317 OFFCURVE",
"758 217 OFFCURVE",
"695 143 OFFCURVE",
"602 100 OFFCURVE",
"544 100 QCURVE",
"455 100 LINE",
"455 -20 LINE",
"390 -20 LINE",
"390 100 LINE",
"300 100 LINE",
"240 100 OFFCURVE",
"147 142 OFFCURVE",
"85 215 OFFCURVE",
"53 315 OFFCURVE",
"53 373 QCURVE",
"53 431 OFFCURVE",
"91 527 OFFCURVE",
"160 596 OFFCURVE",
"256 634 OFFCURVE",
"314 634 QCURVE",
"390 634 LINE",
"390 736 LINE"
);
},
{
closed = 1;
nodes = (
"390 155 LINE",
"390 578 LINE",
"318 578 LINE",
"272 578 OFFCURVE",
"199 548 OFFCURVE",
"147 495 OFFCURVE",
"119 420 OFFCURVE",
"119 375 QCURVE",
"119 327 OFFCURVE",
"143 247 OFFCURVE",
"192 188 OFFCURVE",
"267 155 OFFCURVE",
"318 155 QCURVE"
);
},
{
closed = 1;
nodes = (
"455 155 LINE",
"528 155 LINE",
"579 155 OFFCURVE",
"654 188 OFFCURVE",
"703 247 OFFCURVE",
"726 327 OFFCURVE",
"726 375 QCURVE",
"726 420 OFFCURVE",
"698 495 OFFCURVE",
"646 548 OFFCURVE",
"572 578 OFFCURVE",
"527 578 QCURVE",
"455 578 LINE"
);
}
);
width = 845;
}
);
leftKerningGroup = _kern7;
rightKerningGroup = _kern8;
unicode = 0424;
},
{
color = (166, 255, 153, 255);
glyphname = uni0426;
layers = (
{
layerId = "65F68577-51D6-4015-BE17-9540A8734A9C";
paths = (
{
closed = 1;
nodes = (
"92 0 LINE",
"92 707 LINE",
"157 707 LINE",
"157 60 LINE",
"552 60 LINE",
"552 707 LINE",
"617 707 LINE",
"617 60 LINE",
"705 60 LINE",
"705 -201 LINE",
"640 -201 LINE",
"640 0 LINE"
);
}
);
width = 729;
}
);
rightKerningGroup = _kern12;
unicode = 0426;
},
{
color = (166, 255, 153, 255);
glyphname = uni0427;
layers = (
{
layerId = "65F68577-51D6-4015-BE17-9540A8734A9C";
paths = (
{
closed = 1;
nodes = (
"376 315 OFFCURVE",
"449 320 OFFCURVE",
"491 325 QCURVE",
"491 707 LINE",
"556 707 LINE",
"556 0 LINE",
"491 0 LINE",
"491 266 LINE",
"453 261 OFFCURVE",
"381 256 OFFCURVE",
"343 256 QCURVE",
"318 256 OFFCURVE",
"266 258 OFFCURVE",
"215 266 OFFCURVE",
"166 283 OFFCURVE",
"144 297 QCURVE",
"121 312 OFFCURVE",
"91 355 OFFCURVE",
"75 405 OFFCURVE",
"69 458 OFFCURVE",
"69 484 QCURVE",
"69 707 LINE",
"134 707 LINE",
"134 504 LINE",
"134 462 OFFCURVE",
"148 384 OFFCURVE",
"181 354 QCURVE",
"196 341 OFFCURVE",
"233 326 OFFCURVE",
"274 318 OFFCURVE",
"315 315 OFFCURVE",
"334 315 QCURVE"
);
}
);
width = 648;
}
);
unicode = 0427;
},
{
color = (166, 255, 153, 255);
glyphname = uni0428;
layers = (
{
layerId = "65F68577-51D6-4015-BE17-9540A8734A9C";
paths = (
{
closed = 1;
nodes = (
"92 707 LINE",
"157 707 LINE",
"157 60 LINE",
"455 60 LINE",
"455 707 LINE",
"520 707 LINE",
"520 60 LINE",
"818 60 LINE",
"818 707 LINE",
"883 707 LINE",
"883 0 LINE",
"92 0 LINE"
);
}
);
width = 975;
}
);
unicode = 0428;
},
{
color = (166, 255, 153, 255);
glyphname = uni0429;
layers = (
{
layerId = "65F68577-51D6-4015-BE17-9540A8734A9C";
paths = (
{
closed = 1;
nodes = (
"92 707 LINE",
"157 707 LINE",
"157 60 LINE",
"455 60 LINE",
"455 707 LINE",
"520 707 LINE",
"520 60 LINE",
"818 60 LINE",
"818 707 LINE",
"883 707 LINE",
"883 60 LINE",
"971 60 LINE",
"971 -201 LINE",
"906 -201 LINE",
"906 0 LINE",
"92 0 LINE"
);
}
);
width = 995;
}
);
rightKerningGroup = _kern12;
unicode = 0429;
},
{
color = (166, 255, 153, 255);
glyphname = uni042A;
layers = (
{
layerId = "65F68577-51D6-4015-BE17-9540A8734A9C";
paths = (
{
closed = 1;
nodes = (
"185 647 LINE",
"19 647 LINE",
"19 707 LINE",
"250 707 LINE",
"250 407 LINE",
"385 407 LINE",
"436 407 OFFCURVE",
"538 396 OFFCURVE",
"620 357 OFFCURVE",
"672 280 OFFCURVE",
"673 214 QCURVE",
"674 153 OFFCURVE",
"631 71 OFFCURVE",
"558 21 OFFCURVE",
"461 0 OFFCURVE",
"407 0 QCURVE",
"185 0 LINE"
);
},
{
closed = 1;
nodes = (
"250 60 LINE",
"394 60 LINE",
"433 60 OFFCURVE",
"509 70 OFFCURVE",
"569 102 OFFCURVE",
"607 160 OFFCURVE",
"607 208 QCURVE",
"607 256 OFFCURVE",
"571 311 OFFCURVE",
"513 339 OFFCURVE",
"439 347 OFFCURVE",
"401 347 QCURVE",
"250 347 LINE"
);
}
);
width = 729;
}
);
unicode = 042A;
},
{
color = (166, 255, 153, 255);
glyphname = uni042B;
layers = (
{
layerId = "65F68577-51D6-4015-BE17-9540A8734A9C";
paths = (
{
closed = 1;
nodes = (
"92 707 LINE",
"157 707 LINE",
"157 407 LINE",
"270 407 LINE",
"322 407 OFFCURVE",
"425 396 OFFCURVE",
"507 356 OFFCURVE",
"558 280 OFFCURVE",
"558 214 QCURVE",
"558 153 OFFCURVE",
"515 71 OFFCURVE",
"442 21 OFFCURVE",
"346 0 OFFCURVE",
"292 0 QCURVE",
"92 0 LINE"
);
},
{
closed = 1;
nodes = (
"157 60 LINE",
"279 60 LINE",
"318 60 OFFCURVE",
"394 70 OFFCURVE",
"454 102 OFFCURVE",
"492 160 OFFCURVE",
"492 208 QCURVE",
"492 256 OFFCURVE",
"457 311 OFFCURVE",
"399 339 OFFCURVE",
"326 347 OFFCURVE",
"288 347 QCURVE",
"157 347 LINE"
);
},
{
closed = 1;
nodes = (
"665 0 LINE",
"665 707 LINE",
"730 707 LINE",
"730 0 LINE"
);
}
);
width = 822;
}
);
unicode = 042B;
},
{
color = (166, 255, 153, 255);
glyphname = uni042C;
layers = (
{
layerId = "65F68577-51D6-4015-BE17-9540A8734A9C";
paths = (
{
closed = 1;
nodes = (
"91 707 LINE",
"156 707 LINE",
"156 407 LINE",
"291 407 LINE",
"342 407 OFFCURVE",
"444 396 OFFCURVE",
"527 356 OFFCURVE",
"579 280 OFFCURVE",
"579 214 QCURVE",
"579 153 OFFCURVE",
"536 71 OFFCURVE",
"463 21 OFFCURVE",
"367 0 OFFCURVE",
"313 0 QCURVE",
"91 0 LINE"
);
},
{
closed = 1;
nodes = (
"156 60 LINE",
"300 60 LINE",
"339 60 OFFCURVE",
"415 70 OFFCURVE",
"475 102 OFFCURVE",
"513 160 OFFCURVE",
"513 208 QCURVE",
"513 256 OFFCURVE",
"477 311 OFFCURVE",
"418 339 OFFCURVE",
"344 347 OFFCURVE",
"306 347 QCURVE",
"156 347 LINE"
);
}
);
width = 634;
}
);
unicode = 042C;
},
{
color = (166, 255, 153, 255);
glyphname = uni042D;
layers = (
{
layerId = "65F68577-51D6-4015-BE17-9540A8734A9C";
paths = (
{
closed = 1;
nodes = (
"308 656 OFFCURVE",
"243 643 OFFCURVE",
"185 614 OFFCURVE",
"139 570 OFFCURVE",
"127 539 QCURVE",
"59 539 LINE",
"73 586 OFFCURVE",
"131 653 OFFCURVE",
"207 695 OFFCURVE",
"297 715 OFFCURVE",
"343 715 QCURVE",
"424 715 OFFCURVE",
"542 656 OFFCURVE",
"619 556 OFFCURVE",
"656 423 OFFCURVE",
"656 348 QCURVE",
"656 270 OFFCURVE",
"617 139 OFFCURVE",
"537 45 OFFCURVE",
"415 -8 OFFCURVE",
"333 -8 QCURVE",
"286 -8 OFFCURVE",
"198 12 OFFCURVE",
"124 54 OFFCURVE",
"68 121 OFFCURVE",
"53 168 QCURVE",
"126 168 LINE",
"138 136 OFFCURVE",
"184 92 OFFCURVE",
"242 64 OFFCURVE",
"306 51 OFFCURVE",
"338 51 QCURVE",
"401 51 OFFCURVE",
"493 92 OFFCURVE",
"555 165 OFFCURVE",
"586 265 OFFCURVE",
"588 324 QCURVE",
"227 324 LINE",
"227 384 LINE",
"588 384 LINE",
"585 439 OFFCURVE",
"551 538 OFFCURVE",
"489 612 OFFCURVE",
"399 656 OFFCURVE",
"339 656 QCURVE"
);
}
);
width = 709;
}
);
leftKerningGroup = _kern7;
rightKerningGroup = _kern8;
unicode = 042D;
},
{
color = (166, 255, 153, 255);
glyphname = uni042E;
layers = (
{
layerId = "65F68577-51D6-4015-BE17-9540A8734A9C";
paths = (
{
closed = 1;
nodes = (
"92 0 LINE",
"92 707 LINE",
"157 707 LINE",
"157 384 LINE",
"299 384 LINE",
"303 456 OFFCURVE",
"347 577 OFFCURVE",
"427 665 OFFCURVE",
"543 715 OFFCURVE",
"619 715 QCURVE",
"701 715 OFFCURVE",
"825 660 OFFCURVE",
"908 564 OFFCURVE",
"950 431 OFFCURVE",
"950 353 QCURVE",
"950 275 OFFCURVE",
"908 143 OFFCURVE",
"825 46 OFFCURVE",
"701 -8 OFFCURVE",
"619 -8 QCURVE",
"542 -8 OFFCURVE",
"426 42 OFFCURVE",
"346 130 OFFCURVE",
"303 252 OFFCURVE",
"299 324 QCURVE",
"157 324 LINE",
"157 0 LINE"
);
},
{
closed = 1;
nodes = (
"551 656 OFFCURVE",
"455 607 OFFCURVE",
"394 524 OFFCURVE",
"365 414 OFFCURVE",
"365 353 QCURVE",
"365 292 OFFCURVE",
"394 182 OFFCURVE",
"456 100 OFFCURVE",
"552 51 OFFCURVE",
"619 51 QCURVE",
"686 51 OFFCURVE",
"786 98 OFFCURVE",
"850 180 OFFCURVE",
"882 290 OFFCURVE",
"882 353 QCURVE",
"882 415 OFFCURVE",
"850 525 OFFCURVE",
"786 608 OFFCURVE",
"686 656 OFFCURVE",
"619 656 QCURVE"
);
}
);
width = 1003;
}
);
rightKerningGroup = _kern8;
unicode = 042E;
},
{
color = (166, 255, 153, 255);
glyphname = uni042F;
layers = (
{
layerId = "65F68577-51D6-4015-BE17-9540A8734A9C";
paths = (
{
closed = 1;
nodes = (
"148 0 LINE",
"72 0 LINE",
"227 283 LINE",
"60 318 OFFCURVE",
"60 488 QCURVE",
"60 548 OFFCURVE",
"97 631 OFFCURVE",
"165 684 OFFCURVE",
"257 707 OFFCURVE",
"313 707 QCURVE",
"571 707 LINE",
"571 0 LINE",
"506 0 LINE",
"506 274 LINE",
"293 274 LINE"
);
},
{
closed = 1;
nodes = (
"506 334 LINE",
"506 647 LINE",
"312 647 LINE",
"270 647 OFFCURVE",
"201 631 OFFCURVE",
"153 595 OFFCURVE",
"126 535 OFFCURVE",
"126 491 QCURVE",
"126 447 OFFCURVE",
"156 387 OFFCURVE",
"207 350 OFFCURVE",
"276 334 OFFCURVE",
"315 334 QCURVE"
);
}
);
width = 663;
}
);
unicode = 042F;
},
{
color = (166, 255, 153, 255);
glyphname = uni0440;
layers = (
{
layerId = "65F68577-51D6-4015-BE17-9540A8734A9C";
paths = (
{
closed = 1;
nodes = (
"138 -197 LINE",
"72 -197 LINE",
"72 527 LINE",
"138 527 LINE",
"138 437 LINE",
"162 474 OFFCURVE",
"198 498 QCURVE",
"228 517 OFFCURVE",
"293 533 OFFCURVE",
"331 533 QCURVE",
"393 533 OFFCURVE",
"481 487 OFFCURVE",
"537 409 OFFCURVE",
"561 306 OFFCURVE",
"560 250 QCURVE",
"558 182 OFFCURVE",
"515 72 OFFCURVE",
"470 38 QCURVE",
"443 17 OFFCURVE",
"368 -6 OFFCURVE",
"323 -6 QCURVE",
"297 -6 OFFCURVE",
"245 1 OFFCURVE",
"199 20 OFFCURVE",
"154 51 OFFCURVE",
"138 76 QCURVE"
);
},
{
closed = 1;
nodes = (
"366 50 OFFCURVE",
"432 84 OFFCURVE",
"474 143 OFFCURVE",
"494 220 OFFCURVE",
"494 262 QCURVE",
"494 305 OFFCURVE",
"475 384 OFFCURVE",
"433 442 OFFCURVE",
"366 477 OFFCURVE",
"317 477 QCURVE",
"273 477 OFFCURVE",
"202 438 OFFCURVE",
"179 407 QCURVE",
"156 378 OFFCURVE",
"136 303 OFFCURVE",
"136 262 QCURVE",
"136 213 OFFCURVE",
"167 115 OFFCURVE",
"208 84 QCURVE",
"254 50 OFFCURVE",
"319 50 QCURVE"
);
}
);
width = 609;
}
);
leftKerningGroup = _kern11;
rightKerningGroup = _kern10;
unicode = 0440;
},
{
color = (166, 255, 153, 255);
glyphname = O;
layers = (
{
layerId = "65F68577-51D6-4015-BE17-9540A8734A9C";
paths = (
{
closed = 1;
nodes = (
"302 -8 OFFCURVE",
"178 46 OFFCURVE",
"95 143 OFFCURVE",
"53 275 OFFCURVE",
"53 353 QCURVE",
"53 431 OFFCURVE",
"95 564 OFFCURVE",
"178 660 OFFCURVE",
"302 715 OFFCURVE",
"384 715 QCURVE",
"466 715 OFFCURVE",
"589 660 OFFCURVE",
"672 563 OFFCURVE",
"714 431 OFFCURVE",
"714 353 QCURVE",
"714 275 OFFCURVE",
"672 143 OFFCURVE",
"589 47 OFFCURVE",
"466 -8 OFFCURVE",
"384 -8 QCURVE"
);
},
{
closed = 1;
nodes = (
"317 656 OFFCURVE",
"217 608 OFFCURVE",
"151 525 OFFCURVE",
"119 415 OFFCURVE",
"119 353 QCURVE",
"119 291 OFFCURVE",
"152 181 OFFCURVE",
"218 99 OFFCURVE",
"317 51 OFFCURVE",
"384 51 QCURVE",
"451 51 OFFCURVE",
"551 98 OFFCURVE",
"615 180 OFFCURVE",
"647 290 OFFCURVE",
"647 353 QCURVE",
"647 415 OFFCURVE",
"615 525 OFFCURVE",
"550 608 OFFCURVE",
"451 656 OFFCURVE",
"384 656 QCURVE"
);
}
);
width = 767;
}
);
leftKerningGroup = _kern3;
rightKerningGroup = _kern4;
unicode = 004F;
},
{
color = (166, 255, 153, 255);
glyphname = a;
layers = (
{
layerId = "65F68577-51D6-4015-BE17-9540A8734A9C";
paths = (
{
closed = 1;
nodes = (
"430 76 LINE",
"392 30 OFFCURVE",
"295 -6 OFFCURVE",
"237 -6 QCURVE",
"202 -6 OFFCURVE",
"137 11 OFFCURVE",
"85 49 OFFCURVE",
"54 108 OFFCURVE",
"54 145 QCURVE",
"54 190 OFFCURVE",
"88 250 OFFCURVE",
"143 286 OFFCURVE",
"215 301 OFFCURVE",
"254 301 QCURVE",
"427 301 LINE",
"427 337 OFFCURVE",
"412 401 OFFCURVE",
"378 449 OFFCURVE",
"323 477 OFFCURVE",
"283 477 QCURVE",
"264 477 OFFCURVE",
"225 471 OFFCURVE",
"190 457 OFFCURVE",
"161 432 OFFCURVE",
"152 414 QCURVE",
"80 414 LINE",
"89 447 OFFCURVE",
"131 492 OFFCURVE",
"188 521 OFFCURVE",
"253 533 OFFCURVE",
"285 533 QCURVE",
"343 533 OFFCURVE",
"423 494 OFFCURVE",
"472 428 OFFCURVE",
"493 338 OFFCURVE",
"493 286 QCURVE",
"493 0 LINE",
"439 0 LINE"
);
},
{
closed = 1;
nodes = (
"288 248 LINE",
"262 248 OFFCURVE",
"203 244 OFFCURVE",
"153 225 OFFCURVE",
"120 186 OFFCURVE",
"120 152 QCURVE",
"120 125 OFFCURVE",
"141 87 OFFCURVE",
"176 61 OFFCURVE",
"221 49 OFFCURVE",
"245 49 QCURVE",
"284 49 OFFCURVE",
"351 69 OFFCURVE",
"400 110 OFFCURVE",
"427 171 OFFCURVE",
"427 212 QCURVE",
"427 248 LINE"
);
}
);
width = 563;
}
);
leftKerningGroup = _kern27;
rightKerningGroup = _kern27;
unicode = 0061;
},
{
color = (166, 255, 153, 255);
glyphname = c;
layers = (
{
layerId = "65F68577-51D6-4015-BE17-9540A8734A9C";
paths = (
{
closed = 1;
nodes = (
"237 -6 OFFCURVE",
"145 34 OFFCURVE",
"83 106 OFFCURVE",
"52 204 OFFCURVE",
"52 262 QCURVE",
"52 322 OFFCURVE",
"84 421 OFFCURVE",
"148 493 OFFCURVE",
"242 533 OFFCURVE",
"304 533 QCURVE",
"376 533 OFFCURVE",
"485 463 OFFCURVE",
"504 391 QCURVE",
"437 391 LINE",
"423 435 OFFCURVE",
"346 477 OFFCURVE",
"300 477 QCURVE",
"253 477 OFFCURVE",
"184 443 OFFCURVE",
"139 384 OFFCURVE",
"117 306 OFFCURVE",
"117 262 QCURVE",
"117 219 OFFCURVE",
"139 142 OFFCURVE",
"184 84 OFFCURVE",
"255 50 OFFCURVE",
"303 50 QCURVE",
"351 50 OFFCURVE",
"427 86 OFFCURVE",
"444 135 QCURVE",
"512 135 LINE",
"501 98 OFFCURVE",
"459 45 OFFCURVE",
"402 10 OFFCURVE",
"334 -6 OFFCURVE",
"299 -6 QCURVE"
);
}
);
width = 558;
}
);
leftKerningGroup = _kern5;
rightKerningGroup = _kern6;
unicode = 0063;
},
{
color = (166, 255, 153, 255);
glyphname = e;
layers = (
{
layerId = "65F68577-51D6-4015-BE17-9540A8734A9C";
paths = (
{
closed = 1;
nodes = (
"117 242 LINE",
"119 200 OFFCURVE",
"144 130 OFFCURVE",
"190 79 OFFCURVE",
"257 50 OFFCURVE",
"302 50 QCURVE",
"323 50 OFFCURVE",
"366 58 OFFCURVE",
"405 75 OFFCURVE",
"437 103 OFFCURVE",
"446 124 QCURVE",
"515 124 LINE",
"504 89 OFFCURVE",
"459 39 OFFCURVE",
"401 8 OFFCURVE",
"333 -6 OFFCURVE",
"299 -6 QCURVE",
"237 -6 OFFCURVE",
"144 34 OFFCURVE",
"82 105 OFFCURVE",
"52 204 OFFCURVE",
"52 263 QCURVE",
"52 323 OFFCURVE",
"84 423 OFFCURVE",
"147 494 OFFCURVE",
"240 533 OFFCURVE",
"300 533 QCURVE",
"363 533 OFFCURVE",
"450 483 OFFCURVE",
"504 402 OFFCURVE",
"527 297 OFFCURVE",
"525 242 QCURVE"
);
},
{
closed = 1;
nodes = (
"458 297 LINE",
"457 333 OFFCURVE",
"436 399 OFFCURVE",
"395 448 OFFCURVE",
"333 477 OFFCURVE",
"292 477 QCURVE",
"251 477 OFFCURVE",
"188 447 OFFCURVE",
"144 397 OFFCURVE",
"120 332 OFFCURVE",
"118 297 QCURVE"
);
}
);
width = 577;
}
);
leftKerningGroup = _kern5;
rightKerningGroup = _kern6;
unicode = 0065;
},
{
color = (166, 255, 153, 255);
glyphname = f;
layers = (
{
layerId = "65F68577-51D6-4015-BE17-9540A8734A9C";
paths = (
{
closed = 1;
nodes = (
"126 472 LINE",
"37 472 LINE",
"37 527 LINE",
"126 527 LINE",
"126 580 LINE",
"126 617 OFFCURVE",
"132 674 OFFCURVE",
"145 697 QCURVE",
"163 729 OFFCURVE",
"228 762 OFFCURVE",
"288 762 QCURVE",
"339 762 LINE",
"339 707 LINE",
"295 707 LINE",
"272 707 OFFCURVE",
"227 700 OFFCURVE",
"212 681 QCURVE",
"197 661 OFFCURVE",
"192 610 OFFCURVE",
"192 575 QCURVE",
"192 527 LINE",
"339 527 LINE",
"339 472 LINE",
"192 472 LINE",
"192 0 LINE",
"127 0 LINE",
"126 0 LINE"
);
}
);
width = 366;
}
);
unicode = 0066;
},
{
color = (166, 255, 153, 255);
glyphname = g;
layers = (
{
layerId = "65F68577-51D6-4015-BE17-9540A8734A9C";
paths = (
{
closed = 1;
nodes = (
"479 527 LINE",
"541 527 LINE",
"541 17 LINE",
"541 -49 OFFCURVE",
"515 -142 OFFCURVE",
"458 -209 OFFCURVE",
"367 -245 OFFCURVE",
"303 -245 QCURVE",
"264 -245 OFFCURVE",
"194 -230 OFFCURVE",
"137 -196 OFFCURVE",
"96 -143 OFFCURVE",
"86 -105 QCURVE",
"154 -105 LINE",
"162 -129 OFFCURVE",
"195 -161 OFFCURVE",
"237 -180 OFFCURVE",
"284 -189 OFFCURVE",
"307 -189 QCURVE",
"358 -189 OFFCURVE",
"423 -158 OFFCURVE",
"460 -102 OFFCURVE",
"475 -27 OFFCURVE",
"475 18 QCURVE",
"475 84 LINE",
"442 36 OFFCURVE",
"345 -6 OFFCURVE",
"285 -6 QCURVE",
"222 -6 OFFCURVE",
"131 40 OFFCURVE",
"76 118 OFFCURVE",
"51 221 OFFCURVE",
"53 277 QCURVE",
"54 332 OFFCURVE",
"87 425 OFFCURVE",
"147 494 OFFCURVE",
"237 533 OFFCURVE",
"295 533 QCURVE",
"350 533 OFFCURVE",
"444 495 OFFCURVE",
"475 452 QCURVE"
);
},
{
closed = 1;
nodes = (
"247 477 OFFCURVE",
"181 442 OFFCURVE",
"139 383 OFFCURVE",
"119 307 OFFCURVE",
"119 265 QCURVE",
"119 221 OFFCURVE",
"138 143 OFFCURVE",
"180 85 OFFCURVE",
"247 50 OFFCURVE",
"296 50 QCURVE",
"340 50 OFFCURVE",
"411 89 OFFCURVE",
"434 119 QCURVE",
"457 149 OFFCURVE",
"477 224 OFFCURVE",
"477 265 QCURVE",
"477 314 OFFCURVE",
"446 411 OFFCURVE",
"405 442 QCURVE",
"358 477 OFFCURVE",
"294 477 QCURVE"
);
}
);
width = 613;
}
);
leftKerningGroup = _kern5;
unicode = 0067;
},
{
color = (166, 255, 153, 255);
glyphname = j;
layers = (
{
layerId = "65F68577-51D6-4015-BE17-9540A8734A9C";
paths = (
{
closed = 1;
nodes = (
"160 717 OFFCURVE",
"187 691 OFFCURVE",
"187 669 QCURVE",
"187 646 OFFCURVE",
"160 620 OFFCURVE",
"137 620 QCURVE",
"115 620 OFFCURVE",
"88 646 OFFCURVE",
"88 669 QCURVE",
"88 692 OFFCURVE",
"115 717 OFFCURVE",
"137 717 QCURVE"
);
},
{
closed = 1;
nodes = (
"171 0 LINE",
"171 -19 OFFCURVE",
"170 -59 OFFCURVE",
"162 -98 OFFCURVE",
"147 -133 OFFCURVE",
"134 -148 QCURVE",
"98 -187 OFFCURVE",
"10 -187 QCURVE",
"-26 -187 LINE",
"-26 -132 LINE",
"-1 -132 LINE",
"19 -132 OFFCURVE",
"66 -122 OFFCURVE",
"80 -107 QCURVE",
"95 -92 OFFCURVE",
"105 -45 OFFCURVE",
"105 2 QCURVE",
"105 527 LINE",
"171 527 LINE"
);
}
);
width = 251;
}
);
unicode = 006A;
},
{
color = (166, 255, 153, 255);
glyphname = o;
layers = (
{
layerId = "65F68577-51D6-4015-BE17-9540A8734A9C";
paths = (
{
closed = 1;
nodes = (
"349 50 OFFCURVE",
"419 83 OFFCURVE",
"464 141 OFFCURVE",
"485 219 OFFCURVE",
"485 263 QCURVE",
"485 307 OFFCURVE",
"464 385 OFFCURVE",
"419 443 OFFCURVE",
"349 477 OFFCURVE",
"301 477 QCURVE",
"253 477 OFFCURVE",
"183 443 OFFCURVE",
"138 385 OFFCURVE",
"117 307 OFFCURVE",
"117 263 QCURVE",
"117 219 OFFCURVE",
"138 141 OFFCURVE",
"183 83 OFFCURVE",
"253 50 OFFCURVE",
"301 50 QCURVE"
);
},
{
closed = 1;
nodes = (
"363 533 OFFCURVE",
"456 493 OFFCURVE",
"519 421 OFFCURVE",
"551 322 OFFCURVE",
"551 263 QCURVE",
"551 204 OFFCURVE",
"519 105 OFFCURVE",
"456 34 OFFCURVE",
"363 -6 OFFCURVE",
"301 -6 QCURVE",
"239 -6 OFFCURVE",
"146 34 OFFCURVE",
"83 105 OFFCURVE",
"52 204 OFFCURVE",
"52 263 QCURVE",
"52 322 OFFCURVE",
"83 421 OFFCURVE",
"146 493 OFFCURVE",
"239 533 OFFCURVE",
"301 533 QCURVE"
);
}
);
width = 603;
}
);
leftKerningGroup = _kern5;
rightKerningGroup = _kern6;
unicode = 006F;
},
{
color = (166, 255, 153, 255);
glyphname = r;
layers = (
{
layerId = "65F68577-51D6-4015-BE17-9540A8734A9C";
paths = (
{
closed = 1;
nodes = (
"72 0 LINE",
"72 527 LINE",
"136 527 LINE",
"138 436 LINE",
"156 466 OFFCURVE",
"201 504 OFFCURVE",
"255 526 OFFCURVE",
"315 533 OFFCURVE",
"348 532 QCURVE",
"348 472 LINE",
"330 472 LINE",
"282 472 OFFCURVE",
"212 443 OFFCURVE",
"189 418 QCURVE",
"157 385 OFFCURVE",
"138 303 OFFCURVE",
"138 258 QCURVE",
"138 0 LINE"
);
}
);
width = 370;
}
);
leftKerningGroup = _kern29;
rightKerningGroup = _kern29;
unicode = 0072;
},
{
color = (166, 255, 153, 255);
glyphname = t;
layers = (
{
layerId = "65F68577-51D6-4015-BE17-9540A8734A9C";
paths = (
{
closed = 1;
nodes = (
"189 527 LINE",
"336 527 LINE",
"336 471 LINE",
"189 471 LINE",
"189 175 LINE",
"189 148 OFFCURVE",
"200 88 OFFCURVE",
"225 72 QCURVE",
"238 64 OFFCURVE",
"274 57 OFFCURVE",
"291 57 QCURVE",
"331 57 LINE",
"331 0 LINE",
"285 0 LINE",
"251 0 OFFCURVE",
"184 16 OFFCURVE",
"159 41 QCURVE",
"140 61 OFFCURVE",
"123 128 OFFCURVE",
"123 171 QCURVE",
"123 471 LINE",
"34 471 LINE",
"34 527 LINE",
"123 527 LINE",
"123 678 LINE",
"189 678 LINE"
);
}
);
width = 370;
}
);
leftKerningGroup = _kern21;
rightKerningGroup = _kern21;
unicode = 0074;
},
{
color = (166, 255, 153, 255);
glyphname = y2_alt;
layers = (
{
layerId = "65F68577-51D6-4015-BE17-9540A8734A9C";
paths = (
{
closed = 1;
nodes = (
"455 527 LINE",
"531 527 LINE",
"355 28 LINE",
"347 5 OFFCURVE",
"323 -55 OFFCURVE",
"294 -115 OFFCURVE",
"261 -169 OFFCURVE",
"244 -185 QCURVE",
"212 -216 OFFCURVE",
"139 -235 OFFCURVE",
"88 -235 QCURVE",
"88 -172 LINE",
"106 -172 OFFCURVE",
"138 -170 OFFCURVE",
"151 -165 QCURVE",
"173 -158 OFFCURVE",
"206 -129 OFFCURVE",
"232 -93 OFFCURVE",
"252 -52 OFFCURVE",
"260 -32 QCURVE",
"22 527 LINE",
"101 527 LINE",
"298 52 LINE"
);
}
);
width = 548;
}
);
},
{
color = (166, 255, 153, 255);
glyphname = uni0443;
layers = (
{
layerId = "65F68577-51D6-4015-BE17-9540A8734A9C";
paths = (
{
closed = 1;
nodes = (
"450 527 LINE",
"526 527 LINE",
"350 28 LINE",
"342 5 OFFCURVE",
"318 -55 OFFCURVE",
"289 -115 OFFCURVE",
"256 -169 OFFCURVE",
"239 -185 QCURVE",
"207 -217 OFFCURVE",
"134 -235 OFFCURVE",
"83 -235 QCURVE",
"83 -172 LINE",
"101 -172 OFFCURVE",
"133 -170 OFFCURVE",
"146 -165 QCURVE",
"168 -158 OFFCURVE",
"201 -129 OFFCURVE",
"227 -93 OFFCURVE",
"247 -52 OFFCURVE",
"255 -32 QCURVE",
"22 527 LINE",
"101 527 LINE",
"293 52 LINE"
);
}
);
width = 543;
}
);
unicode = 0443;
},
{
color = (166, 255, 153, 255);
glyphname = uni0451;
layers = (
{
layerId = "65F68577-51D6-4015-BE17-9540A8734A9C";
paths = (
{
closed = 1;
nodes = (
"198 705 OFFCURVE",
"228 678 OFFCURVE",
"228 657 QCURVE",
"228 636 OFFCURVE",
"198 609 OFFCURVE",
"178 609 QCURVE",
"158 609 OFFCURVE",
"129 637 OFFCURVE",
"129 657 QCURVE",
"129 677 OFFCURVE",
"158 705 OFFCURVE",
"178 705 QCURVE"
);
},
{
closed = 1;
nodes = (
"428 705 OFFCURVE",
"458 678 OFFCURVE",
"458 657 QCURVE",
"458 636 OFFCURVE",
"428 609 OFFCURVE",
"408 609 QCURVE",
"388 609 OFFCURVE",
"360 637 OFFCURVE",
"360 657 QCURVE",
"360 677 OFFCURVE",
"388 705 OFFCURVE",
"408 705 QCURVE"
);
},
{
closed = 1;
nodes = (
"117 242 LINE",
"119 200 OFFCURVE",
"144 130 OFFCURVE",
"190 79 OFFCURVE",
"257 50 OFFCURVE",
"302 50 QCURVE",
"323 50 OFFCURVE",
"366 58 OFFCURVE",
"405 75 OFFCURVE",
"437 103 OFFCURVE",
"446 124 QCURVE",
"515 124 LINE",
"504 89 OFFCURVE",
"459 39 OFFCURVE",
"401 8 OFFCURVE",
"333 -6 OFFCURVE",
"299 -6 QCURVE",
"237 -6 OFFCURVE",
"144 34 OFFCURVE",
"82 105 OFFCURVE",
"52 204 OFFCURVE",
"52 263 QCURVE",
"52 324 OFFCURVE",
"84 423 OFFCURVE",
"147 494 OFFCURVE",
"241 533 OFFCURVE",
"302 533 QCURVE",
"365 533 OFFCURVE",
"451 483 OFFCURVE",
"505 402 OFFCURVE",
"527 297 OFFCURVE",
"525 242 QCURVE"
);
},
{
closed = 1;
nodes = (
"458 297 LINE",
"457 333 OFFCURVE",
"436 399 OFFCURVE",
"395 448 OFFCURVE",
"334 477 OFFCURVE",
"293 477 QCURVE",
"252 477 OFFCURVE",
"188 448 OFFCURVE",
"144 398 OFFCURVE",
"120 333 OFFCURVE",
"118 297 QCURVE"
);
}
);
width = 577;
}
);
leftKerningGroup = _kern9;
rightKerningGroup = _kern10;
unicode = 0451;
},
{
color = (166, 255, 153, 255);
glyphname = uni0437;
layers = (
{
layerId = "65F68577-51D6-4015-BE17-9540A8734A9C";
paths = (
{
closed = 1;
nodes = (
"421 264 OFFCURVE",
"470 200 OFFCURVE",
"470 147 QCURVE",
"470 102 OFFCURVE",
"432 43 OFFCURVE",
"372 8 OFFCURVE",
"296 -6 OFFCURVE",
"259 -6 QCURVE",
"226 -6 OFFCURVE",
"153 5 OFFCURVE",
"90 34 OFFCURVE",
"46 85 OFFCURVE",
"42 125 QCURVE",
"107 125 LINE",
"113 102 OFFCURVE",
"148 73 OFFCURVE",
"193 57 OFFCURVE",
"241 50 OFFCURVE",
"260 50 QCURVE",
"285 50 OFFCURVE",
"336 58 OFFCURVE",
"378 79 OFFCURVE",
"405 117 OFFCURVE",
"405 147 QCURVE",
"405 177 OFFCURVE",
"380 213 OFFCURVE",
"341 232 OFFCURVE",
"291 238 OFFCURVE",
"266 238 QCURVE",
"172 238 LINE",
"172 293 LINE",
"240 293 LINE",
"263 293 OFFCURVE",
"311 299 OFFCURVE",
"331 309 QCURVE",
"353 320 OFFCURVE",
"384 360 OFFCURVE",
"384 389 QCURVE",
"384 414 OFFCURVE",
"361 448 OFFCURVE",
"325 468 OFFCURVE",
"281 477 OFFCURVE",
"260 477 QCURVE",
"241 477 OFFCURVE",
"198 472 OFFCURVE",
"160 456 OFFCURVE",
"131 428 OFFCURVE",
"126 406 QCURVE",
"61 406 LINE",
"64 443 OFFCURVE",
"104 492 OFFCURVE",
"161 521 OFFCURVE",
"228 533 OFFCURVE",
"259 533 QCURVE",
"291 533 OFFCURVE",
"358 520 OFFCURVE",
"412 489 OFFCURVE",
"447 436 OFFCURVE",
"447 397 QCURVE",
"447 354 OFFCURVE",
"409 293 OFFCURVE",
"368 278 QCURVE"
);
}
);
width = 518;
}
);
leftKerningGroup = _kern9;
rightKerningGroup = _kern10;
unicode = 0437;
},
{
color = (166, 255, 153, 255);
glyphname = uni044D;
layers = (
{
layerId = "65F68577-51D6-4015-BE17-9540A8734A9C";
paths = (
{
closed = 1;
nodes = (
"438 289 LINE",
"436 327 OFFCURVE",
"413 396 OFFCURVE",
"371 447 OFFCURVE",
"308 477 OFFCURVE",
"266 477 QCURVE",
"243 477 OFFCURVE",
"196 468 OFFCURVE",
"155 448 OFFCURVE",
"122 416 OFFCURVE",
"114 392 QCURVE",
"50 392 LINE",
"60 429 OFFCURVE",
"103 482 OFFCURVE",
"160 517 OFFCURVE",
"229 533 OFFCURVE",
"265 533 QCURVE",
"327 533 OFFCURVE",
"417 492 OFFCURVE",
"476 420 OFFCURVE",
"504 321 OFFCURVE",
"504 263 QCURVE",
"504 204 OFFCURVE",
"475 105 OFFCURVE",
"416 34 OFFCURVE",
"325 -6 OFFCURVE",
"262 -6 QCURVE",
"225 -6 OFFCURVE",
"156 10 OFFCURVE",
"97 44 OFFCURVE",
"54 97 OFFCURVE",
"44 135 QCURVE",
"112 135 LINE",
"120 111 OFFCURVE",
"153 79 OFFCURVE",
"196 59 OFFCURVE",
"243 50 OFFCURVE",
"266 50 QCURVE",
"308 50 OFFCURVE",
"371 79 OFFCURVE",
"414 128 OFFCURVE",
"436 195 OFFCURVE",
"437 234 QCURVE",
"177 234 LINE",
"177 289 LINE"
);
}
);
width = 552;
}
);
leftKerningGroup = _kern9;
rightKerningGroup = _kern10;
unicode = 044D;
},
{
color = (166, 255, 153, 255);
glyphname = C;
layers = (
{
layerId = "65F68577-51D6-4015-BE17-9540A8734A9C";
paths = (
{
closed = 1;
nodes = (
"309 656 OFFCURVE",
"212 608 OFFCURVE",
"150 525 OFFCURVE",
"120 416 OFFCURVE",
"120 355 QCURVE",
"120 293 OFFCURVE",
"150 183 OFFCURVE",
"213 100 OFFCURVE",
"310 51 OFFCURVE",
"378 51 QCURVE",
"409 51 OFFCURVE",
"473 64 OFFCURVE",
"529 93 OFFCURVE",
"573 137 OFFCURVE",
"585 168 QCURVE",
"658 168 LINE",
"643 121 OFFCURVE",
"586 54 OFFCURVE",
"511 12 OFFCURVE",
"422 -8 OFFCURVE",
"376 -8 QCURVE",
"293 -8 OFFCURVE",
"171 47 OFFCURVE",
"92 143 OFFCURVE",
"53 275 OFFCURVE",
"53 353 QCURVE",
"53 430 OFFCURVE",
"93 563 OFFCURVE",
"174 660 OFFCURVE",
"296 715 OFFCURVE",
"378 715 QCURVE",
"424 715 OFFCURVE",
"509 695 OFFCURVE",
"580 653 OFFCURVE",
"631 586 OFFCURVE",
"645 539 QCURVE",
"579 539 LINE",
"567 570 OFFCURVE",
"524 614 OFFCURVE",
"470 643 OFFCURVE",
"408 656 OFFCURVE",
"377 656 QCURVE"
);
}
);
width = 705;
}
);
leftKerningGroup = _kern3;
rightKerningGroup = _kern4;
unicode = 0043;
},
{
color = (166, 255, 153, 255);
glyphname = S;
layers = (
{
layerId = "65F68577-51D6-4015-BE17-9540A8734A9C";
paths = (
{
closed = 1;
nodes = (
"300 656 OFFCURVE",
"237 645 OFFCURVE",
"186 616 OFFCURVE",
"154 567 OFFCURVE",
"154 530 QCURVE",
"154 500 OFFCURVE",
"175 457 OFFCURVE",
"211 426 OFFCURVE",
"258 406 OFFCURVE",
"284 399 QCURVE",
"324 388 OFFCURVE",
"400 371 OFFCURVE",
"441 360 QCURVE",
"472 351 OFFCURVE",
"526 325 OFFCURVE",
"566 286 OFFCURVE",
"589 233 OFFCURVE",
"589 198 QCURVE",
"589 142 OFFCURVE",
"549 63 OFFCURVE",
"482 14 OFFCURVE",
"392 -8 OFFCURVE",
"341 -8 QCURVE",
"294 -8 OFFCURVE",
"206 10 OFFCURVE",
"131 52 OFFCURVE",
"75 119 OFFCURVE",
"62 168 QCURVE",
"132 168 LINE",
"145 135 OFFCURVE",
"191 90 OFFCURVE",
"250 63 OFFCURVE",
"315 51 OFFCURVE",
"348 51 QCURVE",
"379 51 OFFCURVE",
"441 65 OFFCURVE",
"491 96 OFFCURVE",
"522 146 OFFCURVE",
"522 182 QCURVE",
"522 211 OFFCURVE",
"502 252 OFFCURVE",
"468 282 OFFCURVE",
"422 301 OFFCURVE",
"396 307 QCURVE",
"356 317 OFFCURVE",
"279 333 OFFCURVE",
"239 344 QCURVE",
"171 362 OFFCURVE",
"86 448 OFFCURVE",
"86 522 QCURVE",
"86 576 OFFCURVE",
"127 649 OFFCURVE",
"196 695 OFFCURVE",
"284 715 OFFCURVE",
"331 715 QCURVE",
"374 715 OFFCURVE",
"454 696 OFFCURVE",
"519 655 OFFCURVE",
"563 590 OFFCURVE",
"569 543 QCURVE",
"503 543 LINE",
"497 576 OFFCURVE",
"464 619 OFFCURVE",
"417 645 OFFCURVE",
"361 656 OFFCURVE",
"331 656 QCURVE"
);
}
);
width = 652;
}
);
leftKerningGroup = _kern3;
rightKerningGroup = _kern4;
unicode = 0053;
},
{
color = (166, 255, 153, 255);
glyphname = uni0421;
layers = (
{
layerId = "65F68577-51D6-4015-BE17-9540A8734A9C";
paths = (
{
closed = 1;
nodes = (
"310 655 OFFCURVE",
"212 608 OFFCURVE",
"150 525 OFFCURVE",
"120 416 OFFCURVE",
"120 355 QCURVE",
"120 293 OFFCURVE",
"150 183 OFFCURVE",
"213 100 OFFCURVE",
"310 51 OFFCURVE",
"378 51 QCURVE",
"409 51 OFFCURVE",
"473 64 OFFCURVE",
"529 93 OFFCURVE",
"573 137 OFFCURVE",
"585 168 QCURVE",
"658 168 LINE",
"643 121 OFFCURVE",
"586 54 OFFCURVE",
"511 12 OFFCURVE",
"422 -8 OFFCURVE",
"376 -8 QCURVE",
"293 -8 OFFCURVE",
"171 47 OFFCURVE",
"92 143 OFFCURVE",
"53 275 OFFCURVE",
"53 353 QCURVE",
"53 430 OFFCURVE",
"93 563 OFFCURVE",
"174 660 OFFCURVE",
"297 715 OFFCURVE",
"378 715 QCURVE",
"424 715 OFFCURVE",
"509 695 OFFCURVE",
"580 652 OFFCURVE",
"631 586 OFFCURVE",
"645 539 QCURVE",
"579 539 LINE",
"567 570 OFFCURVE",
"524 614 OFFCURVE",
"470 643 OFFCURVE",
"408 656 OFFCURVE",
"377 656 QCURVE"
);
}
);
width = 711;
}
);
leftKerningGroup = _kern7;
rightKerningGroup = _kern8;
unicode = 0421;
},
{
color = (166, 255, 153, 255);
glyphname = G;
layers = (
{
layerId = "65F68577-51D6-4015-BE17-9540A8734A9C";
paths = (
{
closed = 1;
nodes = (
"306 656 OFFCURVE",
"209 605 OFFCURVE",
"148 520 OFFCURVE",
"120 409 OFFCURVE",
"121 349 QCURVE",
"122 288 OFFCURVE",
"152 180 OFFCURVE",
"214 99 OFFCURVE",
"310 51 OFFCURVE",
"377 51 QCURVE",
"432 51 OFFCURVE",
"519 85 OFFCURVE",
"579 146 OFFCURVE",
"612 233 OFFCURVE",
"613 286 QCURVE",
"373 286 LINE",
"373 346 LINE",
"673 346 LINE",
"673 296 LINE",
"673 228 OFFCURVE",
"631 117 OFFCURVE",
"554 36 OFFCURVE",
"444 -8 OFFCURVE",
"376 -8 QCURVE",
"295 -8 OFFCURVE",
"175 45 OFFCURVE",
"95 139 OFFCURVE",
"55 268 OFFCURVE",
"54 344 QCURVE",
"53 420 OFFCURVE",
"90 556 OFFCURVE",
"169 656 OFFCURVE",
"290 715 OFFCURVE",
"374 715 QCURVE",
"421 715 OFFCURVE",
"508 695 OFFCURVE",
"581 653 OFFCURVE",
"636 586 OFFCURVE",
"651 539 QCURVE",
"578 539 LINE",
"566 570 OFFCURVE",
"523 614 OFFCURVE",
"468 642 OFFCURVE",
"406 656 OFFCURVE",
"375 656 QCURVE"
);
}
);
width = 726;
}
);
leftKerningGroup = _kern3;
rightKerningGroup = _kern4;
unicode = 0047;
},
{
color = (166, 255, 153, 255);
glyphname = uni041E;
layers = (
{
layerId = "65F68577-51D6-4015-BE17-9540A8734A9C";
paths = (
{
closed = 1;
nodes = (
"302 -8 OFFCURVE",
"178 46 OFFCURVE",
"95 143 OFFCURVE",
"53 275 OFFCURVE",
"53 353 QCURVE",
"53 431 OFFCURVE",
"95 564 OFFCURVE",
"178 660 OFFCURVE",
"302 715 OFFCURVE",
"384 715 QCURVE",
"466 715 OFFCURVE",
"589 660 OFFCURVE",
"672 563 OFFCURVE",
"714 431 OFFCURVE",
"714 353 QCURVE",
"714 275 OFFCURVE",
"672 143 OFFCURVE",
"589 47 OFFCURVE",
"466 -8 OFFCURVE",
"384 -8 QCURVE"
);
},
{
closed = 1;
nodes = (
"317 656 OFFCURVE",
"217 608 OFFCURVE",
"151 525 OFFCURVE",
"119 415 OFFCURVE",
"119 353 QCURVE",
"119 291 OFFCURVE",
"152 181 OFFCURVE",
"218 99 OFFCURVE",
"317 51 OFFCURVE",
"384 51 QCURVE",
"451 51 OFFCURVE",
"551 98 OFFCURVE",
"615 180 OFFCURVE",
"647 290 OFFCURVE",
"647 353 QCURVE",
"647 415 OFFCURVE",
"615 525 OFFCURVE",
"550 608 OFFCURVE",
"451 656 OFFCURVE",
"384 656 QCURVE"
);
}
);
width = 767;
}
);
leftKerningGroup = _kern7;
rightKerningGroup = _kern8;
unicode = 041E;
},
{
color = (166, 255, 153, 255);
glyphname = Q;
layers = (
{
layerId = "65F68577-51D6-4015-BE17-9540A8734A9C";
paths = (
{
closed = 1;
nodes = (
"302 -8 OFFCURVE",
"178 46 OFFCURVE",
"95 143 OFFCURVE",
"53 275 OFFCURVE",
"53 353 QCURVE",
"53 431 OFFCURVE",
"95 564 OFFCURVE",
"178 660 OFFCURVE",
"302 715 OFFCURVE",
"384 715 QCURVE",
"466 715 OFFCURVE",
"589 660 OFFCURVE",
"672 563 OFFCURVE",
"714 431 OFFCURVE",
"714 353 QCURVE",
"714 259 OFFCURVE",
"653 106 OFFCURVE",
"592 58 QCURVE",
"700 -92 LINE",
"647 -131 LINE",
"536 23 LINE",
"469 -8 OFFCURVE",
"384 -8 QCURVE"
);
},
{
closed = 1;
nodes = (
"317 656 OFFCURVE",
"217 608 OFFCURVE",
"151 525 OFFCURVE",
"119 415 OFFCURVE",
"119 353 QCURVE",
"119 291 OFFCURVE",
"152 181 OFFCURVE",
"218 99 OFFCURVE",
"317 51 OFFCURVE",
"384 51 QCURVE",
"451 51 OFFCURVE",
"551 98 OFFCURVE",
"615 180 OFFCURVE",
"647 290 OFFCURVE",
"647 353 QCURVE",
"647 415 OFFCURVE",
"615 525 OFFCURVE",
"550 608 OFFCURVE",
"451 656 OFFCURVE",
"384 656 QCURVE"
);
}
);
width = 767;
}
);
leftKerningGroup = _kern3;
rightKerningGroup = _kern4;
unicode = 0051;
},
{
color = (166, 255, 153, 255);
glyphname = J;
layers = (
{
layerId = "65F68577-51D6-4015-BE17-9540A8734A9C";
paths = (
{
closed = 1;
nodes = (
"115 179 LINE",
"123 113 OFFCURVE",
"200 51 OFFCURVE",
"265 51 QCURVE",
"310 51 OFFCURVE",
"365 82 OFFCURVE",
"395 134 OFFCURVE",
"405 203 OFFCURVE",
"405 241 QCURVE",
"405 707 LINE",
"470 707 LINE",
"470 239 LINE",
"470 192 OFFCURVE",
"452 103 OFFCURVE",
"406 34 OFFCURVE",
"322 -8 OFFCURVE",
"260 -8 QCURVE",
"169 -8 OFFCURVE",
"58 80 OFFCURVE",
"47 179 QCURVE"
);
}
);
width = 557;
}
);
unicode = 004A;
},
{
color = (166, 255, 153, 255);
glyphname = K_alt;
layers = (
{
layerId = "65F68577-51D6-4015-BE17-9540A8734A9C";
paths = (
{
closed = 1;
nodes = (
"92 0 LINE",
"92 707 LINE",
"157 707 LINE",
"157 297 LINE",
"521 707 LINE",
"595 707 LINE",
"310 390 LINE",
"597 0 LINE",
"519 0 LINE",
"264 345 LINE",
"157 227 LINE",
"157 0 LINE"
);
}
);
width = 616;
}
);
leftKerningGroup = _kern16;
rightKerningGroup = _kern16;
},
{
color = (166, 255, 153, 255);
glyphname = K;
layers = (
{
layerId = "65F68577-51D6-4015-BE17-9540A8734A9C";
paths = (
{
closed = 1;
nodes = (
"92 0 LINE",
"92 707 LINE",
"157 707 LINE",
"157 372 LINE",
"281 372 LINE",
"518 707 LINE",
"595 707 LINE",
"342 355 LINE",
"597 0 LINE",
"519 0 LINE",
"292 312 LINE",
"157 312 LINE",
"157 0 LINE"
);
}
);
width = 616;
}
);
leftKerningGroup = _kern1;
rightKerningGroup = _kern16;
unicode = 004B;
},
{
color = (166, 255, 153, 255);
glyphname = k_alt;
layers = (
{
layerId = "65F68577-51D6-4015-BE17-9540A8734A9C";
paths = (
{
closed = 1;
nodes = (
"72 0 LINE",
"72 707 LINE",
"138 707 LINE",
"138 236 LINE",
"413 527 LINE",
"488 527 LINE",
"278 308 LINE",
"504 0 LINE",
"428 0 LINE",
"233 264 LINE",
"138 164 LINE",
"138 0 LINE"
);
}
);
width = 523;
}
);
leftKerningGroup = _kern17;
rightKerningGroup = _kern17;
},
{
color = (166, 255, 153, 255);
glyphname = k;
layers = (
{
layerId = "65F68577-51D6-4015-BE17-9540A8734A9C";
paths = (
{
closed = 1;
nodes = (
"72 0 LINE",
"72 707 LINE",
"138 707 LINE",
"138 291 LINE",
"251 291 LINE",
"414 527 LINE",
"487 527 LINE",
"310 274 LINE",
"504 0 LINE",
"428 0 LINE",
"258 236 LINE",
"138 236 LINE",
"138 0 LINE"
);
}
);
width = 516;
}
);
leftKerningGroup = _kern17;
rightKerningGroup = _kern17;
unicode = 006B;
},
{
color = (166, 255, 153, 255);
glyphname = i_alt;
layers = (
{
layerId = "65F68577-51D6-4015-BE17-9540A8734A9C";
paths = (
{
closed = 1;
nodes = (
"106 0 LINE",
"106 472 LINE",
"17 472 LINE",
"17 527 LINE",
"172 527 LINE",
"172 0 LINE"
);
},
{
closed = 1;
nodes = (
"157 717 OFFCURVE",
"185 691 OFFCURVE",
"185 669 QCURVE",
"185 646 OFFCURVE",
"157 620 OFFCURVE",
"135 620 QCURVE",
"113 620 OFFCURVE",
"86 646 OFFCURVE",
"86 669 QCURVE",
"86 692 OFFCURVE",
"113 717 OFFCURVE",
"135 717 QCURVE"
);
}
);
width = 249;
}
);
},
{
color = (166, 255, 153, 255);
glyphname = j_alt;
layers = (
{
layerId = "65F68577-51D6-4015-BE17-9540A8734A9C";
paths = (
{
closed = 1;
nodes = (
"184 -21 LINE",
"184 -107 OFFCURVE",
"110 -187 OFFCURVE",
"23 -187 QCURVE",
"-13 -187 LINE",
"-13 -133 LINE",
"20 -134 OFFCURVE",
"69 -126 OFFCURVE",
"102 -101 OFFCURVE",
"118 -52 OFFCURVE",
"118 -11 QCURVE",
"118 472 LINE",
"29 472 LINE",
"29 527 LINE",
"184 527 LINE"
);
},
{
closed = 1;
nodes = (
"169 717 OFFCURVE",
"197 691 OFFCURVE",
"197 669 QCURVE",
"197 646 OFFCURVE",
"169 620 OFFCURVE",
"147 620 QCURVE",
"125 620 OFFCURVE",
"98 646 OFFCURVE",
"98 669 QCURVE",
"98 692 OFFCURVE",
"125 717 OFFCURVE",
"147 717 QCURVE"
);
}
);
width = 261;
}
);
},
{
color = (166, 255, 153, 255);
glyphname = s_alt;
layers = (
{
layerId = "65F68577-51D6-4015-BE17-9540A8734A9C";
paths = (
{
closed = 1;
nodes = (
"251 477 OFFCURVE",
"200 469 OFFCURVE",
"157 450 OFFCURVE",
"128 416 OFFCURVE",
"128 389 QCURVE",
"128 368 OFFCURVE",
"145 337 OFFCURVE",
"173 316 OFFCURVE",
"207 303 OFFCURVE",
"225 300 QCURVE",
"257 294 OFFCURVE",
"343 283 OFFCURVE",
"375 275 QCURVE",
"429 264 OFFCURVE",
"495 202 OFFCURVE",
"495 144 QCURVE",
"495 102 OFFCURVE",
"455 42 OFFCURVE",
"392 7 OFFCURVE",
"314 -6 OFFCURVE",
"277 -6 QCURVE",
"243 -6 OFFCURVE",
"169 8 OFFCURVE",
"104 39 OFFCURVE",
"56 89 OFFCURVE",
"48 127 QCURVE",
"115 127 LINE",
"126 104 OFFCURVE",
"163 75 OFFCURVE",
"208 58 OFFCURVE",
"257 50 OFFCURVE",
"280 50 QCURVE",
"303 50 OFFCURVE",
"355 56 OFFCURVE",
"400 75 OFFCURVE",
"430 111 OFFCURVE",
"430 140 QCURVE",
"430 160 OFFCURVE",
"416 188 OFFCURVE",
"392 206 OFFCURVE",
"360 217 OFFCURVE",
"343 221 QCURVE",
"328 224 OFFCURVE",
"288 231 OFFCURVE",
"246 237 OFFCURVE",
"209 243 OFFCURVE",
"193 247 QCURVE",
"133 258 OFFCURVE",
"63 327 OFFCURVE",
"63 387 QCURVE",
"63 428 OFFCURVE",
"103 486 OFFCURVE",
"165 519 OFFCURVE",
"241 533 OFFCURVE",
"276 533 QCURVE",
"307 533 OFFCURVE",
"373 520 OFFCURVE",
"430 490 OFFCURVE",
"471 442 OFFCURVE",
"477 408 QCURVE",
"416 408 LINE",
"409 426 OFFCURVE",
"378 453 OFFCURVE",
"337 469 OFFCURVE",
"293 477 OFFCURVE",
"274 477 QCURVE"
);
}
);
width = 544;
}
);
leftKerningGroup = _kern5;
rightKerningGroup = _kern6;
},
{
color = (166, 255, 153, 255);
glyphname = s;
layers = (
{
layerId = "65F68577-51D6-4015-BE17-9540A8734A9C";
paths = (
{
closed = 1;
nodes = (
"234 477 OFFCURVE",
"187 469 OFFCURVE",
"149 450 OFFCURVE",
"124 416 OFFCURVE",
"124 389 QCURVE",
"124 368 OFFCURVE",
"141 338 OFFCURVE",
"168 318 OFFCURVE",
"202 306 OFFCURVE",
"220 302 QCURVE",
"252 295 OFFCURVE",
"314 283 OFFCURVE",
"346 275 QCURVE",
"399 264 OFFCURVE",
"466 202 OFFCURVE",
"466 144 QCURVE",
"466 100 OFFCURVE",
"429 42 OFFCURVE",
"371 7 OFFCURVE",
"297 -6 OFFCURVE",
"260 -6 QCURVE",
"226 -6 OFFCURVE",
"156 8 OFFCURVE",
"96 39 OFFCURVE",
"52 89 OFFCURVE",
"44 127 QCURVE",
"111 127 LINE",
"122 104 OFFCURVE",
"155 75 OFFCURVE",
"195 58 OFFCURVE",
"240 50 OFFCURVE",
"263 50 QCURVE",
"286 50 OFFCURVE",
"335 56 OFFCURVE",
"375 75 OFFCURVE",
"401 111 OFFCURVE",
"401 140 QCURVE",
"401 160 OFFCURVE",
"385 188 OFFCURVE",
"359 206 OFFCURVE",
"326 217 OFFCURVE",
"309 221 QCURVE",
"278 228 OFFCURVE",
"218 239 OFFCURVE",
"186 247 QCURVE",
"131 260 OFFCURVE",
"59 327 OFFCURVE",
"59 387 QCURVE",
"59 430 OFFCURVE",
"95 486 OFFCURVE",
"152 519 OFFCURVE",
"224 533 OFFCURVE",
"259 533 QCURVE",
"290 533 OFFCURVE",
"353 520 OFFCURVE",
"405 490 OFFCURVE",
"442 442 OFFCURVE",
"448 408 QCURVE",
"387 408 LINE",
"380 426 OFFCURVE",
"352 453 OFFCURVE",
"316 469 OFFCURVE",
"276 477 OFFCURVE",
"257 477 QCURVE"
);
}
);
width = 510;
}
);
leftKerningGroup = _kern5;
rightKerningGroup = _kern6;
unicode = 0073;
},
{
color = (166, 255, 153, 255);
glyphname = c_alt;
layers = (
{
layerId = "65F68577-51D6-4015-BE17-9540A8734A9C";
paths = (
{
closed = 1;
nodes = (
"233 -6 OFFCURVE",
"141 34 OFFCURVE",
"79 105 OFFCURVE",
"48 204 OFFCURVE",
"48 263 QCURVE",
"48 323 OFFCURVE",
"81 422 OFFCURVE",
"145 494 OFFCURVE",
"239 533 OFFCURVE",
"301 533 QCURVE",
"333 533 OFFCURVE",
"393 521 OFFCURVE",
"445 492 OFFCURVE",
"485 445 OFFCURVE",
"497 411 QCURVE",
"429 411 LINE",
"412 444 OFFCURVE",
"343 477 OFFCURVE",
"305 477 QCURVE",
"256 477 OFFCURVE",
"185 444 OFFCURVE",
"137 387 OFFCURVE",
"113 308 OFFCURVE",
"113 263 QCURVE",
"113 220 OFFCURVE",
"135 143 OFFCURVE",
"181 84 OFFCURVE",
"251 50 OFFCURVE",
"299 50 QCURVE",
"337 50 OFFCURVE",
"409 75 OFFCURVE",
"430 109 QCURVE",
"501 109 LINE",
"488 79 OFFCURVE",
"444 36 OFFCURVE",
"390 7 OFFCURVE",
"327 -6 OFFCURVE",
"295 -6 QCURVE"
);
}
);
width = 549;
}
);
leftKerningGroup = _kern5;
rightKerningGroup = _kern6;
},
{
color = (166, 255, 153, 255);
glyphname = copyright;
layers = (
{
layerId = "65F68577-51D6-4015-BE17-9540A8734A9C";
paths = (
{
closed = 1;
nodes = (
"562 715 OFFCURVE",
"712 653 OFFCURVE",
"817 541 OFFCURVE",
"874 386 OFFCURVE",
"874 294 QCURVE",
"874 202 OFFCURVE",
"819 48 OFFCURVE",
"714 -63 OFFCURVE",
"564 -125 OFFCURVE",
"469 -125 QCURVE",
"374 -125 OFFCURVE",
"224 -63 OFFCURVE",
"119 48 OFFCURVE",
"64 202 OFFCURVE",
"64 294 QCURVE",
"64 386 OFFCURVE",
"121 541 OFFCURVE",
"226 653 OFFCURVE",
"376 715 OFFCURVE",
"469 715 QCURVE"
);
},
{
closed = 1;
nodes = (
"389 654 OFFCURVE",
"263 600 OFFCURVE",
"176 504 OFFCURVE",
"129 372 OFFCURVE",
"129 294 QCURVE",
"129 217 OFFCURVE",
"175 85 OFFCURVE",
"263 -11 OFFCURVE",
"389 -65 OFFCURVE",
"469 -65 QCURVE",
"549 -65 OFFCURVE",
"676 -10 OFFCURVE",
"763 86 OFFCURVE",
"809 217 OFFCURVE",
"809 294 QCURVE",
"809 371 OFFCURVE",
"763 503 OFFCURVE",
"675 599 OFFCURVE",
"549 654 OFFCURVE",
"469 654 QCURVE"
);
},
{
closed = 1;
nodes = (
"433 84 OFFCURVE",
"361 116 OFFCURVE",
"314 172 OFFCURVE",
"290 250 OFFCURVE",
"290 295 QCURVE",
"290 339 OFFCURVE",
"314 416 OFFCURVE",
"362 473 OFFCURVE",
"433 506 OFFCURVE",
"483 506 QCURVE",
"544 506 OFFCURVE",
"632 451 OFFCURVE",
"646 387 QCURVE",
"587 387 LINE",
"576 422 OFFCURVE",
"521 451 OFFCURVE",
"485 451 QCURVE",
"449 451 OFFCURVE",
"396 426 OFFCURVE",
"365 383 OFFCURVE",
"351 326 OFFCURVE",
"351 295 QCURVE",
"351 263 OFFCURVE",
"366 207 OFFCURVE",
"398 164 OFFCURVE",
"447 139 OFFCURVE",
"482 139 QCURVE",
"517 139 OFFCURVE",
"577 166 OFFCURVE",
"589 202 QCURVE",
"651 202 LINE",
"634 141 OFFCURVE",
"542 84 OFFCURVE",
"481 84 QCURVE"
);
}
);
width = 938;
}
);
unicode = 00A9;
},
{
color = (166, 255, 153, 255);
glyphname = ampersand;
layers = (
{
layerId = "65F68577-51D6-4015-BE17-9540A8734A9C";
paths = (
{
closed = 1;
nodes = (
"489 69 LINE",
"444 29 OFFCURVE",
"342 -8 OFFCURVE",
"282 -8 QCURVE",
"239 -8 OFFCURVE",
"162 16 OFFCURVE",
"105 62 OFFCURVE",
"72 132 OFFCURVE",
"72 178 QCURVE",
"72 215 OFFCURVE",
"99 276 OFFCURVE",
"142 325 OFFCURVE",
"199 364 OFFCURVE",
"229 380 QCURVE",
"194 413 OFFCURVE",
"143 496 OFFCURVE",
"143 547 QCURVE",
"143 587 OFFCURVE",
"170 650 OFFCURVE",
"217 693 OFFCURVE",
"283 715 OFFCURVE",
"322 715 QCURVE",
"356 715 OFFCURVE",
"414 694 OFFCURVE",
"456 655 OFFCURVE",
"479 600 OFFCURVE",
"479 565 QCURVE",
"479 530 OFFCURVE",
"454 473 OFFCURVE",
"410 426 OFFCURVE",
"351 386 OFFCURVE",
"317 368 QCURVE",
"491 163 LINE",
"514 194 OFFCURVE",
"540 261 OFFCURVE",
"546 299 QCURVE",
"609 299 LINE",
"603 248 OFFCURVE",
"562 160 OFFCURVE",
"534 118 QCURVE",
"639 0 LINE",
"552 0 LINE"
);
},
{
closed = 1;
nodes = (
"303 417 OFFCURVE",
"352 448 OFFCURVE",
"392 486 OFFCURVE",
"419 533 OFFCURVE",
"419 561 QCURVE",
"419 606 OFFCURVE",
"358 657 OFFCURVE",
"315 656 QCURVE",
"264 655 OFFCURVE",
"206 603 OFFCURVE",
"206 552 QCURVE",
"206 527 OFFCURVE",
"218 488 OFFCURVE",
"239 454 OFFCURVE",
"267 423 OFFCURVE",
"282 405 QCURVE"
);
},
{
closed = 1;
nodes = (
"261 337 LINE",
"238 325 OFFCURVE",
"194 294 OFFCURVE",
"161 255 OFFCURVE",
"141 208 OFFCURVE",
"141 180 QCURVE",
"141 148 OFFCURVE",
"167 99 OFFCURVE",
"211 67 OFFCURVE",
"267 51 OFFCURVE",
"296 51 QCURVE",
"339 51 OFFCURVE",
"421 84 OFFCURVE",
"451 116 QCURVE"
);
}
);
width = 668;
}
);
unicode = 0026;
},
{
color = (166, 255, 153, 255);
glyphname = dollar;
layers = (
{
layerId = "65F68577-51D6-4015-BE17-9540A8734A9C";
paths = (
{
closed = 1;
nodes = (
"308 848 LINE",
"374 848 LINE",
"374 712 LINE",
"411 708 OFFCURVE",
"478 685 OFFCURVE",
"530 644 OFFCURVE",
"566 584 OFFCURVE",
"571 543 QCURVE",
"506 543 LINE",
"500 575 OFFCURVE",
"467 618 OFFCURVE",
"420 644 OFFCURVE",
"363 656 OFFCURVE",
"333 656 QCURVE",
"302 656 OFFCURVE",
"239 645 OFFCURVE",
"188 616 OFFCURVE",
"156 567 OFFCURVE",
"156 530 QCURVE",
"156 500 OFFCURVE",
"177 457 OFFCURVE",
"213 426 OFFCURVE",
"260 406 OFFCURVE",
"286 399 QCURVE",
"326 388 OFFCURVE",
"402 372 OFFCURVE",
"442 361 QCURVE",
"473 352 OFFCURVE",
"527 325 OFFCURVE",
"568 286 OFFCURVE",
"591 232 OFFCURVE",
"591 198 QCURVE",
"591 145 OFFCURVE",
"556 69 OFFCURVE",
"496 20 OFFCURVE",
"414 -5 OFFCURVE",
"368 -8 QCURVE",
"368 -142 LINE",
"303 -142 LINE",
"303 -7 LINE",
"262 -4 OFFCURVE",
"186 19 OFFCURVE",
"123 61 OFFCURVE",
"76 124 OFFCURVE",
"64 168 QCURVE",
"134 168 LINE",
"147 135 OFFCURVE",
"193 90 OFFCURVE",
"251 63 OFFCURVE",
"317 51 OFFCURVE",
"350 51 QCURVE",
"381 51 OFFCURVE",
"443 65 OFFCURVE",
"493 96 OFFCURVE",
"524 146 OFFCURVE",
"524 182 QCURVE",
"524 210 OFFCURVE",
"504 252 OFFCURVE",
"469 281 OFFCURVE",
"423 301 OFFCURVE",
"398 307 QCURVE",
"358 317 OFFCURVE",
"281 333 OFFCURVE",
"241 344 QCURVE",
"173 359 OFFCURVE",
"88 448 OFFCURVE",
"88 522 QCURVE",
"88 572 OFFCURVE",
"124 643 OFFCURVE",
"185 689 OFFCURVE",
"264 712 OFFCURVE",
"308 714 QCURVE"
);
}
);
width = 656;
}
);
unicode = 0024;
},
{
color = (166, 255, 153, 255);
glyphname = parenleft;
layers = (
{
layerId = "65F68577-51D6-4015-BE17-9540A8734A9C";
paths = (
{
closed = 1;
nodes = (
"250 -218 LINE",
"207 -166 OFFCURVE",
"140 -41 OFFCURVE",
"94 94 OFFCURVE",
"70 234 OFFCURVE",
"70 302 QCURVE",
"70 370 OFFCURVE",
"93 510 OFFCURVE",
"138 644 OFFCURVE",
"204 768 OFFCURVE",
"248 821 QCURVE",
"316 821 LINE",
"273 760 OFFCURVE",
"206 639 OFFCURVE",
"159 513 OFFCURVE",
"135 378 OFFCURVE",
"135 302 QCURVE",
"135 227 OFFCURVE",
"159 90 OFFCURVE",
"205 -37 OFFCURVE",
"274 -158 OFFCURVE",
"318 -218 QCURVE"
);
}
);
width = 293;
}
);
unicode = 0028;
},
{
color = (166, 255, 153, 255);
glyphname = parenright;
layers = (
{
layerId = "65F68577-51D6-4015-BE17-9540A8734A9C";
paths = (
{
closed = 1;
nodes = (
"-25 -218 LINE",
"19 -158 OFFCURVE",
"87 -37 OFFCURVE",
"134 90 OFFCURVE",
"158 227 OFFCURVE",
"158 302 QCURVE",
"158 378 OFFCURVE",
"133 513 OFFCURVE",
"87 639 OFFCURVE",
"20 760 OFFCURVE",
"-23 821 QCURVE",
"45 821 LINE",
"89 768 OFFCURVE",
"155 644 OFFCURVE",
"200 510 OFFCURVE",
"223 370 OFFCURVE",
"223 302 QCURVE",
"223 234 OFFCURVE",
"199 94 OFFCURVE",
"153 -41 OFFCURVE",
"86 -166 OFFCURVE",
"43 -218 QCURVE"
);
}
);
width = 293;
}
);
unicode = 0029;
},
{
color = (166, 255, 153, 255);
glyphname = cent;
layers = (
{
layerId = "65F68577-51D6-4015-BE17-9540A8734A9C";
paths = (
{
closed = 1;
nodes = (
"271 670 LINE",
"336 670 LINE",
"336 530 LINE",
"402 525 OFFCURVE",
"499 456 OFFCURVE",
"517 389 QCURVE",
"449 389 LINE",
"435 433 OFFCURVE",
"358 475 OFFCURVE",
"312 475 QCURVE",
"264 475 OFFCURVE",
"195 441 OFFCURVE",
"150 382 OFFCURVE",
"129 304 OFFCURVE",
"129 260 QCURVE",
"129 217 OFFCURVE",
"151 140 OFFCURVE",
"196 82 OFFCURVE",
"267 48 OFFCURVE",
"315 48 QCURVE",
"363 48 OFFCURVE",
"439 84 OFFCURVE",
"456 133 QCURVE",
"524 133 LINE",
"515 99 OFFCURVE",
"477 49 OFFCURVE",
"428 15 OFFCURVE",
"368 -4 OFFCURVE",
"336 -7 QCURVE",
"336 -165 LINE",
"271 -165 LINE",
"271 -6 LINE",
"168 8 OFFCURVE",
"64 153 OFFCURVE",
"64 260 QCURVE",
"64 314 OFFCURVE",
"90 406 OFFCURVE",
"143 476 OFFCURVE",
"220 521 OFFCURVE",
"271 528 QCURVE"
);
}
);
width = 588;
}
);
unicode = 00A2;
},
{
color = (166, 255, 153, 255);
glyphname = section;
layers = (
{
layerId = "65F68577-51D6-4015-BE17-9540A8734A9C";
paths = (
{
closed = 1;
nodes = (
"251 662 OFFCURVE",
"208 655 OFFCURVE",
"169 637 OFFCURVE",
"143 603 OFFCURVE",
"143 576 QCURVE",
"143 545 OFFCURVE",
"187 508 OFFCURVE",
"214 502 QCURVE",
"252 491 OFFCURVE",
"321 475 OFFCURVE",
"359 465 QCURVE",
"384 459 OFFCURVE",
"430 441 OFFCURVE",
"463 414 OFFCURVE",
"482 371 OFFCURVE",
"481 343 QCURVE",
"480 276 OFFCURVE",
"423 238 QCURVE",
"483 212 OFFCURVE",
"483 136 QCURVE",
"483 94 OFFCURVE",
"448 39 OFFCURVE",
"393 5 OFFCURVE",
"323 -8 OFFCURVE",
"288 -8 QCURVE",
"252 -8 OFFCURVE",
"181 4 OFFCURVE",
"120 33 OFFCURVE",
"74 84 OFFCURVE",
"64 123 QCURVE",
"131 123 LINE",
"140 102 OFFCURVE",
"174 73 OFFCURVE",
"215 55 OFFCURVE",
"259 47 OFFCURVE",
"279 47 QCURVE",
"298 47 OFFCURVE",
"347 51 OFFCURVE",
"391 68 OFFCURVE",
"420 101 OFFCURVE",
"420 130 QCURVE",
"420 150 OFFCURVE",
"404 177 OFFCURVE",
"377 195 OFFCURVE",
"344 206 OFFCURVE",
"328 209 QCURVE",
"296 215 OFFCURVE",
"234 227 OFFCURVE",
"205 233 QCURVE",
"147 244 OFFCURVE",
"73 308 OFFCURVE",
"74 366 QCURVE",
"73 401 OFFCURVE",
"108 463 OFFCURVE",
"137 481 QCURVE",
"84 511 OFFCURVE",
"84 574 QCURVE",
"84 615 OFFCURVE",
"118 670 OFFCURVE",
"174 702 OFFCURVE",
"243 715 OFFCURVE",
"278 715 QCURVE",
"309 715 OFFCURVE",
"371 702 OFFCURVE",
"423 672 OFFCURVE",
"459 625 OFFCURVE",
"464 591 QCURVE",
"405 591 LINE",
"400 611 OFFCURVE",
"373 638 OFFCURVE",
"337 654 OFFCURVE",
"295 661 OFFCURVE",
"276 661 QCURVE"
);
},
{
closed = 1;
nodes = (
"162 436 OFFCURVE",
"136 393 OFFCURVE",
"136 370 QCURVE",
"136 347 OFFCURVE",
"159 317 OFFCURVE",
"194 299 OFFCURVE",
"235 288 OFFCURVE",
"252 284 QCURVE",
"281 277 OFFCURVE",
"339 269 OFFCURVE",
"369 264 QCURVE",
"386 272 OFFCURVE",
"421 309 OFFCURVE",
"421 336 QCURVE",
"421 365 OFFCURVE",
"383 401 OFFCURVE",
"357 409 QCURVE",
"310 422 OFFCURVE",
"228 437 OFFCURVE",
"185 451 QCURVE"
);
}
);
width = 548;
}
);
unicode = 00A7;
},
{
color = (166, 255, 153, 255);
glyphname = uni04C1;
layers = (
{
layerId = "65F68577-51D6-4015-BE17-9540A8734A9C";
paths = (
{
closed = 1;
nodes = (
"396 0 LINE",
"396 317 LINE",
"266 317 LINE",
"96 0 LINE",
"19 0 LINE",
"211 357 LINE",
"19 707 LINE",
"92 707 LINE",
"269 377 LINE",
"396 377 LINE",
"396 707 LINE",
"461 707 LINE",
"461 377 LINE",
"589 377 LINE",
"767 707 LINE",
"838 707 LINE",
"646 357 LINE",
"839 0 LINE",
"760 0 LINE",
"591 317 LINE",
"461 317 LINE",
"461 0 LINE"
);
},
{
closed = 1;
nodes = (
"450 848 OFFCURVE",
"488 856 OFFCURVE",
"520 875 OFFCURVE",
"542 905 OFFCURVE",
"545 927 QCURVE",
"606 927 LINE",
"603 889 OFFCURVE",
"571 839 OFFCURVE",
"523 807 OFFCURVE",
"462 794 OFFCURVE",
"429 794 QCURVE",
"397 794 OFFCURVE",
"336 807 OFFCURVE",
"287 838 OFFCURVE",
"254 889 OFFCURVE",
"251 927 QCURVE",
"312 927 LINE",
"320 883 OFFCURVE",
"388 848 OFFCURVE",
"429 848 QCURVE"
);
}
);
width = 858;
}
);
unicode = 04C1;
},
{
color = (166, 255, 153, 255);
glyphname = uni04C2;
layers = (
{
layerId = "65F68577-51D6-4015-BE17-9540A8734A9C";
paths = (
{
closed = 1;
nodes = (
"342 0 LINE",
"342 237 LINE",
"239 237 LINE",
"94 0 LINE",
"19 0 LINE",
"189 277 LINE",
"34 527 LINE",
"107 527 LINE",
"249 292 LINE",
"342 292 LINE",
"342 527 LINE",
"408 527 LINE",
"408 292 LINE",
"501 292 LINE",
"643 527 LINE",
"716 527 LINE",
"561 277 LINE",
"732 0 LINE",
"657 0 LINE",
"511 237 LINE",
"408 237 LINE",
"408 0 LINE"
);
},
{
closed = 1;
nodes = (
"392 668 OFFCURVE",
"428 674 OFFCURVE",
"459 689 OFFCURVE",
"480 717 OFFCURVE",
"483 740 QCURVE",
"543 740 LINE",
"540 705 OFFCURVE",
"509 658 OFFCURVE",
"463 629 OFFCURVE",
"404 617 OFFCURVE",
"373 617 QCURVE",
"342 617 OFFCURVE",
"285 629 OFFCURVE",
"240 658 OFFCURVE",
"211 705 OFFCURVE",
"208 740 QCURVE",
"268 740 LINE",
"271 717 OFFCURVE",
"292 689 OFFCURVE",
"322 674 OFFCURVE",
"358 668 OFFCURVE",
"375 668 QCURVE"
);
}
);
width = 751;
}
);
unicode = 04C2;
},
{
color = (166, 255, 153, 255);
glyphname = w_alt;
layers = (
{
layerId = "65F68577-51D6-4015-BE17-9540A8734A9C";
paths = (
{
closed = 1;
nodes = (
"541 55 LINE",
"672 527 LINE",
"746 527 LINE",
"591 0 LINE",
"495 0 LINE",
"384 339 LINE",
"275 0 LINE",
"178 0 LINE",
"19 527 LINE",
"94 527 LINE",
"228 55 LINE",
"339 402 LINE",
"428 402 LINE"
);
}
);
width = 765;
}
);
leftKerningGroup = _kern20;
rightKerningGroup = _kern20;
},
{
color = (166, 255, 153, 255);
glyphname = W_alt;
layers = (
{
layerId = "65F68577-51D6-4015-BE17-9540A8734A9C";
paths = (
{
closed = 1;
nodes = (
"493 549 LINE",
"641 60 LINE",
"809 707 LINE",
"883 707 LINE",
"691 0 LINE",
"590 0 LINE",
"451 455 LINE",
"313 0 LINE",
"211 0 LINE",
"19 707 LINE",
"94 707 LINE",
"262 60 LINE",
"411 549 LINE"
);
}
);
width = 902;
}
);
leftKerningGroup = _kern19;
rightKerningGroup = _kern19;
},
{
color = (166, 255, 153, 255);
glyphname = zero;
layers = (
{
layerId = "65F68577-51D6-4015-BE17-9540A8734A9C";
paths = (
{
closed = 1;
nodes = (
"607 286 OFFCURVE",
"581 156 OFFCURVE",
"518 54 OFFCURVE",
"413 -8 OFFCURVE",
"334 -8 QCURVE",
"255 -8 OFFCURVE",
"150 54 OFFCURVE",
"88 155 OFFCURVE",
"62 285 OFFCURVE",
"62 353 QCURVE",
"62 420 OFFCURVE",
"88 550 OFFCURVE",
"151 652 OFFCURVE",
"255 715 OFFCURVE",
"334 715 QCURVE",
"413 715 OFFCURVE",
"518 652 OFFCURVE",
"581 550 OFFCURVE",
"607 420 OFFCURVE",
"607 353 QCURVE"
);
},
{
closed = 1;
nodes = (
"129 300 OFFCURVE",
"145 193 OFFCURVE",
"189 106 OFFCURVE",
"269 51 OFFCURVE",
"334 51 QCURVE",
"399 51 OFFCURVE",
"479 106 OFFCURVE",
"524 193 OFFCURVE",
"539 300 OFFCURVE",
"539 353 QCURVE",
"539 405 OFFCURVE",
"523 512 OFFCURVE",
"478 600 OFFCURVE",
"398 656 OFFCURVE",
"334 656 QCURVE",
"270 656 OFFCURVE",
"190 600 OFFCURVE",
"145 512 OFFCURVE",
"129 405 OFFCURVE",
"129 353 QCURVE"
);
}
);
width = 668;
}
);
unicode = 0030;
},
{
color = (166, 255, 153, 255);
glyphname = one;
layers = (
{
layerId = "65F68577-51D6-4015-BE17-9540A8734A9C";
paths = (
{
closed = 1;
nodes = (
"237 0 LINE",
"172 0 LINE",
"172 585 LINE",
"30 585 LINE",
"30 624 LINE",
"57 625 OFFCURVE",
"106 631 OFFCURVE",
"148 648 OFFCURVE",
"181 680 OFFCURVE",
"193 707 QCURVE",
"237 707 LINE"
);
}
);
width = 349;
}
);
unicode = 0031;
},
{
color = (166, 255, 153, 255);
glyphname = two;
layers = (
{
layerId = "65F68577-51D6-4015-BE17-9540A8734A9C";
paths = (
{
closed = 1;
nodes = (
"438 548 OFFCURVE",
"414 602 OFFCURVE",
"372 638 OFFCURVE",
"314 656 OFFCURVE",
"281 656 QCURVE",
"232 656 OFFCURVE",
"148 616 OFFCURVE",
"129 571 QCURVE",
"56 571 LINE",
"66 608 OFFCURVE",
"113 663 OFFCURVE",
"176 699 OFFCURVE",
"249 715 OFFCURVE",
"285 715 QCURVE",
"332 715 OFFCURVE",
"412 689 OFFCURVE",
"471 639 OFFCURVE",
"504 564 OFFCURVE",
"504 515 QCURVE",
"504 467 OFFCURVE",
"475 389 OFFCURVE",
"427 321 OFFCURVE",
"364 262 OFFCURVE",
"330 233 QCURVE",
"128 60 LINE",
"512 60 LINE",
"512 0 LINE",
"35 0 LINE",
"35 62 LINE",
"239 236 LINE",
"270 263 OFFCURVE",
"341 323 OFFCURVE",
"399 389 OFFCURVE",
"438 469 OFFCURVE",
"438 513 QCURVE"
);
}
);
width = 567;
}
);
unicode = 0032;
},
{
color = (166, 255, 153, 255);
glyphname = three;
layers = (
{
layerId = "65F68577-51D6-4015-BE17-9540A8734A9C";
paths = (
{
closed = 1;
nodes = (
"106 141 LINE",
"114 115 OFFCURVE",
"154 80 OFFCURVE",
"205 60 OFFCURVE",
"261 51 OFFCURVE",
"285 51 QCURVE",
"321 50 OFFCURVE",
"387 63 OFFCURVE",
"438 96 OFFCURVE",
"469 152 OFFCURVE",
"469 193 QCURVE",
"469 237 OFFCURVE",
"435 291 OFFCURVE",
"380 320 OFFCURVE",
"310 330 OFFCURVE",
"274 330 QCURVE",
"201 330 LINE",
"201 390 LINE",
"249 390 LINE",
"287 390 OFFCURVE",
"361 407 OFFCURVE",
"391 431 QCURVE",
"413 448 OFFCURVE",
"440 498 OFFCURVE",
"441 526 QCURVE",
"442 562 OFFCURVE",
"416 612 OFFCURVE",
"371 642 OFFCURVE",
"313 656 OFFCURVE",
"281 656 QCURVE",
"256 656 OFFCURVE",
"206 648 OFFCURVE",
"164 627 OFFCURVE",
"132 593 OFFCURVE",
"126 568 QCURVE",
"58 568 LINE",
"63 609 OFFCURVE",
"108 665 OFFCURVE",
"173 700 OFFCURVE",
"249 715 OFFCURVE",
"285 715 QCURVE",
"327 715 OFFCURVE",
"406 697 OFFCURVE",
"467 655 OFFCURVE",
"504 588 OFFCURVE",
"504 539 QCURVE",
"504 482 OFFCURVE",
"441 389 OFFCURVE",
"386 372 QCURVE",
"456 358 OFFCURVE",
"536 265 OFFCURVE",
"536 193 QCURVE",
"536 138 OFFCURVE",
"494 61 OFFCURVE",
"423 13 OFFCURVE",
"332 -8 OFFCURVE",
"284 -8 QCURVE",
"245 -8 OFFCURVE",
"164 7 OFFCURVE",
"96 41 OFFCURVE",
"46 99 OFFCURVE",
"38 141 QCURVE"
);
}
);
width = 598;
}
);
unicode = 0033;
},
{
color = (166, 255, 153, 255);
glyphname = four;
layers = (
{
layerId = "65F68577-51D6-4015-BE17-9540A8734A9C";
paths = (
{
closed = 1;
nodes = (
"428 146 LINE",
"47 146 LINE",
"47 198 LINE",
"397 707 LINE",
"493 707 LINE",
"493 206 LINE",
"581 206 LINE",
"581 146 LINE",
"493 146 LINE",
"493 0 LINE",
"428 0 LINE"
);
},
{
closed = 1;
nodes = (
"428 647 LINE",
"126 206 LINE",
"428 206 LINE"
);
}
);
width = 623;
}
);
unicode = 0034;
},
{
color = (166, 255, 153, 255);
glyphname = seven;
layers = (
{
layerId = "65F68577-51D6-4015-BE17-9540A8734A9C";
paths = (
{
closed = 1;
nodes = (
"112 0 LINE",
"407 647 LINE",
"17 647 LINE",
"17 707 LINE",
"477 707 LINE",
"477 646 LINE",
"186 0 LINE"
);
}
);
width = 505;
}
);
unicode = 0037;
},
{
color = (166, 255, 153, 255);
glyphname = eight;
layers = (
{
layerId = "65F68577-51D6-4015-BE17-9540A8734A9C";
paths = (
{
closed = 1;
nodes = (
"553 138 OFFCURVE",
"512 62 OFFCURVE",
"444 14 OFFCURVE",
"355 -8 OFFCURVE",
"307 -8 QCURVE",
"259 -8 OFFCURVE",
"170 13 OFFCURVE",
"102 61 OFFCURVE",
"62 137 OFFCURVE",
"62 192 QCURVE",
"62 224 OFFCURVE",
"83 279 OFFCURVE",
"119 323 OFFCURVE",
"168 354 OFFCURVE",
"196 363 QCURVE",
"142 380 OFFCURVE",
"84 472 OFFCURVE",
"84 532 QCURVE",
"84 580 OFFCURVE",
"122 650 OFFCURVE",
"185 694 OFFCURVE",
"265 715 OFFCURVE",
"308 715 QCURVE",
"350 715 OFFCURVE",
"431 694 OFFCURVE",
"494 650 OFFCURVE",
"532 580 OFFCURVE",
"532 532 QCURVE",
"532 472 OFFCURVE",
"470 383 OFFCURVE",
"418 366 QCURVE",
"478 349 OFFCURVE",
"553 258 OFFCURVE",
"553 192 QCURVE"
);
},
{
closed = 1;
nodes = (
"275 656 OFFCURVE",
"218 641 OFFCURVE",
"176 608 OFFCURVE",
"152 557 OFFCURVE",
"152 521 QCURVE",
"152 486 OFFCURVE",
"177 436 OFFCURVE",
"220 403 OFFCURVE",
"277 388 OFFCURVE",
"308 388 QCURVE",
"336 388 OFFCURVE",
"392 404 OFFCURVE",
"437 436 OFFCURVE",
"464 484 OFFCURVE",
"464 517 QCURVE",
"464 554 OFFCURVE",
"441 607 OFFCURVE",
"399 640 OFFCURVE",
"342 656 OFFCURVE",
"308 656 QCURVE"
);
},
{
closed = 1;
nodes = (
"275 331 OFFCURVE",
"211 316 OFFCURVE",
"160 283 OFFCURVE",
"129 230 OFFCURVE",
"129 191 QCURVE",
"129 152 OFFCURVE",
"160 98 OFFCURVE",
"210 65 OFFCURVE",
"274 51 OFFCURVE",
"308 51 QCURVE",
"342 51 OFFCURVE",
"405 65 OFFCURVE",
"455 98 OFFCURVE",
"485 152 OFFCURVE",
"485 191 QCURVE",
"485 230 OFFCURVE",
"454 283 OFFCURVE",
"404 316 OFFCURVE",
"341 331 OFFCURVE",
"308 331 QCURVE"
);
}
);
width = 615;
}
);
unicode = 0038;
},
{
color = (166, 255, 153, 255);
glyphname = nine;
layers = (
{
layerId = "65F68577-51D6-4015-BE17-9540A8734A9C";
paths = (
{
closed = 1;
nodes = (
"235 264 OFFCURVE",
"153 296 OFFCURVE",
"93 354 OFFCURVE",
"59 435 OFFCURVE",
"59 485 QCURVE",
"59 538 OFFCURVE",
"95 623 OFFCURVE",
"158 683 OFFCURVE",
"246 715 OFFCURVE",
"298 715 QCURVE",
"436 715 OFFCURVE",
"506 596 QCURVE",
"522 569 OFFCURVE",
"542 508 OFFCURVE",
"554 444 OFFCURVE",
"560 381 OFFCURVE",
"560 353 QCURVE",
"561 292 OFFCURVE",
"541 162 OFFCURVE",
"510 108 QCURVE",
"475 45 OFFCURVE",
"362 -8 OFFCURVE",
"291 -8 QCURVE",
"256 -8 OFFCURVE",
"186 7 OFFCURVE",
"127 40 OFFCURVE",
"81 92 OFFCURVE",
"70 128 QCURVE",
"145 128 LINE",
"166 88 OFFCURVE",
"247 51 OFFCURVE",
"293 51 QCURVE",
"419 51 OFFCURVE",
"467 167 QCURVE",
"485 210 OFFCURVE",
"497 309 OFFCURVE",
"497 355 QCURVE",
"497 362 OFFCURVE",
"496 380 OFFCURVE",
"496 387 QCURVE",
"488 363 OFFCURVE",
"455 322 OFFCURVE",
"435 307 QCURVE",
"403 284 OFFCURVE",
"323 263 OFFCURVE",
"283 264 QCURVE"
);
},
{
closed = 1;
nodes = (
"126 415 OFFCURVE",
"217 325 OFFCURVE",
"295 325 QCURVE",
"329 325 OFFCURVE",
"391 348 OFFCURVE",
"438 389 OFFCURVE",
"466 447 OFFCURVE",
"466 483 QCURVE",
"466 520 OFFCURVE",
"441 583 OFFCURVE",
"396 630 OFFCURVE",
"334 656 OFFCURVE",
"296 656 QCURVE",
"261 656 OFFCURVE",
"199 632 OFFCURVE",
"153 588 OFFCURVE",
"126 529 OFFCURVE",
"126 493 QCURVE"
);
}
);
width = 622;
}
);
unicode = 0039;
},
{
color = (166, 255, 153, 255);
glyphname = uni0430;
layers = (
{
layerId = "65F68577-51D6-4015-BE17-9540A8734A9C";
paths = (
{
closed = 1;
nodes = (
"430 76 LINE",
"392 30 OFFCURVE",
"295 -6 OFFCURVE",
"237 -6 QCURVE",
"202 -6 OFFCURVE",
"137 11 OFFCURVE",
"85 49 OFFCURVE",
"54 108 OFFCURVE",
"54 145 QCURVE",
"54 190 OFFCURVE",
"88 250 OFFCURVE",
"143 286 OFFCURVE",
"215 301 OFFCURVE",
"254 301 QCURVE",
"427 301 LINE",
"427 337 OFFCURVE",
"412 401 OFFCURVE",
"378 449 OFFCURVE",
"323 477 OFFCURVE",
"283 477 QCURVE",
"264 477 OFFCURVE",
"225 471 OFFCURVE",
"190 457 OFFCURVE",
"161 432 OFFCURVE",
"152 414 QCURVE",
"80 414 LINE",
"89 447 OFFCURVE",
"131 492 OFFCURVE",
"188 521 OFFCURVE",
"253 533 OFFCURVE",
"285 533 QCURVE",
"343 533 OFFCURVE",
"423 494 OFFCURVE",
"472 428 OFFCURVE",
"493 338 OFFCURVE",
"493 286 QCURVE",
"493 0 LINE",
"439 0 LINE"
);
},
{
closed = 1;
nodes = (
"288 248 LINE",
"262 248 OFFCURVE",
"203 244 OFFCURVE",
"153 225 OFFCURVE",
"120 186 OFFCURVE",
"120 152 QCURVE",
"120 125 OFFCURVE",
"141 87 OFFCURVE",
"176 61 OFFCURVE",
"221 49 OFFCURVE",
"245 49 QCURVE",
"284 49 OFFCURVE",
"351 69 OFFCURVE",
"400 110 OFFCURVE",
"427 171 OFFCURVE",
"427 212 QCURVE",
"427 248 LINE"
);
}
);
width = 563;
}
);
leftKerningGroup = _kern27;
rightKerningGroup = _kern27;
unicode = 0430;
},
{
color = (166, 255, 153, 255);
glyphname = uni0435;
layers = (
{
layerId = "65F68577-51D6-4015-BE17-9540A8734A9C";
paths = (
{
closed = 1;
nodes = (
"117 242 LINE",
"119 200 OFFCURVE",
"144 130 OFFCURVE",
"190 79 OFFCURVE",
"257 50 OFFCURVE",
"302 50 QCURVE",
"323 50 OFFCURVE",
"366 58 OFFCURVE",
"405 75 OFFCURVE",
"437 103 OFFCURVE",
"446 124 QCURVE",
"515 124 LINE",
"504 89 OFFCURVE",
"459 39 OFFCURVE",
"401 8 OFFCURVE",
"333 -6 OFFCURVE",
"299 -6 QCURVE",
"237 -6 OFFCURVE",
"144 34 OFFCURVE",
"82 105 OFFCURVE",
"52 204 OFFCURVE",
"52 263 QCURVE",
"52 323 OFFCURVE",
"84 423 OFFCURVE",
"147 494 OFFCURVE",
"240 533 OFFCURVE",
"300 533 QCURVE",
"363 533 OFFCURVE",
"450 483 OFFCURVE",
"504 402 OFFCURVE",
"527 297 OFFCURVE",
"525 242 QCURVE"
);
},
{
closed = 1;
nodes = (
"458 297 LINE",
"457 333 OFFCURVE",
"436 399 OFFCURVE",
"395 448 OFFCURVE",
"333 477 OFFCURVE",
"292 477 QCURVE",
"251 477 OFFCURVE",
"188 447 OFFCURVE",
"144 397 OFFCURVE",
"120 332 OFFCURVE",
"118 297 QCURVE"
);
}
);
width = 577;
}
);
leftKerningGroup = _kern9;
rightKerningGroup = _kern10;
unicode = 0435;
},
{
color = (166, 255, 153, 255);
glyphname = uni043E;
layers = (
{
layerId = "65F68577-51D6-4015-BE17-9540A8734A9C";
paths = (
{
closed = 1;
nodes = (
"349 50 OFFCURVE",
"419 83 OFFCURVE",
"464 141 OFFCURVE",
"485 219 OFFCURVE",
"485 263 QCURVE",
"485 307 OFFCURVE",
"464 385 OFFCURVE",
"419 443 OFFCURVE",
"349 477 OFFCURVE",
"301 477 QCURVE",
"253 477 OFFCURVE",
"183 443 OFFCURVE",
"138 385 OFFCURVE",
"117 307 OFFCURVE",
"117 263 QCURVE",
"117 219 OFFCURVE",
"138 141 OFFCURVE",
"183 83 OFFCURVE",
"253 50 OFFCURVE",
"301 50 QCURVE"
);
},
{
closed = 1;
nodes = (
"363 533 OFFCURVE",
"456 493 OFFCURVE",
"519 421 OFFCURVE",
"551 322 OFFCURVE",
"551 263 QCURVE",
"551 204 OFFCURVE",
"519 105 OFFCURVE",
"456 34 OFFCURVE",
"363 -6 OFFCURVE",
"301 -6 QCURVE",
"239 -6 OFFCURVE",
"146 34 OFFCURVE",
"83 105 OFFCURVE",
"52 204 OFFCURVE",
"52 263 QCURVE",
"52 322 OFFCURVE",
"83 421 OFFCURVE",
"146 493 OFFCURVE",
"239 533 OFFCURVE",
"301 533 QCURVE"
);
}
);
width = 603;
}
);
leftKerningGroup = _kern9;
rightKerningGroup = _kern10;
unicode = 043E;
},
{
color = (166, 255, 153, 255);
glyphname = uni0441;
layers = (
{
layerId = "65F68577-51D6-4015-BE17-9540A8734A9C";
paths = (
{
closed = 1;
nodes = (
"237 -6 OFFCURVE",
"145 34 OFFCURVE",
"83 106 OFFCURVE",
"52 204 OFFCURVE",
"52 262 QCURVE",
"52 322 OFFCURVE",
"84 421 OFFCURVE",
"148 493 OFFCURVE",
"242 533 OFFCURVE",
"304 533 QCURVE",
"376 533 OFFCURVE",
"485 463 OFFCURVE",
"504 391 QCURVE",
"437 391 LINE",
"423 435 OFFCURVE",
"346 477 OFFCURVE",
"300 477 QCURVE",
"253 477 OFFCURVE",
"184 443 OFFCURVE",
"139 384 OFFCURVE",
"117 306 OFFCURVE",
"117 262 QCURVE",
"117 219 OFFCURVE",
"139 142 OFFCURVE",
"184 84 OFFCURVE",
"255 50 OFFCURVE",
"303 50 QCURVE",
"351 50 OFFCURVE",
"427 86 OFFCURVE",
"444 135 QCURVE",
"512 135 LINE",
"501 98 OFFCURVE",
"459 45 OFFCURVE",
"402 10 OFFCURVE",
"334 -6 OFFCURVE",
"299 -6 QCURVE"
);
}
);
width = 558;
}
);
leftKerningGroup = _kern9;
rightKerningGroup = _kern10;
unicode = 0441;
},
{
color = (166, 255, 153, 255);
glyphname = uni0218;
layers = (
{
layerId = "65F68577-51D6-4015-BE17-9540A8734A9C";
paths = (
{
closed = 1;
nodes = (
"354 -92 OFFCURVE",
"381 -132 OFFCURVE",
"380 -158 QCURVE",
"381 -203 OFFCURVE",
"331 -286 OFFCURVE",
"288 -304 QCURVE",
"272 -278 LINE",
"294 -264 OFFCURVE",
"323 -222 OFFCURVE",
"328 -193 QCURVE",
"302 -195 OFFCURVE",
"274 -166 OFFCURVE",
"274 -142 QCURVE",
"274 -120 OFFCURVE",
"303 -90 OFFCURVE",
"326 -91 QCURVE"
);
},
{
closed = 1;
nodes = (
"291 656 OFFCURVE",
"228 645 OFFCURVE",
"177 616 OFFCURVE",
"145 567 OFFCURVE",
"145 530 QCURVE",
"145 500 OFFCURVE",
"166 457 OFFCURVE",
"202 426 OFFCURVE",
"249 406 OFFCURVE",
"275 399 QCURVE",
"315 388 OFFCURVE",
"391 371 OFFCURVE",
"432 360 QCURVE",
"463 351 OFFCURVE",
"517 325 OFFCURVE",
"557 286 OFFCURVE",
"580 233 OFFCURVE",
"580 198 QCURVE",
"580 142 OFFCURVE",
"540 63 OFFCURVE",
"473 14 OFFCURVE",
"383 -8 OFFCURVE",
"332 -8 QCURVE",
"285 -8 OFFCURVE",
"197 10 OFFCURVE",
"122 52 OFFCURVE",
"66 119 OFFCURVE",
"53 168 QCURVE",
"123 168 LINE",
"136 135 OFFCURVE",
"182 90 OFFCURVE",
"241 63 OFFCURVE",
"306 51 OFFCURVE",
"339 51 QCURVE",
"370 51 OFFCURVE",
"432 65 OFFCURVE",
"482 96 OFFCURVE",
"513 146 OFFCURVE",
"513 182 QCURVE",
"513 211 OFFCURVE",
"493 252 OFFCURVE",
"459 282 OFFCURVE",
"413 301 OFFCURVE",
"387 307 QCURVE",
"347 317 OFFCURVE",
"270 333 OFFCURVE",
"230 344 QCURVE",
"162 362 OFFCURVE",
"77 448 OFFCURVE",
"77 522 QCURVE",
"77 576 OFFCURVE",
"118 649 OFFCURVE",
"187 695 OFFCURVE",
"275 715 OFFCURVE",
"322 715 QCURVE",
"365 715 OFFCURVE",
"445 696 OFFCURVE",
"510 655 OFFCURVE",
"554 590 OFFCURVE",
"560 543 QCURVE",
"494 543 LINE",
"488 576 OFFCURVE",
"455 619 OFFCURVE",
"408 645 OFFCURVE",
"352 656 OFFCURVE",
"322 656 QCURVE"
);
}
);
width = 634;
}
);
unicode = 0218;
},
{
color = (166, 255, 153, 255);
glyphname = uni0219;
layers = (
{
layerId = "65F68577-51D6-4015-BE17-9540A8734A9C";
paths = (
{
closed = 1;
nodes = (
"288 -91 OFFCURVE",
"317 -133 OFFCURVE",
"315 -158 QCURVE",
"316 -203 OFFCURVE",
"266 -286 OFFCURVE",
"223 -304 QCURVE",
"207 -278 LINE",
"229 -264 OFFCURVE",
"258 -222 OFFCURVE",
"263 -193 QCURVE",
"237 -195 OFFCURVE",
"209 -166 OFFCURVE",
"209 -142 QCURVE",
"209 -120 OFFCURVE",
"238 -90 OFFCURVE",
"261 -91 QCURVE"
);
},
{
closed = 1;
nodes = (
"238 477 OFFCURVE",
"191 469 OFFCURVE",
"153 450 OFFCURVE",
"128 416 OFFCURVE",
"128 389 QCURVE",
"128 368 OFFCURVE",
"145 338 OFFCURVE",
"172 318 OFFCURVE",
"206 306 OFFCURVE",
"224 302 QCURVE",
"256 295 OFFCURVE",
"318 283 OFFCURVE",
"350 275 QCURVE",
"403 264 OFFCURVE",
"470 202 OFFCURVE",
"470 144 QCURVE",
"470 100 OFFCURVE",
"433 42 OFFCURVE",
"375 7 OFFCURVE",
"301 -6 OFFCURVE",
"264 -6 QCURVE",
"230 -6 OFFCURVE",
"160 8 OFFCURVE",
"100 39 OFFCURVE",
"56 89 OFFCURVE",
"48 127 QCURVE",
"115 127 LINE",
"126 104 OFFCURVE",
"159 75 OFFCURVE",
"199 58 OFFCURVE",
"244 50 OFFCURVE",
"267 50 QCURVE",
"290 50 OFFCURVE",
"339 56 OFFCURVE",
"379 75 OFFCURVE",
"405 111 OFFCURVE",
"405 140 QCURVE",
"405 160 OFFCURVE",
"389 188 OFFCURVE",
"363 206 OFFCURVE",
"330 217 OFFCURVE",
"313 221 QCURVE",
"282 228 OFFCURVE",
"222 239 OFFCURVE",
"193 246 QCURVE",
"131 260 OFFCURVE",
"63 327 OFFCURVE",
"63 387 QCURVE",
"63 429 OFFCURVE",
"99 486 OFFCURVE",
"156 519 OFFCURVE",
"228 533 OFFCURVE",
"263 533 QCURVE",
"294 533 OFFCURVE",
"357 520 OFFCURVE",
"409 490 OFFCURVE",
"446 442 OFFCURVE",
"452 408 QCURVE",
"391 408 LINE",
"384 426 OFFCURVE",
"356 453 OFFCURVE",
"320 469 OFFCURVE",
"280 477 OFFCURVE",
"261 477 QCURVE"
);
}
);
width = 519;
}
);
leftKerningGroup = _kern5;
rightKerningGroup = _kern6;
unicode = 0219;
},
{
color = (166, 255, 153, 255);
glyphname = uni021A;
layers = (
{
layerId = "65F68577-51D6-4015-BE17-9540A8734A9C";
paths = (
{
closed = 1;
nodes = (
"317 -91 OFFCURVE",
"344 -135 OFFCURVE",
"343 -158 QCURVE",
"344 -203 OFFCURVE",
"294 -286 OFFCURVE",
"251 -304 QCURVE",
"235 -278 LINE",
"257 -264 OFFCURVE",
"286 -222 OFFCURVE",
"291 -193 QCURVE",
"265 -195 OFFCURVE",
"237 -166 OFFCURVE",
"237 -142 QCURVE",
"237 -120 OFFCURVE",
"266 -90 OFFCURVE",
"289 -91 QCURVE"
);
},
{
closed = 1;
nodes = (
"552 647 LINE",
"318 647 LINE",
"318 0 LINE",
"253 0 LINE",
"253 647 LINE",
"19 647 LINE",
"19 707 LINE",
"552 707 LINE"
);
}
);
width = 571;
}
);
leftKerningGroup = _kern28;
rightKerningGroup = _kern28;
unicode = 021A;
},
{
color = (166, 255, 153, 255);
glyphname = uni021B;
layers = (
{
layerId = "65F68577-51D6-4015-BE17-9540A8734A9C";
paths = (
{
closed = 1;
nodes = (
"245 -91 OFFCURVE",
"272 -134 OFFCURVE",
"271 -158 QCURVE",
"272 -203 OFFCURVE",
"222 -286 OFFCURVE",
"179 -304 QCURVE",
"163 -278 LINE",
"185 -264 OFFCURVE",
"214 -222 OFFCURVE",
"219 -193 QCURVE",
"193 -195 OFFCURVE",
"165 -166 OFFCURVE",
"165 -142 QCURVE",
"165 -120 OFFCURVE",
"194 -90 OFFCURVE",
"217 -91 QCURVE"
);
},
{
closed = 1;
nodes = (
"189 527 LINE",
"336 527 LINE",
"336 471 LINE",
"189 471 LINE",
"189 175 LINE",
"189 148 OFFCURVE",
"200 88 OFFCURVE",
"225 72 QCURVE",
"238 64 OFFCURVE",
"274 57 OFFCURVE",
"291 57 QCURVE",
"331 57 LINE",
"331 0 LINE",
"285 0 LINE",
"251 0 OFFCURVE",
"184 15 OFFCURVE",
"159 41 QCURVE",
"140 61 OFFCURVE",
"123 128 OFFCURVE",
"123 171 QCURVE",
"123 471 LINE",
"34 471 LINE",
"34 527 LINE",
"123 527 LINE",
"123 678 LINE",
"189 678 LINE"
);
}
);
width = 380;
}
);
leftKerningGroup = _kern21;
rightKerningGroup = _kern21;
unicode = 021B;
},
{
color = (166, 255, 153, 255);
glyphname = icircumflex;
layers = (
{
layerId = "65F68577-51D6-4015-BE17-9540A8734A9C";
paths = (
{
closed = 1;
nodes = (
"82 527 LINE",
"148 527 LINE",
"148 0 LINE",
"82 0 LINE"
);
},
{
closed = 1;
nodes = (
"114 737 LINE",
"36 640 LINE",
"-29 640 LINE",
"94 786 LINE",
"135 786 LINE",
"258 640 LINE",
"196 640 LINE"
);
}
);
width = 239;
}
);
unicode = 00EE;
},
{
color = (166, 255, 153, 255);
glyphname = question;
layers = (
{
layerId = "65F68577-51D6-4015-BE17-9540A8734A9C";
paths = (
{
closed = 1;
nodes = (
"198 216 LINE",
"196 240 OFFCURVE",
"208 289 OFFCURVE",
"221 309 QCURVE",
"241 340 OFFCURVE",
"298 392 OFFCURVE",
"324 418 QCURVE",
"349 444 OFFCURVE",
"385 504 OFFCURVE",
"385 539 QCURVE",
"385 568 OFFCURVE",
"363 612 OFFCURVE",
"327 641 OFFCURVE",
"278 656 OFFCURVE",
"251 656 QCURVE",
"228 656 OFFCURVE",
"184 648 OFFCURVE",
"147 629 OFFCURVE",
"118 598 OFFCURVE",
"111 574 QCURVE",
"42 574 LINE",
"49 610 OFFCURVE",
"91 664 OFFCURVE",
"149 699 OFFCURVE",
"218 715 OFFCURVE",
"253 715 QCURVE",
"293 715 OFFCURVE",
"365 694 OFFCURVE",
"419 651 OFFCURVE",
"450 587 OFFCURVE",
"450 543 QCURVE",
"450 484 OFFCURVE",
"395 403 OFFCURVE",
"354 365 QCURVE",
"339 350 OFFCURVE",
"306 317 OFFCURVE",
"292 300 QCURVE",
"276 280 OFFCURVE",
"266 240 OFFCURVE",
"265 216 QCURVE"
);
},
{
closed = 1;
nodes = (
"254 94 OFFCURVE",
"282 66 OFFCURVE",
"282 44 QCURVE",
"282 22 OFFCURVE",
"254 -8 OFFCURVE",
"231 -8 QCURVE",
"208 -8 OFFCURVE",
"181 22 OFFCURVE",
"181 44 QCURVE",
"181 66 OFFCURVE",
"208 94 OFFCURVE",
"231 94 QCURVE"
);
}
);
width = 510;
}
);
unicode = 003F;
},
{
color = (166, 255, 153, 255);
glyphname = uni2116;
layers = (
{
layerId = "65F68577-51D6-4015-BE17-9540A8734A9C";
paths = (
{
closed = 1;
nodes = (
"813 415 OFFCURVE",
"761 438 OFFCURVE",
"725 478 OFFCURVE",
"707 533 OFFCURVE",
"707 565 QCURVE",
"707 631 OFFCURVE",
"779 715 OFFCURVE",
"848 715 QCURVE",
"882 715 OFFCURVE",
"933 692 OFFCURVE",
"968 652 OFFCURVE",
"986 597 OFFCURVE",
"986 565 QCURVE",
"986 534 OFFCURVE",
"967 479 OFFCURVE",
"932 439 OFFCURVE",
"880 415 OFFCURVE",
"847 415 QCURVE"
);
},
{
closed = 1;
nodes = (
"802 664 OFFCURVE",
"760 607 OFFCURVE",
"760 565 QCURVE",
"760 522 OFFCURVE",
"801 465 OFFCURVE",
"847 465 QCURVE",
"892 465 OFFCURVE",
"930 524 OFFCURVE",
"930 565 QCURVE",
"930 607 OFFCURVE",
"890 663 OFFCURVE",
"847 664 QCURVE"
);
},
{
closed = 1;
nodes = (
"64 0 LINE",
"64 707 LINE",
"166 707 LINE",
"555 64 LINE",
"555 707 LINE",
"620 707 LINE",
"620 0 LINE",
"520 0 LINE",
"129 641 LINE",
"129 0 LINE"
);
},
{
closed = 1;
nodes = (
"979 282 LINE",
"714 282 LINE",
"714 342 LINE",
"979 342 LINE"
);
}
);
width = 1050;
}
);
unicode = 2116;
},
{
color = (166, 255, 153, 255);
glyphname = uni0401;
layers = (
{
layerId = "65F68577-51D6-4015-BE17-9540A8734A9C";
paths = (
{
closed = 1;
nodes = (
"230 925 OFFCURVE",
"257 900 OFFCURVE",
"257 879 QCURVE",
"257 856 OFFCURVE",
"233 830 OFFCURVE",
"210 830 QCURVE",
"187 830 OFFCURVE",
"162 856 OFFCURVE",
"162 879 QCURVE",
"162 900 OFFCURVE",
"190 925 OFFCURVE",
"210 925 QCURVE"
);
},
{
closed = 1;
nodes = (
"469 925 OFFCURVE",
"496 900 OFFCURVE",
"496 879 QCURVE",
"496 856 OFFCURVE",
"472 830 OFFCURVE",
"449 830 QCURVE",
"426 830 OFFCURVE",
"402 856 OFFCURVE",
"402 879 QCURVE",
"402 900 OFFCURVE",
"429 925 OFFCURVE",
"449 925 QCURVE"
);
},
{
closed = 1;
nodes = (
"92 707 LINE",
"557 707 LINE",
"557 647 LINE",
"157 647 LINE",
"157 381 LINE",
"517 381 LINE",
"517 321 LINE",
"157 321 LINE",
"157 60 LINE",
"557 60 LINE",
"557 0 LINE",
"92 0 LINE"
);
}
);
width = 610;
}
);
unicode = 0401;
},
{
color = (166, 255, 153, 255);
glyphname = asciitilde;
layers = (
{
layerId = "65F68577-51D6-4015-BE17-9540A8734A9C";
paths = (
{
closed = 1;
nodes = (
"258 443 OFFCURVE",
"310 408 OFFCURVE",
"355 365 OFFCURVE",
"396 330 OFFCURVE",
"420 330 QCURVE",
"439 330 OFFCURVE",
"462 348 OFFCURVE",
"474 377 OFFCURVE",
"479 411 OFFCURVE",
"480 426 QCURVE",
"542 426 LINE",
"540 396 OFFCURVE",
"526 341 OFFCURVE",
"497 298 OFFCURVE",
"450 273 OFFCURVE",
"416 273 QCURVE",
"380 273 OFFCURVE",
"327 308 OFFCURVE",
"283 350 OFFCURVE",
"242 385 OFFCURVE",
"218 385 QCURVE",
"200 385 OFFCURVE",
"177 366 OFFCURVE",
"165 337 OFFCURVE",
"160 303 OFFCURVE",
"160 288 QCURVE",
"97 288 LINE",
"98 318 OFFCURVE",
"112 374 OFFCURVE",
"142 417 OFFCURVE",
"189 443 OFFCURVE",
"223 443 QCURVE"
);
}
);
width = 639;
}
);
unicode = 007E;
},
{
color = (166, 255, 153, 255);
glyphname = trademark;
layers = (
{
layerId = "65F68577-51D6-4015-BE17-9540A8734A9C";
paths = (
{
closed = 1;
nodes = (
"152 669 LINE",
"64 669 LINE",
"64 707 LINE",
"282 707 LINE",
"282 669 LINE",
"193 669 LINE",
"193 459 LINE",
"152 459 LINE"
);
},
{
closed = 1;
nodes = (
"431 515 LINE",
"361 668 LINE",
"361 459 LINE",
"320 459 LINE",
"320 707 LINE",
"385 707 LINE",
"446 571 LINE",
"507 707 LINE",
"570 707 LINE",
"570 459 LINE",
"529 459 LINE",
"529 668 LINE",
"459 515 LINE"
);
}
);
width = 634;
}
);
unicode = 2122;
},
{
color = (166, 255, 153, 255);
glyphname = registered;
layers = (
{
layerId = "65F68577-51D6-4015-BE17-9540A8734A9C";
paths = (
{
closed = 1;
nodes = (
"284 745 OFFCURVE",
"352 718 OFFCURVE",
"400 668 OFFCURVE",
"425 600 OFFCURVE",
"425 558 QCURVE",
"425 474 OFFCURVE",
"326 377 OFFCURVE",
"242 377 QCURVE",
"158 377 OFFCURVE",
"57 473 OFFCURVE",
"57 558 QCURVE",
"57 600 OFFCURVE",
"83 669 OFFCURVE",
"131 718 OFFCURVE",
"200 745 OFFCURVE",
"242 745 QCURVE"
);
},
{
closed = 1;
nodes = (
"173 711 OFFCURVE",
"94 626 OFFCURVE",
"94 558 QCURVE",
"94 490 OFFCURVE",
"173 412 OFFCURVE",
"242 412 QCURVE",
"310 412 OFFCURVE",
"387 490 OFFCURVE",
"387 558 QCURVE",
"387 626 OFFCURVE",
"311 711 OFFCURVE",
"242 711 QCURVE"
);
},
{
closed = 1;
nodes = (
"288 471 LINE",
"243 540 LINE",
"206 540 LINE",
"206 471 LINE",
"175 471 LINE",
"175 656 LINE",
"254 656 LINE",
"283 656 OFFCURVE",
"319 630 OFFCURVE",
"319 599 QCURVE",
"319 576 OFFCURVE",
"296 549 OFFCURVE",
"278 543 QCURVE",
"326 471 LINE"
);
},
{
closed = 1;
nodes = (
"206 625 LINE",
"206 568 LINE",
"251 568 LINE",
"265 568 OFFCURVE",
"287 581 OFFCURVE",
"287 598 QCURVE",
"287 613 OFFCURVE",
"267 625 OFFCURVE",
"253 625 QCURVE"
);
}
);
width = 482;
}
);
unicode = 00AE;
},
{
color = (166, 255, 153, 255);
glyphname = degree;
layers = (
{
layerId = "65F68577-51D6-4015-BE17-9540A8734A9C";
paths = (
{
closed = 1;
nodes = (
"222 617 OFFCURVE",
"264 664 OFFCURVE",
"264 701 QCURVE",
"264 738 OFFCURVE",
"222 786 OFFCURVE",
"184 786 QCURVE",
"146 786 OFFCURVE",
"103 738 OFFCURVE",
"103 701 QCURVE",
"103 663 OFFCURVE",
"146 617 OFFCURVE",
"184 617 QCURVE"
);
},
{
closed = 1;
nodes = (
"127 581 OFFCURVE",
"64 647 OFFCURVE",
"64 701 QCURVE",
"64 754 OFFCURVE",
"129 821 OFFCURVE",
"185 821 QCURVE",
"241 821 OFFCURVE",
"303 753 OFFCURVE",
"303 701 QCURVE",
"303 648 OFFCURVE",
"240 581 OFFCURVE",
"184 581 QCURVE"
);
}
);
width = 367;
}
);
unicode = 00B0;
},
{
color = (166, 255, 153, 255);
glyphname = bullet;
layers = (
{
layerId = "65F68577-51D6-4015-BE17-9540A8734A9C";
paths = (
{
closed = 1;
nodes = (
"206 464 OFFCURVE",
"259 408 OFFCURVE",
"259 366 QCURVE",
"259 324 OFFCURVE",
"207 266 OFFCURVE",
"161 266 QCURVE",
"116 266 OFFCURVE",
"64 324 OFFCURVE",
"64 366 QCURVE",
"64 408 OFFCURVE",
"117 464 OFFCURVE",
"161 464 QCURVE"
);
}
);
width = 323;
}
);
unicode = 2022;
},
{
color = (166, 255, 153, 255);
glyphname = uni27F5;
layers = (
{
layerId = "65F68577-51D6-4015-BE17-9540A8734A9C";
paths = (
{
closed = 1;
nodes = (
"1307 235 LINE",
"178 235 LINE",
"415 -1 LINE",
"372 -47 LINE",
"64 265 LINE",
"372 578 LINE",
"415 532 LINE",
"178 295 LINE",
"1307 295 LINE"
);
}
);
width = 1371;
}
);
unicode = 27F5;
},
{
color = (166, 255, 153, 255);
glyphname = uni27F6;
layers = (
{
layerId = "65F68577-51D6-4015-BE17-9540A8734A9C";
paths = (
{
closed = 1;
nodes = (
"64 295 LINE",
"1193 295 LINE",
"956 532 LINE",
"999 578 LINE",
"1307 265 LINE",
"999 -47 LINE",
"956 -1 LINE",
"1193 235 LINE",
"64 235 LINE"
);
}
);
width = 1371;
}
);
unicode = 27F6;
},
{
color = (166, 255, 153, 255);
glyphname = arrowup;
layers = (
{
layerId = "65F68577-51D6-4015-BE17-9540A8734A9C";
paths = (
{
closed = 1;
nodes = (
"383 0 LINE",
"325 0 LINE",
"325 554 LINE",
"107 294 LINE",
"64 332 LINE",
"354 668 LINE",
"645 332 LINE",
"601 294 LINE",
"383 554 LINE"
);
}
);
width = 709;
}
);
unicode = 2191;
},
{
color = (166, 255, 153, 255);
glyphname = arrowdown;
layers = (
{
layerId = "65F68577-51D6-4015-BE17-9540A8734A9C";
paths = (
{
closed = 1;
nodes = (
"326 668 LINE",
"384 668 LINE",
"384 114 LINE",
"602 374 LINE",
"645 336 LINE",
"355 0 LINE",
"64 336 LINE",
"108 374 LINE",
"326 114 LINE"
);
}
);
width = 709;
}
);
unicode = 2193;
},
{
color = (166, 255, 153, 255);
glyphname = uni21BA;
layers = (
{
layerId = "65F68577-51D6-4015-BE17-9540A8734A9C";
paths = (
{
closed = 1;
nodes = (
"614 710 LINE",
"710 650 OFFCURVE",
"817 451 OFFCURVE",
"817 328 QCURVE",
"817 248 OFFCURVE",
"762 109 OFFCURVE",
"663 7 OFFCURVE",
"527 -51 OFFCURVE",
"446 -51 QCURVE",
"360 -51 OFFCURVE",
"220 6 OFFCURVE",
"120 108 OFFCURVE",
"65 250 OFFCURVE",
"65 335 QCURVE",
"65 426 OFFCURVE",
"128 590 OFFCURVE",
"193 655 QCURVE",
"239 607 LINE",
"188 550 OFFCURVE",
"132 411 OFFCURVE",
"132 335 QCURVE",
"132 267 OFFCURVE",
"176 150 OFFCURVE",
"257 63 OFFCURVE",
"371 13 OFFCURVE",
"440 13 QCURVE",
"510 13 OFFCURVE",
"624 61 OFFCURVE",
"705 146 OFFCURVE",
"749 263 OFFCURVE",
"749 331 QCURVE",
"749 378 OFFCURVE",
"725 471 OFFCURVE",
"680 558 OFFCURVE",
"615 634 OFFCURVE",
"574 664 QCURVE",
"569 424 LINE",
"505 424 LINE",
"514 771 LINE",
"863 761 LINE",
"861 699 LINE"
);
}
);
width = 927;
}
);
unicode = 21BA;
},
{
color = (166, 255, 153, 255);
glyphname = uni21BB;
layers = (
{
layerId = "65F68577-51D6-4015-BE17-9540A8734A9C";
paths = (
{
closed = 1;
nodes = (
"66 699 LINE",
"64 761 LINE",
"413 771 LINE",
"422 424 LINE",
"358 424 LINE",
"353 664 LINE",
"312 634 OFFCURVE",
"247 558 OFFCURVE",
"202 471 OFFCURVE",
"178 378 OFFCURVE",
"178 331 QCURVE",
"178 263 OFFCURVE",
"222 146 OFFCURVE",
"303 61 OFFCURVE",
"417 13 OFFCURVE",
"487 13 QCURVE",
"556 13 OFFCURVE",
"669 63 OFFCURVE",
"750 150 OFFCURVE",
"795 267 OFFCURVE",
"795 335 QCURVE",
"795 411 OFFCURVE",
"739 550 OFFCURVE",
"688 607 QCURVE",
"734 655 LINE",
"799 590 OFFCURVE",
"862 426 OFFCURVE",
"862 335 QCURVE",
"862 250 OFFCURVE",
"807 108 OFFCURVE",
"707 6 OFFCURVE",
"566 -51 OFFCURVE",
"481 -51 QCURVE",
"400 -51 OFFCURVE",
"264 7 OFFCURVE",
"165 109 OFFCURVE",
"110 248 OFFCURVE",
"110 328 QCURVE",
"110 451 OFFCURVE",
"217 650 OFFCURVE",
"313 710 QCURVE"
);
}
);
width = 927;
}
);
unicode = 21BB;
},
{
color = (166, 255, 153, 255);
glyphname = uni21B7;
layers = (
{
layerId = "65F68577-51D6-4015-BE17-9540A8734A9C";
paths = (
{
closed = 1;
nodes = (
"935 147 LINE",
"956 85 LINE",
"628 -28 LINE",
"525 306 LINE",
"584 325 LINE",
"655 81 LINE",
"678 114 OFFCURVE",
"711 185 OFFCURVE",
"732 256 OFFCURVE",
"742 322 OFFCURVE",
"742 351 QCURVE",
"742 420 OFFCURVE",
"700 537 OFFCURVE",
"621 624 OFFCURVE",
"508 673 OFFCURVE",
"437 673 QCURVE",
"373 673 OFFCURVE",
"268 629 OFFCURVE",
"190 553 OFFCURVE",
"140 449 OFFCURVE",
"132 388 QCURVE",
"64 388 LINE",
"73 463 OFFCURVE",
"133 592 OFFCURVE",
"229 686 OFFCURVE",
"359 739 OFFCURVE",
"437 739 QCURVE",
"523 739 OFFCURVE",
"661 680 OFFCURVE",
"757 577 OFFCURVE",
"808 435 OFFCURVE",
"808 351 QCURVE",
"808 313 OFFCURVE",
"795 233 OFFCURVE",
"769 156 OFFCURVE",
"732 86 OFFCURVE",
"708 57 QCURVE"
);
}
);
width = 1020;
}
);
unicode = 21B7;
},
{
color = (166, 255, 153, 255);
glyphname = uni21B6;
layers = (
{
layerId = "65F68577-51D6-4015-BE17-9540A8734A9C";
paths = (
{
closed = 1;
nodes = (
"309 57 LINE",
"285 86 OFFCURVE",
"248 156 OFFCURVE",
"224 233 OFFCURVE",
"211 313 OFFCURVE",
"211 351 QCURVE",
"211 435 OFFCURVE",
"262 577 OFFCURVE",
"358 680 OFFCURVE",
"496 739 OFFCURVE",
"582 739 QCURVE",
"660 739 OFFCURVE",
"790 686 OFFCURVE",
"886 592 OFFCURVE",
"946 463 OFFCURVE",
"955 388 QCURVE",
"887 388 LINE",
"879 449 OFFCURVE",
"829 553 OFFCURVE",
"750 629 OFFCURVE",
"645 673 OFFCURVE",
"582 673 QCURVE",
"511 673 OFFCURVE",
"398 624 OFFCURVE",
"319 537 OFFCURVE",
"277 420 OFFCURVE",
"277 351 QCURVE",
"277 322 OFFCURVE",
"287 256 OFFCURVE",
"308 185 OFFCURVE",
"341 114 OFFCURVE",
"364 81 QCURVE",
"434 325 LINE",
"493 306 LINE",
"391 -30 LINE",
"64 85 LINE",
"84 147 LINE"
);
}
);
width = 1019;
}
);
unicode = 21B6;
},
{
color = (166, 255, 153, 255);
glyphname = five;
layers = (
{
layerId = "65F68577-51D6-4015-BE17-9540A8734A9C";
paths = (
{
closed = 1;
nodes = (
"85 320 LINE",
"119 707 LINE",
"530 707 LINE",
"530 647 LINE",
"177 647 LINE",
"153 386 LINE",
"191 417 OFFCURVE",
"283 446 OFFCURVE",
"334 446 QCURVE",
"384 446 OFFCURVE",
"466 414 OFFCURVE",
"524 356 OFFCURVE",
"556 274 OFFCURVE",
"556 224 QCURVE",
"556 167 OFFCURVE",
"517 81 OFFCURVE",
"449 22 OFFCURVE",
"357 -8 OFFCURVE",
"304 -8 QCURVE",
"265 -8 OFFCURVE",
"189 9 OFFCURVE",
"126 45 OFFCURVE",
"78 102 OFFCURVE",
"67 143 QCURVE",
"136 143 LINE",
"146 120 OFFCURVE",
"182 86 OFFCURVE",
"228 63 OFFCURVE",
"278 51 OFFCURVE",
"301 51 QCURVE",
"342 51 OFFCURVE",
"411 71 OFFCURVE",
"460 113 OFFCURVE",
"488 176 OFFCURVE",
"488 219 QCURVE",
"488 300 OFFCURVE",
"393 386 OFFCURVE",
"314 386 QCURVE",
"272 386 OFFCURVE",
"192 350 OFFCURVE",
"161 320 QCURVE"
);
}
);
width = 615;
}
);
unicode = 0035;
},
{
color = (166, 255, 153, 255);
glyphname = six;
layers = (
{
layerId = "65F68577-51D6-4015-BE17-9540A8734A9C";
paths = (
{
closed = 1;
nodes = (
"391 445 OFFCURVE",
"473 412 OFFCURVE",
"533 354 OFFCURVE",
"567 272 OFFCURVE",
"567 223 QCURVE",
"567 171 OFFCURVE",
"531 86 OFFCURVE",
"467 25 OFFCURVE",
"380 -8 OFFCURVE",
"328 -8 QCURVE",
"255 -8 OFFCURVE",
"142 56 OFFCURVE",
"108 121 QCURVE",
"82 172 OFFCURVE",
"62 297 OFFCURVE",
"64 352 QCURVE",
"65 390 OFFCURVE",
"75 470 OFFCURVE",
"98 548 OFFCURVE",
"136 618 OFFCURVE",
"164 645 QCURVE",
"198 679 OFFCURVE",
"289 715 OFFCURVE",
"345 715 QCURVE",
"415 715 OFFCURVE",
"529 645 OFFCURVE",
"556 579 QCURVE",
"486 579 LINE",
"465 617 OFFCURVE",
"385 656 OFFCURVE",
"343 656 QCURVE",
"280 656 OFFCURVE",
"198 600 OFFCURVE",
"174 556 QCURVE",
"147 506 OFFCURVE",
"129 383 OFFCURVE",
"129 330 QCURVE",
"159 386 OFFCURVE",
"275 445 OFFCURVE",
"339 445 QCURVE"
);
},
{
closed = 1;
nodes = (
"500 251 OFFCURVE",
"476 313 OFFCURVE",
"433 359 OFFCURVE",
"371 385 OFFCURVE",
"334 385 QCURVE",
"299 385 OFFCURVE",
"233 360 OFFCURVE",
"184 315 OFFCURVE",
"154 254 OFFCURVE",
"155 218 QCURVE",
"156 182 OFFCURVE",
"184 121 OFFCURVE",
"232 76 OFFCURVE",
"294 51 OFFCURVE",
"329 51 QCURVE",
"364 51 OFFCURVE",
"426 75 OFFCURVE",
"472 118 OFFCURVE",
"500 178 OFFCURVE",
"500 214 QCURVE"
);
}
);
width = 626;
}
);
unicode = 0036;
},
{
color = (166, 255, 153, 255);
glyphname = dieresis;
layers = (
{
layerId = "65F68577-51D6-4015-BE17-9540A8734A9C";
paths = (
{
closed = 1;
nodes = (
"413 707 OFFCURVE",
"441 678 OFFCURVE",
"441 656 QCURVE",
"441 635 OFFCURVE",
"414 605 OFFCURVE",
"390 605 QCURVE",
"367 605 OFFCURVE",
"340 635 OFFCURVE",
"340 656 QCURVE",
"340 678 OFFCURVE",
"367 707 OFFCURVE",
"390 707 QCURVE"
);
},
{
closed = 1;
nodes = (
"195 707 OFFCURVE",
"223 678 OFFCURVE",
"223 656 QCURVE",
"223 635 OFFCURVE",
"196 605 OFFCURVE",
"172 605 QCURVE",
"149 605 OFFCURVE",
"122 635 OFFCURVE",
"122 656 QCURVE",
"122 678 OFFCURVE",
"149 707 OFFCURVE",
"172 707 QCURVE"
);
}
);
width = 563;
}
);
unicode = 00A8;
},
{
color = (166, 255, 153, 255);
glyphname = adieresis;
layers = (
{
layerId = "65F68577-51D6-4015-BE17-9540A8734A9C";
paths = (
{
closed = 1;
nodes = (
"191 719 OFFCURVE",
"221 692 OFFCURVE",
"221 671 QCURVE",
"221 650 OFFCURVE",
"191 623 OFFCURVE",
"171 623 QCURVE",
"151 623 OFFCURVE",
"122 651 OFFCURVE",
"122 671 QCURVE",
"122 691 OFFCURVE",
"151 719 OFFCURVE",
"171 719 QCURVE"
);
},
{
closed = 1;
nodes = (
"421 719 OFFCURVE",
"451 692 OFFCURVE",
"451 671 QCURVE",
"451 650 OFFCURVE",
"421 623 OFFCURVE",
"401 623 QCURVE",
"381 623 OFFCURVE",
"353 651 OFFCURVE",
"353 671 QCURVE",
"353 691 OFFCURVE",
"381 719 OFFCURVE",
"401 719 QCURVE"
);
},
{
closed = 1;
nodes = (
"430 76 LINE",
"392 29 OFFCURVE",
"295 -6 OFFCURVE",
"237 -6 QCURVE",
"202 -6 OFFCURVE",
"136 12 OFFCURVE",
"85 50 OFFCURVE",
"54 106 OFFCURVE",
"54 145 QCURVE",
"54 190 OFFCURVE",
"88 250 OFFCURVE",
"143 286 OFFCURVE",
"215 301 OFFCURVE",
"254 301 QCURVE",
"427 301 LINE",
"427 337 OFFCURVE",
"412 401 OFFCURVE",
"378 449 OFFCURVE",
"323 477 OFFCURVE",
"283 477 QCURVE",
"264 477 OFFCURVE",
"225 471 OFFCURVE",
"190 457 OFFCURVE",
"161 432 OFFCURVE",
"152 414 QCURVE",
"80 414 LINE",
"89 447 OFFCURVE",
"131 492 OFFCURVE",
"187 520 OFFCURVE",
"253 533 OFFCURVE",
"285 533 QCURVE",
"343 533 OFFCURVE",
"423 495 OFFCURVE",
"472 428 OFFCURVE",
"493 338 OFFCURVE",
"493 286 QCURVE",
"493 0 LINE",
"439 0 LINE"
);
},
{
closed = 1;
nodes = (
"288 248 LINE",
"262 248 OFFCURVE",
"203 244 OFFCURVE",
"153 225 OFFCURVE",
"120 186 OFFCURVE",
"120 152 QCURVE",
"120 125 OFFCURVE",
"141 87 OFFCURVE",
"176 61 OFFCURVE",
"221 49 OFFCURVE",
"245 49 QCURVE",
"284 49 OFFCURVE",
"351 69 OFFCURVE",
"400 110 OFFCURVE",
"427 171 OFFCURVE",
"427 212 QCURVE",
"427 248 LINE"
);
}
);
width = 563;
}
);
leftKerningGroup = _kern27;
rightKerningGroup = _kern27;
unicode = 00E4;
},
{
color = (166, 255, 153, 255);
glyphname = Adieresis;
layers = (
{
layerId = "65F68577-51D6-4015-BE17-9540A8734A9C";
paths = (
{
closed = 1;
nodes = (
"229 900 OFFCURVE",
"256 875 OFFCURVE",
"256 854 QCURVE",
"256 831 OFFCURVE",
"232 805 OFFCURVE",
"209 805 QCURVE",
"186 805 OFFCURVE",
"161 831 OFFCURVE",
"161 854 QCURVE",
"161 875 OFFCURVE",
"189 900 OFFCURVE",
"209 900 QCURVE"
);
},
{
closed = 1;
nodes = (
"468 900 OFFCURVE",
"495 875 OFFCURVE",
"495 854 QCURVE",
"495 831 OFFCURVE",
"471 805 OFFCURVE",
"448 805 QCURVE",
"425 805 OFFCURVE",
"401 831 OFFCURVE",
"401 854 QCURVE",
"401 875 OFFCURVE",
"428 900 OFFCURVE",
"448 900 QCURVE"
);
},
{
closed = 1;
nodes = (
"146 157 LINE",
"88 0 LINE",
"15 0 LINE",
"279 707 LINE",
"370 707 LINE",
"633 0 LINE",
"560 0 LINE",
"502 157 LINE"
);
},
{
closed = 1;
nodes = (
"168 217 LINE",
"481 217 LINE",
"324 646 LINE"
);
}
);
width = 648;
}
);
leftKerningGroup = _kern30;
rightKerningGroup = _kern30;
unicode = 00C4;
},
{
color = (166, 255, 153, 255);
glyphname = cedilla;
layers = (
{
layerId = "65F68577-51D6-4015-BE17-9540A8734A9C";
paths = (
{
closed = 1;
nodes = (
"278 -80 LINE",
"323 -72 OFFCURVE",
"355 -89 QCURVE",
"387 -109 OFFCURVE",
"387 -157 QCURVE",
"387 -191 OFFCURVE",
"356 -235 OFFCURVE",
"308 -260 OFFCURVE",
"250 -266 OFFCURVE",
"222 -262 QCURVE",
"222 -222 LINE",
"239 -224 OFFCURVE",
"279 -221 OFFCURVE",
"313 -209 OFFCURVE",
"336 -184 OFFCURVE",
"336 -159 QCURVE",
"335 -137 OFFCURVE",
"308 -117 OFFCURVE",
"285 -117 QCURVE",
"272 -117 OFFCURVE",
"237 -121 OFFCURVE",
"225 -124 QCURVE",
"254 7 LINE",
"298 7 LINE"
);
}
);
width = 593;
}
);
unicode = 00B8;
},
{
color = (166, 255, 153, 255);
glyphname = Ecircumflex;
layers = (
{
layerId = "65F68577-51D6-4015-BE17-9540A8734A9C";
paths = (
{
closed = 1;
nodes = (
"329 895 LINE",
"250 798 LINE",
"186 798 LINE",
"309 944 LINE",
"350 944 LINE",
"473 798 LINE",
"411 798 LINE"
);
},
{
closed = 1;
nodes = (
"92 707 LINE",
"557 707 LINE",
"557 647 LINE",
"157 647 LINE",
"157 381 LINE",
"517 381 LINE",
"517 321 LINE",
"157 321 LINE",
"157 60 LINE",
"557 60 LINE",
"557 0 LINE",
"92 0 LINE"
);
}
);
width = 610;
}
);
unicode = 00CA;
},
{
color = (166, 255, 153, 255);
glyphname = ecircumflex;
layers = (
{
layerId = "65F68577-51D6-4015-BE17-9540A8734A9C";
paths = (
{
closed = 1;
nodes = (
"113 242 LINE",
"115 200 OFFCURVE",
"140 130 OFFCURVE",
"186 79 OFFCURVE",
"253 50 OFFCURVE",
"298 50 QCURVE",
"319 50 OFFCURVE",
"362 58 OFFCURVE",
"401 75 OFFCURVE",
"433 103 OFFCURVE",
"442 124 QCURVE",
"511 124 LINE",
"500 89 OFFCURVE",
"455 39 OFFCURVE",
"397 8 OFFCURVE",
"329 -6 OFFCURVE",
"295 -6 QCURVE",
"233 -6 OFFCURVE",
"140 34 OFFCURVE",
"78 105 OFFCURVE",
"48 204 OFFCURVE",
"48 263 QCURVE",
"48 323 OFFCURVE",
"80 423 OFFCURVE",
"143 494 OFFCURVE",
"236 533 OFFCURVE",
"296 533 QCURVE",
"359 533 OFFCURVE",
"446 483 OFFCURVE",
"500 402 OFFCURVE",
"523 297 OFFCURVE",
"521 242 QCURVE"
);
},
{
closed = 1;
nodes = (
"454 297 LINE",
"453 333 OFFCURVE",
"432 399 OFFCURVE",
"391 448 OFFCURVE",
"329 477 OFFCURVE",
"288 477 QCURVE",
"247 477 OFFCURVE",
"184 447 OFFCURVE",
"140 397 OFFCURVE",
"116 332 OFFCURVE",
"114 297 QCURVE"
);
},
{
closed = 1;
nodes = (
"291 720 LINE",
"213 623 LINE",
"148 623 LINE",
"271 769 LINE",
"312 769 LINE",
"435 623 LINE",
"373 623 LINE"
);
}
);
width = 571;
}
);
leftKerningGroup = _kern5;
rightKerningGroup = _kern6;
unicode = 00EA;
},
{
color = (166, 255, 153, 255);
glyphname = Odieresis;
layers = (
{
layerId = "65F68577-51D6-4015-BE17-9540A8734A9C";
paths = (
{
closed = 1;
nodes = (
"287 900 OFFCURVE",
"314 875 OFFCURVE",
"314 854 QCURVE",
"314 831 OFFCURVE",
"290 805 OFFCURVE",
"267 805 QCURVE",
"244 805 OFFCURVE",
"219 831 OFFCURVE",
"219 854 QCURVE",
"219 875 OFFCURVE",
"247 900 OFFCURVE",
"267 900 QCURVE"
);
},
{
closed = 1;
nodes = (
"526 900 OFFCURVE",
"553 875 OFFCURVE",
"553 854 QCURVE",
"553 831 OFFCURVE",
"529 805 OFFCURVE",
"506 805 QCURVE",
"483 805 OFFCURVE",
"459 831 OFFCURVE",
"459 854 QCURVE",
"459 875 OFFCURVE",
"486 900 OFFCURVE",
"506 900 QCURVE"
);
},
{
closed = 1;
nodes = (
"302 -8 OFFCURVE",
"178 46 OFFCURVE",
"95 143 OFFCURVE",
"53 275 OFFCURVE",
"53 353 QCURVE",
"53 431 OFFCURVE",
"95 564 OFFCURVE",
"178 660 OFFCURVE",
"302 715 OFFCURVE",
"384 715 QCURVE",
"466 715 OFFCURVE",
"589 660 OFFCURVE",
"672 563 OFFCURVE",
"714 431 OFFCURVE",
"714 353 QCURVE",
"714 275 OFFCURVE",
"672 143 OFFCURVE",
"589 47 OFFCURVE",
"466 -8 OFFCURVE",
"384 -8 QCURVE"
);
},
{
closed = 1;
nodes = (
"317 656 OFFCURVE",
"217 608 OFFCURVE",
"151 525 OFFCURVE",
"119 415 OFFCURVE",
"119 353 QCURVE",
"119 291 OFFCURVE",
"152 181 OFFCURVE",
"218 99 OFFCURVE",
"317 51 OFFCURVE",
"384 51 QCURVE",
"451 51 OFFCURVE",
"551 98 OFFCURVE",
"615 180 OFFCURVE",
"647 290 OFFCURVE",
"647 353 QCURVE",
"647 415 OFFCURVE",
"615 525 OFFCURVE",
"550 608 OFFCURVE",
"451 656 OFFCURVE",
"384 656 QCURVE"
);
}
);
width = 767;
}
);
leftKerningGroup = _kern3;
rightKerningGroup = _kern4;
unicode = 00D6;
},
{
color = (166, 255, 153, 255);
glyphname = odieresis;
layers = (
{
layerId = "65F68577-51D6-4015-BE17-9540A8734A9C";
paths = (
{
closed = 1;
nodes = (
"202 719 OFFCURVE",
"232 692 OFFCURVE",
"232 671 QCURVE",
"232 650 OFFCURVE",
"202 623 OFFCURVE",
"182 623 QCURVE",
"162 623 OFFCURVE",
"133 651 OFFCURVE",
"133 671 QCURVE",
"133 691 OFFCURVE",
"162 719 OFFCURVE",
"182 719 QCURVE"
);
},
{
closed = 1;
nodes = (
"432 719 OFFCURVE",
"462 692 OFFCURVE",
"462 671 QCURVE",
"462 650 OFFCURVE",
"432 623 OFFCURVE",
"412 623 QCURVE",
"392 623 OFFCURVE",
"364 651 OFFCURVE",
"364 671 QCURVE",
"364 691 OFFCURVE",
"392 719 OFFCURVE",
"412 719 QCURVE"
);
},
{
closed = 1;
nodes = (
"345 50 OFFCURVE",
"415 83 OFFCURVE",
"460 141 OFFCURVE",
"481 219 OFFCURVE",
"481 263 QCURVE",
"481 307 OFFCURVE",
"460 385 OFFCURVE",
"415 443 OFFCURVE",
"345 477 OFFCURVE",
"297 477 QCURVE",
"249 477 OFFCURVE",
"179 443 OFFCURVE",
"134 385 OFFCURVE",
"113 307 OFFCURVE",
"113 263 QCURVE",
"113 219 OFFCURVE",
"134 141 OFFCURVE",
"179 83 OFFCURVE",
"249 50 OFFCURVE",
"297 50 QCURVE"
);
},
{
closed = 1;
nodes = (
"359 533 OFFCURVE",
"452 493 OFFCURVE",
"515 421 OFFCURVE",
"547 322 OFFCURVE",
"547 263 QCURVE",
"547 204 OFFCURVE",
"515 105 OFFCURVE",
"452 34 OFFCURVE",
"359 -6 OFFCURVE",
"297 -6 QCURVE",
"235 -6 OFFCURVE",
"142 34 OFFCURVE",
"79 105 OFFCURVE",
"48 204 OFFCURVE",
"48 263 QCURVE",
"48 322 OFFCURVE",
"79 421 OFFCURVE",
"142 493 OFFCURVE",
"235 533 OFFCURVE",
"297 533 QCURVE"
);
}
);
width = 595;
}
);
leftKerningGroup = _kern5;
rightKerningGroup = _kern6;
unicode = 00F6;
},
{
color = (166, 255, 153, 255);
glyphname = dotlessi;
layers = (
{
layerId = "65F68577-51D6-4015-BE17-9540A8734A9C";
paths = (
{
closed = 1;
nodes = (
"138 0 LINE",
"72 0 LINE",
"72 527 LINE",
"138 527 LINE"
);
}
);
width = 210;
}
);
unicode = 0131;
},
{
color = (166, 255, 153, 255);
glyphname = Idotaccent;
layers = (
{
layerId = "65F68577-51D6-4015-BE17-9540A8734A9C";
paths = (
{
closed = 1;
nodes = (
"160 0 LINE",
"95 0 LINE",
"95 707 LINE",
"160 707 LINE"
);
},
{
closed = 1;
nodes = (
"149 904 OFFCURVE",
"177 878 OFFCURVE",
"177 856 QCURVE",
"177 833 OFFCURVE",
"149 807 OFFCURVE",
"127 807 QCURVE",
"105 807 OFFCURVE",
"78 833 OFFCURVE",
"78 856 QCURVE",
"78 879 OFFCURVE",
"105 904 OFFCURVE",
"127 904 QCURVE"
);
}
);
width = 255;
}
);
leftKerningGroup = _kern1;
rightKerningGroup = _kern2;
unicode = 0130;
},
{
color = (166, 255, 153, 255);
glyphname = udieresis;
layers = (
{
layerId = "65F68577-51D6-4015-BE17-9540A8734A9C";
paths = (
{
closed = 1;
nodes = (
"196 719 OFFCURVE",
"226 692 OFFCURVE",
"226 671 QCURVE",
"226 650 OFFCURVE",
"196 623 OFFCURVE",
"176 623 QCURVE",
"156 623 OFFCURVE",
"127 651 OFFCURVE",
"127 671 QCURVE",
"127 691 OFFCURVE",
"156 719 OFFCURVE",
"176 719 QCURVE"
);
},
{
closed = 1;
nodes = (
"426 719 OFFCURVE",
"456 692 OFFCURVE",
"456 671 QCURVE",
"456 650 OFFCURVE",
"426 623 OFFCURVE",
"406 623 QCURVE",
"386 623 OFFCURVE",
"358 651 OFFCURVE",
"358 671 QCURVE",
"358 691 OFFCURVE",
"386 719 OFFCURVE",
"406 719 QCURVE"
);
},
{
closed = 1;
nodes = (
"331 50 OFFCURVE",
"390 77 OFFCURVE",
"426 125 OFFCURVE",
"442 191 OFFCURVE",
"442 231 QCURVE",
"442 527 LINE",
"508 527 LINE",
"508 229 LINE",
"508 117 OFFCURVE",
"404 -6 OFFCURVE",
"288 -6 QCURVE",
"173 -6 OFFCURVE",
"70 117 OFFCURVE",
"70 229 QCURVE",
"70 527 LINE",
"136 527 LINE",
"136 231 LINE",
"136 193 OFFCURVE",
"152 127 OFFCURVE",
"188 78 OFFCURVE",
"246 50 OFFCURVE",
"288 50 QCURVE"
);
}
);
width = 578;
}
);
unicode = 00FC;
},
{
color = (166, 255, 153, 255);
glyphname = Udieresis;
layers = (
{
layerId = "65F68577-51D6-4015-BE17-9540A8734A9C";
paths = (
{
closed = 1;
nodes = (
"266 900 OFFCURVE",
"293 875 OFFCURVE",
"293 854 QCURVE",
"293 831 OFFCURVE",
"269 805 OFFCURVE",
"246 805 QCURVE",
"223 805 OFFCURVE",
"198 831 OFFCURVE",
"198 854 QCURVE",
"198 875 OFFCURVE",
"226 900 OFFCURVE",
"246 900 QCURVE"
);
},
{
closed = 1;
nodes = (
"505 900 OFFCURVE",
"532 875 OFFCURVE",
"532 854 QCURVE",
"532 831 OFFCURVE",
"508 805 OFFCURVE",
"485 805 QCURVE",
"462 805 OFFCURVE",
"438 831 OFFCURVE",
"438 854 QCURVE",
"438 875 OFFCURVE",
"465 900 OFFCURVE",
"485 900 QCURVE"
);
},
{
closed = 1;
nodes = (
"635 707 LINE",
"635 301 LINE",
"635 233 OFFCURVE",
"604 120 OFFCURVE",
"537 38 OFFCURVE",
"433 -8 OFFCURVE",
"361 -8 QCURVE",
"289 -8 OFFCURVE",
"185 38 OFFCURVE",
"118 120 OFFCURVE",
"87 233 OFFCURVE",
"87 301 QCURVE",
"87 707 LINE",
"152 707 LINE",
"152 305 LINE",
"152 252 OFFCURVE",
"174 159 OFFCURVE",
"224 90 OFFCURVE",
"304 51 OFFCURVE",
"362 51 QCURVE",
"420 51 OFFCURVE",
"500 91 OFFCURVE",
"549 160 OFFCURVE",
"570 252 OFFCURVE",
"570 305 QCURVE",
"570 707 LINE"
);
}
);
width = 722;
}
);
leftKerningGroup = _kern1;
rightKerningGroup = _kern2;
unicode = 00DC;
},
{
color = (166, 255, 153, 255);
glyphname = ccedilla;
layers = (
{
layerId = "65F68577-51D6-4015-BE17-9540A8734A9C";
paths = (
{
closed = 1;
nodes = (
"294 -76 LINE",
"339 -67 OFFCURVE",
"403 -104 OFFCURVE",
"403 -153 QCURVE",
"403 -187 OFFCURVE",
"372 -231 OFFCURVE",
"324 -256 OFFCURVE",
"266 -262 OFFCURVE",
"238 -258 QCURVE",
"238 -218 LINE",
"255 -220 OFFCURVE",
"295 -217 OFFCURVE",
"329 -205 OFFCURVE",
"352 -180 OFFCURVE",
"352 -157 QCURVE",
"352 -133 OFFCURVE",
"322 -113 OFFCURVE",
"301 -113 QCURVE",
"285 -113 OFFCURVE",
"253 -117 OFFCURVE",
"241 -120 QCURVE",
"265 -4 LINE",
"211 1 OFFCURVE",
"130 44 OFFCURVE",
"76 115 OFFCURVE",
"49 208 OFFCURVE",
"49 262 QCURVE",
"49 322 OFFCURVE",
"81 421 OFFCURVE",
"145 493 OFFCURVE",
"239 533 OFFCURVE",
"301 533 QCURVE",
"373 533 OFFCURVE",
"482 463 OFFCURVE",
"501 391 QCURVE",
"434 391 LINE",
"420 435 OFFCURVE",
"343 477 OFFCURVE",
"297 477 QCURVE",
"250 477 OFFCURVE",
"181 443 OFFCURVE",
"136 384 OFFCURVE",
"114 306 OFFCURVE",
"114 262 QCURVE",
"114 219 OFFCURVE",
"136 142 OFFCURVE",
"181 84 OFFCURVE",
"252 50 OFFCURVE",
"300 50 QCURVE",
"348 50 OFFCURVE",
"424 86 OFFCURVE",
"441 135 QCURVE",
"509 135 LINE",
"499 99 OFFCURVE",
"459 48 OFFCURVE",
"405 13 OFFCURVE",
"342 -5 OFFCURVE",
"308 -6 QCURVE"
);
}
);
width = 555;
}
);
leftKerningGroup = _kern5;
rightKerningGroup = _kern6;
unicode = 00E7;
},
{
color = (166, 255, 153, 255);
glyphname = uni0162;
layers = (
{
layerId = "65F68577-51D6-4015-BE17-9540A8734A9C";
paths = (
{
closed = 1;
nodes = (
"552 647 LINE",
"318 647 LINE",
"318 0 LINE",
"306 0 LINE",
"290 -80 LINE",
"335 -71 OFFCURVE",
"399 -108 OFFCURVE",
"399 -157 QCURVE",
"399 -191 OFFCURVE",
"368 -235 OFFCURVE",
"320 -260 OFFCURVE",
"262 -266 OFFCURVE",
"234 -262 QCURVE",
"234 -222 LINE",
"251 -224 OFFCURVE",
"291 -221 OFFCURVE",
"325 -209 OFFCURVE",
"348 -184 OFFCURVE",
"348 -161 QCURVE",
"348 -137 OFFCURVE",
"321 -117 OFFCURVE",
"298 -117 QCURVE",
"281 -117 OFFCURVE",
"249 -121 OFFCURVE",
"237 -124 QCURVE",
"263 0 LINE",
"253 0 LINE",
"253 647 LINE",
"19 647 LINE",
"19 707 LINE",
"552 707 LINE"
);
}
);
width = 571;
}
);
leftKerningGroup = _kern28;
rightKerningGroup = _kern28;
unicode = 0162;
},
{
color = (166, 255, 153, 255);
glyphname = uni0163;
layers = (
{
layerId = "65F68577-51D6-4015-BE17-9540A8734A9C";
paths = (
{
closed = 1;
nodes = (
"189 527 LINE",
"336 527 LINE",
"336 471 LINE",
"189 471 LINE",
"189 175 LINE",
"189 161 OFFCURVE",
"191 132 OFFCURVE",
"198 105 OFFCURVE",
"212 81 OFFCURVE",
"225 72 QCURVE",
"237 64 OFFCURVE",
"274 57 OFFCURVE",
"291 57 QCURVE",
"331 57 LINE",
"331 0 LINE",
"285 0 LINE",
"260 0 OFFCURVE",
"236 3 QCURVE",
"218 -73 LINE",
"263 -64 OFFCURVE",
"327 -101 OFFCURVE",
"327 -150 QCURVE",
"327 -184 OFFCURVE",
"296 -228 OFFCURVE",
"248 -253 OFFCURVE",
"190 -259 OFFCURVE",
"162 -255 QCURVE",
"162 -215 LINE",
"179 -217 OFFCURVE",
"219 -214 OFFCURVE",
"253 -202 OFFCURVE",
"276 -177 OFFCURVE",
"276 -154 QCURVE",
"276 -131 OFFCURVE",
"246 -110 OFFCURVE",
"225 -110 QCURVE",
"209 -110 OFFCURVE",
"177 -114 OFFCURVE",
"165 -117 QCURVE",
"195 15 LINE",
"174 25 OFFCURVE",
"159 41 QCURVE",
"140 61 OFFCURVE",
"123 128 OFFCURVE",
"123 171 QCURVE",
"123 471 LINE",
"34 471 LINE",
"34 527 LINE",
"123 527 LINE",
"123 678 LINE",
"189 678 LINE"
);
}
);
width = 380;
}
);
leftKerningGroup = _kern21;
rightKerningGroup = _kern21;
unicode = 0163;
},
{
color = (166, 255, 153, 255);
glyphname = Ccedilla;
layers = (
{
layerId = "65F68577-51D6-4015-BE17-9540A8734A9C";
paths = (
{
closed = 1;
nodes = (
"309 656 OFFCURVE",
"212 608 OFFCURVE",
"150 525 OFFCURVE",
"120 416 OFFCURVE",
"120 355 QCURVE",
"120 293 OFFCURVE",
"150 183 OFFCURVE",
"214 100 OFFCURVE",
"312 51 OFFCURVE",
"380 51 QCURVE",
"411 51 OFFCURVE",
"474 64 OFFCURVE",
"529 93 OFFCURVE",
"573 137 OFFCURVE",
"585 168 QCURVE",
"658 168 LINE",
"643 123 OFFCURVE",
"589 58 OFFCURVE",
"519 16 OFFCURVE",
"435 -6 OFFCURVE",
"391 -7 QCURVE",
"376 -80 LINE",
"421 -71 OFFCURVE",
"485 -108 OFFCURVE",
"485 -157 QCURVE",
"485 -191 OFFCURVE",
"454 -235 OFFCURVE",
"406 -260 OFFCURVE",
"348 -266 OFFCURVE",
"320 -262 QCURVE",
"320 -222 LINE",
"337 -224 OFFCURVE",
"377 -221 OFFCURVE",
"411 -209 OFFCURVE",
"434 -183 OFFCURVE",
"434 -161 QCURVE",
"434 -137 OFFCURVE",
"404 -117 OFFCURVE",
"383 -117 QCURVE",
"367 -117 OFFCURVE",
"335 -121 OFFCURVE",
"323 -124 QCURVE",
"347 -7 LINE",
"272 -2 OFFCURVE",
"161 56 OFFCURVE",
"88 151 OFFCURVE",
"53 279 OFFCURVE",
"53 353 QCURVE",
"53 430 OFFCURVE",
"93 563 OFFCURVE",
"174 660 OFFCURVE",
"296 715 OFFCURVE",
"378 715 QCURVE",
"424 715 OFFCURVE",
"509 695 OFFCURVE",
"580 653 OFFCURVE",
"631 586 OFFCURVE",
"645 539 QCURVE",
"579 539 LINE",
"567 570 OFFCURVE",
"524 614 OFFCURVE",
"470 643 OFFCURVE",
"408 656 OFFCURVE",
"377 656 QCURVE"
);
}
);
width = 711;
}
);
leftKerningGroup = _kern3;
rightKerningGroup = _kern4;
unicode = 00C7;
},
{
color = (166, 255, 153, 255);
glyphname = scedilla;
layers = (
{
layerId = "65F68577-51D6-4015-BE17-9540A8734A9C";
paths = (
{
closed = 1;
nodes = (
"238 477 OFFCURVE",
"191 469 OFFCURVE",
"153 450 OFFCURVE",
"128 416 OFFCURVE",
"128 389 QCURVE",
"128 368 OFFCURVE",
"145 338 OFFCURVE",
"172 318 OFFCURVE",
"206 306 OFFCURVE",
"224 302 QCURVE",
"256 295 OFFCURVE",
"318 283 OFFCURVE",
"350 275 QCURVE",
"403 264 OFFCURVE",
"470 202 OFFCURVE",
"470 144 QCURVE",
"470 101 OFFCURVE",
"435 43 OFFCURVE",
"379 9 OFFCURVE",
"308 -6 OFFCURVE",
"272 -6 QCURVE",
"259 -70 LINE",
"304 -61 OFFCURVE",
"368 -98 OFFCURVE",
"368 -147 QCURVE",
"368 -181 OFFCURVE",
"337 -225 OFFCURVE",
"289 -250 OFFCURVE",
"231 -256 OFFCURVE",
"203 -252 QCURVE",
"203 -212 LINE",
"220 -214 OFFCURVE",
"260 -211 OFFCURVE",
"294 -199 OFFCURVE",
"317 -174 OFFCURVE",
"317 -151 QCURVE",
"317 -130 OFFCURVE",
"286 -108 OFFCURVE",
"266 -107 QCURVE",
"252 -106 OFFCURVE",
"218 -110 OFFCURVE",
"206 -114 QCURVE",
"228 -4 LINE",
"198 -1 OFFCURVE",
"140 16 OFFCURVE",
"91 48 OFFCURVE",
"55 94 OFFCURVE",
"48 127 QCURVE",
"115 127 LINE",
"126 104 OFFCURVE",
"159 75 OFFCURVE",
"199 58 OFFCURVE",
"244 50 OFFCURVE",
"267 50 QCURVE",
"290 50 OFFCURVE",
"339 56 OFFCURVE",
"379 75 OFFCURVE",
"405 111 OFFCURVE",
"405 140 QCURVE",
"405 160 OFFCURVE",
"389 188 OFFCURVE",
"363 206 OFFCURVE",
"330 217 OFFCURVE",
"313 221 QCURVE",
"282 228 OFFCURVE",
"222 239 OFFCURVE",
"190 247 QCURVE",
"135 260 OFFCURVE",
"63 327 OFFCURVE",
"63 387 QCURVE",
"63 430 OFFCURVE",
"99 486 OFFCURVE",
"156 519 OFFCURVE",
"228 533 OFFCURVE",
"263 533 QCURVE",
"294 533 OFFCURVE",
"357 520 OFFCURVE",
"409 490 OFFCURVE",
"446 442 OFFCURVE",
"452 408 QCURVE",
"391 408 LINE",
"384 426 OFFCURVE",
"356 453 OFFCURVE",
"320 469 OFFCURVE",
"280 477 OFFCURVE",
"261 477 QCURVE"
);
}
);
width = 519;
}
);
leftKerningGroup = _kern5;
rightKerningGroup = _kern6;
unicode = 015F;
},
{
color = (166, 255, 153, 255);
glyphname = uni21A9;
layers = (
{
layerId = "65F68577-51D6-4015-BE17-9540A8734A9C";
paths = (
{
closed = 1;
nodes = (
"761 60 LINE",
"823 60 OFFCURVE",
"921 103 OFFCURVE",
"988 178 OFFCURVE",
"1023 280 OFFCURVE",
"1023 340 QCURVE",
"1023 399 OFFCURVE",
"988 501 OFFCURVE",
"920 576 OFFCURVE",
"823 618 OFFCURVE",
"761 618 QCURVE",
"201 618 LINE",
"201 678 LINE",
"769 678 LINE",
"845 678 OFFCURVE",
"964 627 OFFCURVE",
"1045 537 OFFCURVE",
"1087 413 OFFCURVE",
"1087 340 QCURVE",
"1087 266 OFFCURVE",
"1045 141 OFFCURVE",
"964 51 OFFCURVE",
"845 0 OFFCURVE",
"769 0 QCURVE",
"178 0 LINE",
"415 -237 LINE",
"372 -283 LINE",
"64 30 LINE",
"372 342 LINE",
"415 296 LINE",
"178 60 LINE"
);
}
);
width = 1151;
}
);
unicode = 21A9;
},
{
color = (166, 255, 153, 255);
glyphname = uni2713;
layers = (
{
layerId = "65F68577-51D6-4015-BE17-9540A8734A9C";
paths = (
{
closed = 1;
nodes = (
"937 820 LINE",
"996 774 LINE",
"378 7 LINE",
"64 370 LINE",
"122 417 LINE",
"378 118 LINE"
);
}
);
width = 1060;
}
);
unicode = 2713;
},
{
color = (166, 255, 153, 255);
glyphname = divide;
layers = (
{
layerId = "65F68577-51D6-4015-BE17-9540A8734A9C";
paths = (
{
closed = 1;
nodes = (
"258 232 OFFCURVE",
"286 203 OFFCURVE",
"286 181 QCURVE",
"286 159 OFFCURVE",
"259 129 OFFCURVE",
"235 129 QCURVE",
"212 129 OFFCURVE",
"185 159 OFFCURVE",
"185 181 QCURVE",
"185 203 OFFCURVE",
"212 232 OFFCURVE",
"235 232 QCURVE"
);
},
{
closed = 1;
nodes = (
"258 587 OFFCURVE",
"286 559 OFFCURVE",
"286 537 QCURVE",
"286 515 OFFCURVE",
"259 485 OFFCURVE",
"235 485 QCURVE",
"212 485 OFFCURVE",
"185 515 OFFCURVE",
"185 537 QCURVE",
"185 559 OFFCURVE",
"212 587 OFFCURVE",
"235 587 QCURVE"
);
},
{
closed = 1;
nodes = (
"407 328 LINE",
"64 328 LINE",
"64 388 LINE",
"407 388 LINE"
);
}
);
width = 471;
}
);
unicode = 00F7;
},
{
color = (166, 255, 153, 255);
glyphname = multiply;
layers = (
{
layerId = "65F68577-51D6-4015-BE17-9540A8734A9C";
paths = (
{
closed = 1;
nodes = (
"230 316 LINE",
"88 174 LINE",
"50 212 LINE",
"193 353 LINE",
"50 495 LINE",
"88 533 LINE",
"230 390 LINE",
"371 533 LINE",
"409 495 LINE",
"267 353 LINE",
"409 212 LINE",
"371 174 LINE"
);
}
);
width = 459;
}
);
unicode = 00D7;
},
{
color = (166, 255, 153, 255);
glyphname = yen;
layers = (
{
layerId = "65F68577-51D6-4015-BE17-9540A8734A9C";
paths = (
{
closed = 1;
nodes = (
"534 707 LINE",
"610 707 LINE",
"386 312 LINE",
"507 312 LINE",
"507 253 LINE",
"359 253 LINE",
"359 157 LINE",
"507 157 LINE",
"507 98 LINE",
"359 98 LINE",
"359 0 LINE",
"294 0 LINE",
"294 98 LINE",
"145 98 LINE",
"145 157 LINE",
"294 157 LINE",
"294 253 LINE",
"145 253 LINE",
"145 312 LINE",
"268 312 LINE",
"44 707 LINE",
"120 707 LINE",
"329 330 LINE"
);
}
);
width = 654;
}
);
unicode = 00A5;
},
{
color = (166, 255, 153, 255);
glyphname = uni20BD;
layers = (
{
layerId = "65F68577-51D6-4015-BE17-9540A8734A9C";
paths = (
{
closed = 1;
nodes = (
"165 707 LINE",
"403 707 LINE",
"461 707 OFFCURVE",
"552 682 OFFCURVE",
"616 628 OFFCURVE",
"650 544 OFFCURVE",
"650 484 QCURVE",
"650 424 OFFCURVE",
"609 338 OFFCURVE",
"538 283 OFFCURVE",
"441 257 OFFCURVE",
"385 257 QCURVE",
"230 257 LINE",
"230 154 LINE",
"517 154 LINE",
"517 94 LINE",
"230 94 LINE",
"230 0 LINE",
"165 0 LINE",
"165 94 LINE",
"64 94 LINE",
"64 154 LINE",
"165 154 LINE",
"165 257 LINE",
"64 257 LINE",
"64 317 LINE",
"165 317 LINE"
);
},
{
closed = 1;
nodes = (
"383 317 LINE",
"428 317 OFFCURVE",
"502 335 OFFCURVE",
"555 375 OFFCURVE",
"583 440 OFFCURVE",
"583 487 QCURVE",
"583 531 OFFCURVE",
"558 592 OFFCURVE",
"510 630 OFFCURVE",
"442 647 OFFCURVE",
"399 647 QCURVE",
"230 647 LINE",
"230 317 LINE"
);
}
);
width = 704;
}
);
unicode = 20BD;
},
{
color = (166, 255, 153, 255);
glyphname = uni20B4;
layers = (
{
layerId = "65F68577-51D6-4015-BE17-9540A8734A9C";
paths = (
{
closed = 1;
nodes = (
"354 715 OFFCURVE",
"421 697 OFFCURVE",
"474 660 OFFCURVE",
"506 602 OFFCURVE",
"507 562 QCURVE",
"508 526 OFFCURVE",
"480 468 OFFCURVE",
"457 446 QCURVE",
"538 446 LINE",
"538 387 LINE",
"406 387 LINE",
"255 279 LINE",
"538 279 LINE",
"538 220 LINE",
"191 220 LINE",
"165 192 OFFCURVE",
"165 154 QCURVE",
"165 126 OFFCURVE",
"188 86 OFFCURVE",
"225 61 OFFCURVE",
"272 49 OFFCURVE",
"296 49 QCURVE",
"317 49 OFFCURVE",
"361 54 OFFCURVE",
"399 69 OFFCURVE",
"430 96 OFFCURVE",
"439 119 QCURVE",
"508 119 LINE",
"499 83 OFFCURVE",
"455 34 OFFCURVE",
"397 4 OFFCURVE",
"328 -8 OFFCURVE",
"295 -8 QCURVE",
"259 -8 OFFCURVE",
"189 8 OFFCURVE",
"134 44 OFFCURVE",
"101 101 OFFCURVE",
"101 143 QCURVE",
"101 161 OFFCURVE",
"112 204 OFFCURVE",
"123 220 QCURVE",
"52 220 LINE",
"52 279 LINE",
"171 279 LINE",
"319 387 LINE",
"52 387 LINE",
"52 446 LINE",
"388 446 LINE",
"398 452 OFFCURVE",
"419 475 OFFCURVE",
"436 503 OFFCURVE",
"447 534 OFFCURVE",
"447 549 QCURVE",
"447 578 OFFCURVE",
"425 619 OFFCURVE",
"389 644 OFFCURVE",
"342 656 OFFCURVE",
"316 656 QCURVE",
"293 656 OFFCURVE",
"251 650 OFFCURVE",
"214 633 OFFCURVE",
"186 604 OFFCURVE",
"179 580 QCURVE",
"108 580 LINE",
"116 617 OFFCURVE",
"159 668 OFFCURVE",
"217 700 OFFCURVE",
"285 715 OFFCURVE",
"319 715 QCURVE"
);
}
);
width = 590;
}
);
unicode = 20B4;
},
{
color = (166, 255, 153, 255);
glyphname = sterling;
layers = (
{
layerId = "65F68577-51D6-4015-BE17-9540A8734A9C";
paths = (
{
closed = 1;
nodes = (
"426 365 LINE",
"426 307 LINE",
"212 307 LINE",
"212 60 LINE",
"520 60 LINE",
"520 0 LINE",
"64 0 LINE",
"64 60 LINE",
"149 60 LINE",
"149 307 LINE",
"64 307 LINE",
"64 367 LINE",
"149 367 LINE",
"149 525 LINE",
"149 619 OFFCURVE",
"252 715 OFFCURVE",
"344 715 QCURVE",
"376 715 OFFCURVE",
"434 700 OFFCURVE",
"480 667 OFFCURVE",
"511 618 OFFCURVE",
"516 585 QCURVE",
"452 585 LINE",
"447 604 OFFCURVE",
"426 631 OFFCURVE",
"397 648 OFFCURVE",
"362 656 OFFCURVE",
"345 656 QCURVE",
"276 656 OFFCURVE",
"212 587 OFFCURVE",
"212 518 QCURVE",
"212 367 LINE",
"426 367 LINE"
);
}
);
width = 584;
}
);
unicode = 00A3;
},
{
color = (166, 255, 153, 255);
glyphname = Scedilla;
layers = (
{
layerId = "65F68577-51D6-4015-BE17-9540A8734A9C";
paths = (
{
closed = 1;
nodes = (
"321 -80 LINE",
"366 -71 OFFCURVE",
"430 -109 OFFCURVE",
"430 -157 QCURVE",
"430 -191 OFFCURVE",
"400 -235 OFFCURVE",
"352 -260 OFFCURVE",
"293 -266 OFFCURVE",
"265 -262 QCURVE",
"265 -222 LINE",
"282 -224 OFFCURVE",
"322 -221 OFFCURVE",
"356 -209 OFFCURVE",
"379 -184 OFFCURVE",
"379 -162 QCURVE",
"379 -149 OFFCURVE",
"369 -130 OFFCURVE",
"361 -125 QCURVE",
"349 -118 OFFCURVE",
"328 -117 QCURVE",
"312 -117 OFFCURVE",
"280 -121 OFFCURVE",
"268 -124 QCURVE",
"292 -6 LINE",
"251 -3 OFFCURVE",
"175 20 OFFCURVE",
"112 62 OFFCURVE",
"65 124 OFFCURVE",
"53 168 QCURVE",
"123 168 LINE",
"136 135 OFFCURVE",
"182 90 OFFCURVE",
"241 63 OFFCURVE",
"306 51 OFFCURVE",
"339 51 QCURVE",
"370 51 OFFCURVE",
"432 65 OFFCURVE",
"482 96 OFFCURVE",
"513 146 OFFCURVE",
"513 182 QCURVE",
"513 211 OFFCURVE",
"493 252 OFFCURVE",
"459 282 OFFCURVE",
"413 301 OFFCURVE",
"387 307 QCURVE",
"347 317 OFFCURVE",
"270 333 OFFCURVE",
"230 344 QCURVE",
"162 363 OFFCURVE",
"77 448 OFFCURVE",
"77 522 QCURVE",
"77 576 OFFCURVE",
"118 649 OFFCURVE",
"187 695 OFFCURVE",
"275 715 OFFCURVE",
"322 715 QCURVE",
"365 715 OFFCURVE",
"445 696 OFFCURVE",
"510 655 OFFCURVE",
"554 590 OFFCURVE",
"560 543 QCURVE",
"494 543 LINE",
"488 576 OFFCURVE",
"455 619 OFFCURVE",
"408 645 OFFCURVE",
"352 656 OFFCURVE",
"322 656 QCURVE",
"291 656 OFFCURVE",
"228 645 OFFCURVE",
"177 616 OFFCURVE",
"145 567 OFFCURVE",
"145 530 QCURVE",
"145 500 OFFCURVE",
"166 457 OFFCURVE",
"202 426 OFFCURVE",
"249 406 OFFCURVE",
"275 399 QCURVE",
"315 388 OFFCURVE",
"391 371 OFFCURVE",
"432 360 QCURVE",
"463 351 OFFCURVE",
"517 325 OFFCURVE",
"557 286 OFFCURVE",
"580 233 OFFCURVE",
"580 198 QCURVE",
"580 142 OFFCURVE",
"541 64 OFFCURVE",
"475 15 OFFCURVE",
"386 -8 OFFCURVE",
"336 -8 QCURVE"
);
}
);
width = 634;
}
);
leftKerningGroup = _kern3;
rightKerningGroup = _kern4;
unicode = 015E;
},
{
color = (166, 255, 153, 255);
glyphname = t_alt;
layers = (
{
layerId = "65F68577-51D6-4015-BE17-9540A8734A9C";
paths = (
{
closed = 1;
nodes = (
"189 527 LINE",
"336 527 LINE",
"336 471 LINE",
"189 471 LINE",
"189 175 LINE",
"189 148 OFFCURVE",
"200 88 OFFCURVE",
"225 72 QCURVE",
"238 64 OFFCURVE",
"274 57 OFFCURVE",
"291 57 QCURVE",
"331 57 LINE",
"331 0 LINE",
"285 0 LINE",
"251 0 OFFCURVE",
"184 16 OFFCURVE",
"159 41 QCURVE",
"140 61 OFFCURVE",
"123 128 OFFCURVE",
"123 171 QCURVE",
"123 471 LINE",
"34 471 LINE",
"34 527 LINE",
"122 527 LINE",
"136 678 LINE",
"189 678 LINE"
);
}
);
width = 380;
}
);
leftKerningGroup = _kern21;
rightKerningGroup = _kern21;
},
{
color = (166, 255, 153, 255);
glyphname = alt_1;
layers = (
{
layerId = "65F68577-51D6-4015-BE17-9540A8734A9C";
paths = (
{
closed = 1;
nodes = (
"308 60 LINE",
"469 60 LINE",
"469 0 LINE",
"52 0 LINE",
"52 60 LINE",
"243 60 LINE",
"243 585 LINE",
"96 585 LINE",
"96 626 LINE",
"132 627 OFFCURVE",
"187 637 OFFCURVE",
"228 656 OFFCURVE",
"256 685 OFFCURVE",
"266 707 QCURVE",
"308 707 LINE"
);
}
);
width = 493;
}
);
},
{
color = (166, 255, 153, 255);
glyphname = uni2117;
layers = (
{
layerId = "65F68577-51D6-4015-BE17-9540A8734A9C";
paths = (
{
closed = 1;
nodes = (
"562 715 OFFCURVE",
"712 653 OFFCURVE",
"817 541 OFFCURVE",
"874 386 OFFCURVE",
"874 294 QCURVE",
"874 202 OFFCURVE",
"819 48 OFFCURVE",
"714 -63 OFFCURVE",
"564 -125 OFFCURVE",
"469 -125 QCURVE",
"374 -125 OFFCURVE",
"224 -63 OFFCURVE",
"119 48 OFFCURVE",
"64 202 OFFCURVE",
"64 294 QCURVE",
"64 386 OFFCURVE",
"121 541 OFFCURVE",
"226 653 OFFCURVE",
"376 715 OFFCURVE",
"469 715 QCURVE"
);
},
{
closed = 1;
nodes = (
"389 654 OFFCURVE",
"263 600 OFFCURVE",
"176 504 OFFCURVE",
"129 372 OFFCURVE",
"129 294 QCURVE",
"129 217 OFFCURVE",
"175 85 OFFCURVE",
"263 -11 OFFCURVE",
"389 -65 OFFCURVE",
"469 -65 QCURVE",
"549 -65 OFFCURVE",
"676 -10 OFFCURVE",
"763 86 OFFCURVE",
"809 217 OFFCURVE",
"809 294 QCURVE",
"809 371 OFFCURVE",
"763 503 OFFCURVE",
"675 599 OFFCURVE",
"549 654 OFFCURVE",
"469 654 QCURVE"
);
},
{
closed = 1;
nodes = (
"403 75 LINE",
"346 75 LINE",
"346 500 LINE",
"496 500 LINE",
"566 500 OFFCURVE",
"651 433 OFFCURVE",
"652 359 QCURVE",
"652 321 OFFCURVE",
"628 266 OFFCURVE",
"583 230 OFFCURVE",
"520 213 OFFCURVE",
"483 213 QCURVE",
"403 213 LINE"
);
},
{
closed = 1;
nodes = (
"485 266 LINE",
"533 266 OFFCURVE",
"595 307 OFFCURVE",
"595 359 QCURVE",
"595 406 OFFCURVE",
"538 447 OFFCURVE",
"494 447 QCURVE",
"403 447 LINE",
"403 266 LINE"
);
}
);
width = 938;
}
);
unicode = 2117;
},
{
color = (166, 255, 153, 255);
glyphname = colon.uc;
layers = (
{
layerId = "65F68577-51D6-4015-BE17-9540A8734A9C";
paths = (
{
closed = 1;
nodes = (
"146 577 OFFCURVE",
"173 548 OFFCURVE",
"173 526 QCURVE",
"173 504 OFFCURVE",
"146 474 OFFCURVE",
"123 474 QCURVE",
"100 474 OFFCURVE",
"72 504 OFFCURVE",
"72 526 QCURVE",
"72 548 OFFCURVE",
"100 577 OFFCURVE",
"123 577 QCURVE"
);
},
{
closed = 1;
nodes = (
"146 212 OFFCURVE",
"173 184 OFFCURVE",
"173 162 QCURVE",
"173 140 OFFCURVE",
"146 110 OFFCURVE",
"123 110 QCURVE",
"100 110 OFFCURVE",
"72 140 OFFCURVE",
"72 162 QCURVE",
"72 184 OFFCURVE",
"100 212 OFFCURVE",
"123 212 QCURVE"
);
}
);
width = 245;
}
);
},
{
color = (166, 255, 153, 255);
glyphname = y_alt;
layers = (
{
layerId = "65F68577-51D6-4015-BE17-9540A8734A9C";
paths = (
{
closed = 1;
nodes = (
"532 527 LINE",
"532 -12 LINE",
"532 -128 OFFCURVE",
"408 -245 OFFCURVE",
"294 -245 QCURVE",
"256 -245 OFFCURVE",
"186 -229 OFFCURVE",
"128 -195 OFFCURVE",
"86 -142 OFFCURVE",
"76 -105 QCURVE",
"146 -105 LINE",
"154 -128 OFFCURVE",
"188 -160 OFFCURVE",
"231 -180 OFFCURVE",
"278 -189 OFFCURVE",
"301 -189 QCURVE",
"362 -189 OFFCURVE",
"430 -143 OFFCURVE",
"461 -66 OFFCURVE",
"467 35 OFFCURVE",
"467 90 QCURVE",
"450 60 OFFCURVE",
"405 23 OFFCURVE",
"354 1 OFFCURVE",
"300 -7 OFFCURVE",
"276 -7 QCURVE",
"217 -7 OFFCURVE",
"139 29 OFFCURVE",
"92 93 OFFCURVE",
"72 181 OFFCURVE",
"72 234 QCURVE",
"72 527 LINE",
"138 527 LINE",
"138 256 LINE",
"138 217 OFFCURVE",
"147 143 OFFCURVE",
"177 84 OFFCURVE",
"235 49 OFFCURVE",
"285 49 QCURVE",
"336 49 OFFCURVE",
"405 87 OFFCURVE",
"448 149 OFFCURVE",
"466 227 OFFCURVE",
"466 267 QCURVE",
"466 527 LINE"
);
}
);
width = 604;
}
);
},
{
color = (166, 255, 153, 255);
glyphname = u_alt;
layers = (
{
layerId = "65F68577-51D6-4015-BE17-9540A8734A9C";
paths = (
{
closed = 1;
nodes = (
"521 527 LINE",
"521 0 LINE",
"462 0 LINE",
"457 74 LINE",
"439 50 OFFCURVE",
"395 18 OFFCURVE",
"346 -1 OFFCURVE",
"294 -9 OFFCURVE",
"269 -9 QCURVE",
"214 -9 OFFCURVE",
"135 27 OFFCURVE",
"86 93 OFFCURVE",
"67 180 OFFCURVE",
"67 232 QCURVE",
"67 527 LINE",
"133 527 LINE",
"133 255 LINE",
"133 216 OFFCURVE",
"141 142 OFFCURVE",
"171 85 OFFCURVE",
"229 50 OFFCURVE",
"280 50 QCURVE",
"329 50 OFFCURVE",
"398 86 OFFCURVE",
"420 115 QCURVE",
"442 144 OFFCURVE",
"455 227 OFFCURVE",
"455 271 QCURVE",
"455 527 LINE"
);
}
);
width = 593;
}
);
},
{
color = (166, 255, 153, 255);
glyphname = be_alt;
layers = (
{
layerId = "65F68577-51D6-4015-BE17-9540A8734A9C";
paths = (
{
closed = 1;
nodes = (
"49 369 OFFCURVE",
"57 465 OFFCURVE",
"77 541 OFFCURVE",
"112 599 OFFCURVE",
"140 623 QCURVE",
"162 642 OFFCURVE",
"213 669 OFFCURVE",
"267 690 OFFCURVE",
"321 707 OFFCURVE",
"347 714 QCURVE",
"388 728 OFFCURVE",
"457 751 OFFCURVE",
"487 779 QCURVE",
"525 730 LINE",
"509 704 OFFCURVE",
"422 673 OFFCURVE",
"368 656 QCURVE",
"302 636 OFFCURVE",
"208 603 OFFCURVE",
"177 575 QCURVE",
"146 547 OFFCURVE",
"115 460 OFFCURVE",
"114 388 QCURVE",
"130 415 OFFCURVE",
"176 452 OFFCURVE",
"228 475 OFFCURVE",
"284 485 OFFCURVE",
"310 485 QCURVE",
"363 485 OFFCURVE",
"444 448 OFFCURVE",
"498 384 OFFCURVE",
"526 297 OFFCURVE",
"526 247 QCURVE",
"526 192 OFFCURVE",
"494 99 OFFCURVE",
"433 32 OFFCURVE",
"345 -6 OFFCURVE",
"288 -6 QCURVE",
"216 -6 OFFCURVE",
"124 45 OFFCURVE",
"70 132 OFFCURVE",
"49 246 OFFCURVE",
"49 309 QCURVE"
);
},
{
closed = 1;
nodes = (
"332 49 OFFCURVE",
"396 81 OFFCURVE",
"439 135 OFFCURVE",
"460 205 OFFCURVE",
"460 244 QCURVE",
"460 281 OFFCURVE",
"439 348 OFFCURVE",
"397 399 OFFCURVE",
"335 429 OFFCURVE",
"295 429 QCURVE",
"254 429 OFFCURVE",
"188 397 OFFCURVE",
"143 343 OFFCURVE",
"120 273 OFFCURVE",
"120 235 QCURVE",
"120 198 OFFCURVE",
"143 130 OFFCURVE",
"187 79 OFFCURVE",
"249 49 OFFCURVE",
"289 49 QCURVE"
);
}
);
width = 574;
}
);
},
{
color = (166, 255, 153, 255);
glyphname = g_alt;
layers = (
{
layerId = "65F68577-51D6-4015-BE17-9540A8734A9C";
paths = (
{
closed = 1;
nodes = (
"475 527 LINE",
"537 527 LINE",
"537 17 LINE",
"537 -45 OFFCURVE",
"511 -142 OFFCURVE",
"454 -209 OFFCURVE",
"363 -245 OFFCURVE",
"299 -245 QCURVE",
"226 -245 OFFCURVE",
"128 -205 OFFCURVE",
"92 -179 QCURVE",
"121 -125 LINE",
"165 -159 OFFCURVE",
"258 -189 OFFCURVE",
"303 -189 QCURVE",
"354 -189 OFFCURVE",
"419 -158 OFFCURVE",
"456 -102 OFFCURVE",
"471 -27 OFFCURVE",
"471 18 QCURVE",
"471 86 LINE",
"440 38 OFFCURVE",
"339 -6 OFFCURVE",
"279 -6 QCURVE",
"216 -6 OFFCURVE",
"127 40 OFFCURVE",
"72 118 OFFCURVE",
"47 221 OFFCURVE",
"49 277 QCURVE",
"50 332 OFFCURVE",
"83 425 OFFCURVE",
"143 493 OFFCURVE",
"231 533 OFFCURVE",
"291 533 QCURVE",
"345 533 OFFCURVE",
"441 495 OFFCURVE",
"471 450 QCURVE"
);
},
{
closed = 1;
nodes = (
"243 477 OFFCURVE",
"177 442 OFFCURVE",
"135 383 OFFCURVE",
"115 307 OFFCURVE",
"115 265 QCURVE",
"115 221 OFFCURVE",
"134 143 OFFCURVE",
"176 85 OFFCURVE",
"243 50 OFFCURVE",
"292 50 QCURVE",
"336 50 OFFCURVE",
"407 89 OFFCURVE",
"430 119 QCURVE",
"453 149 OFFCURVE",
"473 224 OFFCURVE",
"473 265 QCURVE",
"473 314 OFFCURVE",
"442 411 OFFCURVE",
"401 442 QCURVE",
"354 477 OFFCURVE",
"290 477 QCURVE"
);
}
);
width = 609;
}
);
},
{
color = (166, 255, 153, 255);
glyphname = y;
layers = (
{
layerId = "65F68577-51D6-4015-BE17-9540A8734A9C";
paths = (
{
closed = 1;
nodes = (
"532 527 LINE",
"532 0 LINE",
"532 -62 OFFCURVE",
"506 -149 OFFCURVE",
"475 -183 QCURVE",
"441 -220 OFFCURVE",
"345 -246 OFFCURVE",
"297 -246 QCURVE",
"243 -246 OFFCURVE",
"131 -214 OFFCURVE",
"89 -179 QCURVE",
"118 -125 LINE",
"158 -155 OFFCURVE",
"249 -188 OFFCURVE",
"297 -188 QCURVE",
"343 -188 OFFCURVE",
"407 -162 OFFCURVE",
"428 -138 QCURVE",
"449 -114 OFFCURVE",
"466 -42 OFFCURVE",
"466 1 QCURVE",
"466 80 LINE",
"451 56 OFFCURVE",
"408 22 OFFCURVE",
"358 1 OFFCURVE",
"303 -8 OFFCURVE",
"276 -8 QCURVE",
"222 -8 OFFCURVE",
"145 26 OFFCURVE",
"122 53 QCURVE",
"93 85 OFFCURVE",
"72 185 OFFCURVE",
"72 242 QCURVE",
"72 527 LINE",
"138 527 LINE",
"138 267 LINE",
"138 222 OFFCURVE",
"147 136 OFFCURVE",
"167 106 QCURVE",
"184 80 OFFCURVE",
"245 49 OFFCURVE",
"291 50 QCURVE",
"348 51 OFFCURVE",
"421 100 OFFCURVE",
"441 141 QCURVE",
"455 170 OFFCURVE",
"466 238 OFFCURVE",
"466 274 QCURVE",
"466 527 LINE"
);
}
);
width = 604;
}
);
unicode = 0079;
},
{
color = (166, 255, 153, 255);
glyphname = t2.alt;
layers = (
{
layerId = "65F68577-51D6-4015-BE17-9540A8734A9C";
paths = (
{
closed = 1;
nodes = (
"189 527 LINE",
"358 527 LINE",
"358 471 LINE",
"189 471 LINE",
"189 174 LINE",
"189 151 OFFCURVE",
"194 107 OFFCURVE",
"212 72 OFFCURVE",
"247 50 OFFCURVE",
"277 50 QCURVE",
"296 50 OFFCURVE",
"335 61 OFFCURVE",
"347 72 QCURVE",
"373 25 LINE",
"350 7 OFFCURVE",
"299 -6 OFFCURVE",
"268 -6 QCURVE",
"227 -6 OFFCURVE",
"171 18 OFFCURVE",
"137 61 OFFCURVE",
"123 124 OFFCURVE",
"123 163 QCURVE",
"123 471 LINE",
"34 471 LINE",
"34 527 LINE",
"123 527 LINE",
"123 678 LINE",
"189 678 LINE"
);
}
);
width = 393;
}
);
},
{
color = (166, 255, 153, 255);
glyphname = f_alt;
layers = (
{
layerId = "65F68577-51D6-4015-BE17-9540A8734A9C";
paths = (
{
closed = 1;
nodes = (
"123 0 LINE",
"123 472 LINE",
"34 472 LINE",
"34 527 LINE",
"123 527 LINE",
"123 580 LINE",
"124 625 OFFCURVE",
"135 692 OFFCURVE",
"160 721 QCURVE",
"175 738 OFFCURVE",
"231 763 OFFCURVE",
"270 763 QCURVE",
"300 763 OFFCURVE",
"347 753 OFFCURVE",
"368 738 QCURVE",
"344 684 LINE",
"319 707 OFFCURVE",
"275 708 QCURVE",
"246 707 OFFCURVE",
"212 686 OFFCURVE",
"194 651 OFFCURVE",
"189 609 OFFCURVE",
"189 587 QCURVE",
"189 527 LINE",
"355 527 LINE",
"355 472 LINE",
"189 472 LINE",
"189 0 LINE"
);
}
);
width = 375;
}
);
},
{
color = (166, 255, 153, 255);
glyphname = hyphen.uc;
layers = (
{
layerId = "65F68577-51D6-4015-BE17-9540A8734A9C";
paths = (
{
closed = 1;
nodes = (
"79 367 LINE",
"374 367 LINE",
"374 307 LINE",
"79 307 LINE"
);
}
);
width = 453;
}
);
},
{
color = (166, 255, 153, 255);
glyphname = uni00AD.uc;
layers = (
{
layerId = "65F68577-51D6-4015-BE17-9540A8734A9C";
paths = (
{
closed = 1;
nodes = (
"79 367 LINE",
"374 367 LINE",
"374 307 LINE",
"79 307 LINE"
);
}
);
width = 453;
}
);
},
{
color = (166, 255, 153, 255);
glyphname = endash.uc;
layers = (
{
layerId = "65F68577-51D6-4015-BE17-9540A8734A9C";
paths = (
{
closed = 1;
nodes = (
"79 367 LINE",
"497 367 LINE",
"497 307 LINE",
"79 307 LINE"
);
}
);
width = 576;
}
);
},
{
color = (166, 255, 153, 255);
glyphname = emdash.uc;
layers = (
{
layerId = "65F68577-51D6-4015-BE17-9540A8734A9C";
paths = (
{
closed = 1;
nodes = (
"79 367 LINE",
"684 367 LINE",
"684 307 LINE",
"79 307 LINE"
);
}
);
width = 763;
}
);
},
